<?xml version="1.0" encoding="utf-8"?>
<!-- Generator: Adobe Illustrator 21.0.0, SVG Export Plug-In . SVG Version: 6.00 Build 0)  -->
<svg version="1.1" id="Capa_1" xmlns="http://www.w3.org/2000/svg" xmlns:xlink="http://www.w3.org/1999/xlink" x="0px" y="0px"
	 viewBox="0 0 129 25.9" style="enable-background:new 0 0 129 25.9;" xml:space="preserve">
<style type="text/css">
	.st0{fill:#B38E5D;}
	.st1{fill:#FFFFFF;}
</style>
<g>
	<g>
		<path class="st0" d="M33,23.6c-0.2,0-0.3-0.1-0.5-0.2l0.2-0.5c0.1,0.1,0.3,0.2,0.4,0.2c0.2,0,0.3,0.1,0.5,0.1c0.1,0,0.3,0,0.4-0.1
			c0.1,0,0.1-0.1,0.1-0.2c0-0.1,0-0.1-0.1-0.2c-0.1,0-0.1-0.1-0.2-0.1l-0.3-0.1c-0.2-0.1-0.4-0.1-0.5-0.1c-0.1,0-0.2-0.1-0.3-0.2
			c-0.1-0.1-0.1-0.3-0.1-0.4c0-0.1,0-0.3,0.1-0.4c0.1-0.1,0.2-0.2,0.4-0.3c0.2-0.1,0.4-0.1,0.6-0.1c0.2,0,0.3,0,0.5,0.1
			c0.1,0,0.3,0.1,0.4,0.1l-0.2,0.5c-0.2-0.1-0.5-0.2-0.7-0.2c-0.1,0-0.3,0-0.4,0.1c-0.1,0-0.1,0.1-0.1,0.2c0,0.1,0.1,0.2,0.1,0.2
			c0.1,0.1,0.3,0.1,0.4,0.1c0.2,0.1,0.4,0.1,0.5,0.1c0.1,0,0.2,0.1,0.3,0.2c0.1,0.1,0.1,0.3,0.1,0.4c0,0.1,0,0.3-0.1,0.4
			c-0.1,0.1-0.2,0.2-0.4,0.3c-0.2,0.1-0.4,0.1-0.6,0.1C33.3,23.7,33.1,23.6,33,23.6z"/>
		<path class="st0" d="M37.7,23.1v0.5h-2.1V21h2v0.5h-1.4v0.6h1.2v0.5h-1.2v0.6H37.7z"/>
		<path class="st0" d="M39.3,23.5c-0.4-0.2-0.7-0.7-0.7-1.2c0-0.3,0.1-0.5,0.2-0.7c0.1-0.2,0.3-0.4,0.5-0.5c0.2-0.1,0.5-0.2,0.8-0.2
			c0.2,0,0.4,0,0.6,0.1c0.2,0.1,0.3,0.2,0.5,0.3l-0.4,0.4c-0.2-0.2-0.4-0.3-0.7-0.3c-0.2,0-0.3,0-0.4,0.1c-0.1,0.1-0.2,0.2-0.3,0.3
			c-0.1,0.1-0.1,0.3-0.1,0.4c0,0.2,0,0.3,0.1,0.4c0.1,0.1,0.2,0.2,0.3,0.3c0.1,0.1,0.3,0.1,0.4,0.1c0.3,0,0.5-0.1,0.7-0.3l0.4,0.4
			c-0.1,0.2-0.3,0.3-0.5,0.4c-0.2,0.1-0.4,0.1-0.6,0.1C39.8,23.7,39.5,23.6,39.3,23.5z"/>
		<path class="st0" d="M43.7,23.6l-0.5-0.8h-0.6v0.8H42V21h1.2c0.2,0,0.4,0,0.6,0.1c0.2,0.1,0.3,0.2,0.4,0.3c0.2,0.3,0.2,0.7,0,1
			c-0.1,0.1-0.2,0.3-0.4,0.3l0.6,0.9L43.7,23.6z M43.6,21.6c-0.1-0.1-0.3-0.1-0.4-0.1h-0.5v0.9h0.5c0.2,0,0.3,0,0.4-0.1
			c0.1-0.1,0.1-0.2,0.1-0.3C43.7,21.8,43.7,21.7,43.6,21.6z"/>
		<path class="st0" d="M47.4,23.1v0.5h-2V21h2v0.5H46v0.6h1.2v0.5H46v0.6H47.4z"/>
		<path class="st0" d="M49,21.5h-0.9V21h2.3v0.5h-0.9v2.2H49V21.5z"/>
		<path class="st0" d="M52.9,23.1h-1.2l-0.2,0.6h-0.6L52,21h0.6l1.2,2.7h-0.6L52.9,23.1z M52.7,22.6l-0.4-1l-0.4,1L52.7,22.6z"/>
		<path class="st0" d="M56.3,23.6l-0.5-0.8h-0.6v0.8h-0.6V21h1.2c0.2,0,0.4,0,0.6,0.1c0.2,0.1,0.3,0.2,0.4,0.3
			c0.1,0.1,0.2,0.3,0.2,0.5c0,0.4-0.2,0.7-0.5,0.8l0.5,0.9H56.3z M56.2,21.6c-0.1-0.1-0.3-0.1-0.4-0.1h-0.5v0.9h0.5
			c0.1,0,0.3,0,0.4-0.1c0.1-0.1,0.2-0.2,0.1-0.3C56.3,21.8,56.3,21.7,56.2,21.6z"/>
		<path class="st0" d="M58.4,20.2H59l-0.7,0.5h-0.5L58.4,20.2z M57.9,21h0.6v2.7h-0.6V21z"/>
		<path class="st0" d="M61.5,23.1h-1.2L60,23.6h-0.6l1.2-2.7h0.6l1.2,2.7h-0.6L61.5,23.1z M61.3,22.6l-0.4-1l-0.4,1L61.3,22.6z"/>
		<path class="st0" d="M64.8,21H66c0.3,0,0.5,0,0.8,0.2c0.2,0.1,0.4,0.3,0.5,0.5c0.2,0.4,0.2,1,0,1.4c-0.1,0.2-0.3,0.4-0.5,0.5
			c-0.2,0.1-0.5,0.2-0.8,0.2h-1.2V21z M65.9,23.1c0.2,0,0.5-0.1,0.6-0.2c0.2-0.2,0.2-0.4,0.2-0.6c0-0.2-0.1-0.4-0.2-0.6
			c-0.2-0.2-0.4-0.2-0.6-0.2h-0.6v1.6L65.9,23.1z"/>
		<path class="st0" d="M70.5,23.1v0.5h-2.1V21h2v0.5H69v0.6h1.2v0.5H69v0.6H70.5z"/>
		<path class="st0" d="M73.6,23.5c-0.2-0.1-0.4-0.3-0.5-0.5c-0.1-0.2-0.2-0.5-0.2-0.7c0-0.5,0.3-1,0.7-1.2c0.2-0.1,0.5-0.2,0.8-0.2
			c0.2,0,0.4,0,0.6,0.1c0.2,0.1,0.3,0.2,0.5,0.3l-0.4,0.4c-0.2-0.2-0.4-0.3-0.7-0.3c-0.2,0-0.3,0-0.4,0.1c-0.1,0.1-0.2,0.2-0.3,0.3
			c-0.1,0.1-0.1,0.3-0.1,0.4c0,0.2,0,0.3,0.1,0.4c0.1,0.1,0.2,0.2,0.3,0.3c0.1,0.1,0.3,0.1,0.4,0.1c0.3,0,0.5-0.1,0.7-0.3l0.4,0.4
			c-0.1,0.2-0.3,0.3-0.5,0.4c-0.2,0.1-0.4,0.1-0.6,0.1C74.1,23.7,73.9,23.6,73.6,23.5z"/>
		<path class="st0" d="M76.7,23.4c-0.2-0.2-0.3-0.6-0.3-0.9V21H77v1.5c0,0.5,0.2,0.7,0.6,0.7c0.2,0,0.3-0.1,0.4-0.2
			c0.1-0.2,0.2-0.3,0.2-0.5V21h0.6v1.5c0,0.3-0.1,0.7-0.3,0.9C78,23.8,77.2,23.8,76.7,23.4L76.7,23.4z"/>
		<path class="st0" d="M79.9,21h0.6v2.2h1.3v0.5h-1.9L79.9,21z"/>
		<path class="st0" d="M83.1,21.5h-0.9V21h2.3v0.5h-0.9v2.2h-0.6V21.5z"/>
		<path class="st0" d="M85.6,23.4c-0.2-0.2-0.3-0.6-0.3-0.9V21h0.6v1.5c0,0.5,0.2,0.7,0.6,0.7c0.2,0,0.3-0.1,0.4-0.2
			c0.1-0.2,0.2-0.3,0.1-0.5V21h0.6v1.5c0,0.3-0.1,0.7-0.3,0.9c-0.2,0.2-0.6,0.3-0.9,0.3C86.2,23.7,85.9,23.6,85.6,23.4z"/>
		<path class="st0" d="M90.5,23.6L90,22.9h-0.6v0.8h-0.6V21H90c0.2,0,0.4,0,0.6,0.1c0.2,0.1,0.3,0.2,0.4,0.3
			c0.1,0.2,0.2,0.3,0.1,0.5c0,0.4-0.2,0.7-0.5,0.8l0.6,0.9L90.5,23.6z M90.4,21.6c-0.1-0.1-0.3-0.1-0.4-0.1h-0.5v0.9H90
			c0.1,0,0.3,0,0.4-0.1c0.1-0.1,0.2-0.2,0.1-0.3C90.6,21.8,90.5,21.7,90.4,21.6L90.4,21.6z"/>
		<path class="st0" d="M93.9,23.1h-1.2l-0.2,0.6h-0.6L93,21h0.6l1.2,2.7h-0.6L93.9,23.1z M93.7,22.6l-0.5-1l-0.4,1L93.7,22.6z"/>
	</g>
	<g>
		<path class="st1" d="M49.4,3.9c-0.1,1-0.2,2-0.1,3v2c0,2.4,0.7,3.9,3,3.9c0.8,0,1.6-0.2,2.3-0.7C55,10.6,55.1,9,55,7.4
			c0-1.1,0-2.3-0.1-3.4c-0.6-0.3-1.2-0.5-1.8-0.6c0-0.4,0.1-0.7,0.2-1.1h5.2c0.1,0.3,0.2,0.7,0.2,1.1c-0.4,0.2-1.2,0.4-1.6,0.5
			c-0.1,1.2-0.1,2.7-0.1,5.5c0,3.6-2.1,5.5-5.4,5.5c-3.7,0-5.4-2-5.4-6.1V6.8c0.1-0.9,0-1.9-0.3-2.8c-0.4-0.4-0.9-0.6-1.4-0.8
			c0-0.4,0.1-0.7,0.2-1.1h6C50.9,2.6,51,3,51,3.4C50.6,3.5,49.9,3.8,49.4,3.9"/>
		<path class="st1" d="M61.6,13.2c0.1-1,0.2-2.1,0.2-3.1V7c0.1-0.9,0-1.9-0.3-2.8C61,3.8,60.5,3.5,60,3.4c0-0.4,0.1-0.8,0.2-1.1h6.1
			c0.1,0.3,0.2,0.7,0.2,1.1c-0.4,0.2-1.1,0.4-1.5,0.5c-0.1,1-0.2,2.1-0.2,3.1v3.1c-0.1,1,0,1.9,0.3,2.8c0,0,0.1,0.1,0.1,0.1
			c0.5,0.2,1,0.3,1.5,0.3c0.6,0,1.2-0.1,1.7-0.2c0.3-0.8,0.4-1.5,0.6-2.3c0.7,0,1.4,0,2,0.1c0.1,1.3,0.1,2.6,0,3.9h-11
			c-0.1-0.3-0.2-0.7-0.2-1.1C60.4,13.6,61.1,13.4,61.6,13.2"/>
		<path class="st1" d="M119.9,14.8h-5.6l-0.2-1.1l1.5-0.7c1.1-2.2,2.4-5.6,3.7-8.9l0.6-1.7c1.1-0.2,2.2-0.3,3.3-0.3
			c0.2,0.7,0.4,1.4,0.6,2.1c1.3,3.3,2.8,7.3,3.5,8.9l1.7,0.6l-0.2,1.1h-6.2l-0.2-1.1l1.5-0.5c-0.2-0.6-0.5-1.4-0.8-2.2l-4.5,0.1
			c-0.2,0.7-0.4,1.3-0.6,1.9l2,0.7L119.9,14.8z M122.6,9.4c-0.5-1.5-1.1-3.1-1.7-4.6c-0.5,1.4-1.1,3-1.6,4.5L122.6,9.4z"/>
		<path class="st1" d="M102.2,13.2c0.1-1,0.2-2.1,0.2-3.1V7c0.1-1,0-1.9-0.3-2.8c-0.4-0.4-0.9-0.6-1.5-0.8l0.2-1.1h3
			c0.6,0,2.6-0.1,3.6-0.1c3,0,4.9,1.1,4.9,3.3c0,1.7-1.3,2.7-2.4,3.3c0.7,1.5,1.6,2.9,2.5,4.3l1.2,0.6l-0.2,1.1
			c-1.2,0-2.3,0-3.7,0.1c-0.6-1.4-1.4-3.2-2.4-5.1h-1.8v0.3c-0.1,1,0,1.9,0.3,2.8c0.4,0.4,0.9,0.6,1.5,0.8l-0.2,1.1h-6.1l-0.2-1.1
			L102.2,13.2z M105.5,8l2.5,0.1c0.7-0.6,1.1-1.4,1-2.3c0-0.6-0.1-1.2-0.4-1.7c-0.5-0.3-1-0.4-1.5-0.4c-0.5,0-1,0.1-1.4,0.2
			c-0.1,1-0.2,2.1-0.2,3.1L105.5,8z"/>
		<path class="st1" d="M76.2,13.2c0.1-1,0.2-2.1,0.2-3.1V3.7h-0.1c-0.5,0-1.1,0-1.5,0.1l-0.6,2.4c-0.7,0-1.4,0-2.1-0.1
			c0-1.2,0-2.6,0-3.9h6.3c2.1,0,3.8-0.1,5.1-0.2C83.7,2.4,83.9,2.7,84,3c0,1-0.2,2.2-0.3,3.2c-0.6,0.1-1.3,0.1-1.9,0l-0.6-2.3
			c-0.5,0-1.1-0.1-1.7-0.1v6.4c-0.1,1,0,1.9,0.3,2.8c0.4,0.4,0.9,0.6,1.5,0.8L81,14.8h-6.1l-0.2-1.1L76.2,13.2z"/>
		<path class="st1" d="M90,3.9c-0.1,1-0.2,2-0.2,3v2c0,2.4,0.7,3.9,3,3.9c0.8,0,1.6-0.2,2.3-0.7c0.4-1.5,0.5-3.1,0.4-4.7
			c0-1.1,0-2.3-0.1-3.4c-0.6-0.3-1.2-0.5-1.8-0.6c0-0.4,0.1-0.7,0.2-1.1h5.2c0.1,0.3,0.2,0.7,0.2,1.1c-0.4,0.2-1.2,0.4-1.6,0.5
			c-0.1,1.2-0.1,2.7-0.1,5.5c0,3.6-2.1,5.5-5.4,5.5c-3.7,0-5.4-2-5.4-6.1V6.8c0.1-0.9,0-1.9-0.3-2.8c-0.4-0.4-0.9-0.6-1.4-0.8
			c0-0.4,0.1-0.7,0.2-1.1h6c0.1,0.3,0.2,0.7,0.2,1.1C91.1,3.5,90.4,3.7,90,3.9"/>
		<path class="st1" d="M40,12.7c0.3-0.7,0.6-1.5,0.8-2.2c0.7,0,1.4,0,2.1,0.1c0,0.8,0.1,2,0.1,2.7l-0.3,0.6
			c-1.4,0.8-3.1,1.3-4.8,1.3c-4.2,0-6.7-2.4-6.7-6.2c0-4.1,3.5-7,7.5-7c1.5,0,3,0.4,4.3,1.1l0.3,0.5c-0.2,1-0.5,2.3-0.7,3.3
			c-0.7,0-1.3,0-2-0.1c-0.1-0.8-0.3-1.6-0.6-2.3c-0.6-0.4-1.4-0.6-2.1-0.5c-0.7,0-1.3,0.1-1.9,0.4C35,5.5,34.5,7,34.5,8.5
			c0,2.7,1.4,4.6,3.7,4.6C38.8,13.1,39.4,13,40,12.7"/>
	</g>
	<g>
		<path class="st0" d="M22.2,12c0-0.6-0.2-1.2-0.4-1.8c0,0-0.1-0.1-0.2-0.1c0,0-0.1,0-0.1,0v0.1c0.2,0.5,0.3,1.1,0.4,1.6
			c0,0.4,0,0.8-0.2,1.1c0,0.3,0,0.6,0,0.9c0,0.1-0.1,0.2-0.1,0.2s-0.1,0-0.1-0.2c0-0.3,0-0.6,0-0.9l0,0c0-0.4,0-0.8-0.1-1.2
			c-0.1-0.3-0.3-0.6-0.6-0.9c-0.1-0.2-0.2-0.4-0.3-0.7c0-0.1,0-0.1,0-0.2s0-0.1-0.1-0.2l-0.2-0.3c0,0-0.1,0-0.1,0
			c-0.1,0-0.1,0-0.2,0.1c0,0,0,0.1,0,0.1l0.3,1.1c0.1,0.2,0.2,0.4,0.4,0.6l0,0c0.1,0.1,0.2,0.2,0.2,0.3c0.1,0.1,0.2,0.3,0.2,0.5
			c0.1,0.4,0.1,0.9,0.1,1.7l0.2,1.1c0,0.4,0,0.8-0.1,1.2c0,0.1,0,0.2,0,0.2l0,0c0,0,0.1,0,0.2-0.1c0.3-0.4,0.3-1.6,0.3-2.6
			c0-0.3,0.1-0.5,0.1-0.8C22.1,12.5,22.1,12.3,22.2,12"/>
		<path class="st0" d="M21.1,10.4v-0.2c0,0,0-0.1,0-0.1C21,10,21,10,20.9,9.9h-0.1c0,0,0,0,0,0c0.1,0.4,0.2,0.7,0.5,1h0
			c0,0,0-0.1,0-0.1l-0.1-0.3C21.2,10.5,21.2,10.4,21.1,10.4"/>
		<path class="st0" d="M19.8,13.3L19.8,13.3c-0.1,0-0.1-0.1-0.1-0.1c-0.1-0.3-0.2-0.6-0.3-1c0-0.1,0-0.3-0.1-0.4
			c0-0.2-0.2-0.4-0.3-0.6c-0.4-0.3-0.7-0.7-0.9-1.2c0-0.1-0.1-0.2-0.2-0.2c0,0,0,0-0.1,0c0,0.1,0,0.2,0,0.2c0.1,0.3,0.2,0.5,0.4,0.7
			c0.1,0.1,0.1,0.1,0.2,0.2l0,0c0.2,0.2,0.4,0.3,0.5,0.5c0.1,0.2,0.2,0.4,0.2,0.6v0.1l0,0c0.1,0.5,0.3,1.1,0.5,1.5
			c0.1,0.2,0.1,0.3,0.2,0.5l0.1,0.6c0,0.2,0.1,0.2,0.1,0.2l0,0c0-0.1,0-0.1,0-0.2c0-0.6,0-1.3-0.1-1.9c0-0.5-0.2-1.1-0.4-1.5
			c0-0.1-0.1-0.1-0.2-0.1l0,0c0,0,0,0,0,0.1c0.2,0.5,0.3,1,0.4,1.5C19.8,13.1,19.8,13.2,19.8,13.3L19.8,13.3z"/>
		<path class="st0" d="M18.6,10c0-0.1-0.1-0.1-0.1-0.1c0,0-0.1,0-0.1,0l0,0c0.1,0.3,0.2,0.6,0.5,0.8h0.1l0,0c0,0,0,0,0-0.1
			C18.7,10.4,18.6,10.2,18.6,10"/>
		<path class="st0" d="M20.6,13.3L20.6,13.3c0,0-0.1,0-0.1-0.1c0,0,0-0.1,0-0.1L20.3,12c-0.1-0.3-0.2-0.6-0.4-0.9
			c-0.3-0.4-0.6-0.9-0.8-1.3c0-0.2-0.1-0.2-0.1-0.2s-0.1,0-0.1,0.1c0,0.1,0,0.1,0,0.2c0.1,0.5,0.4,0.9,0.7,1.3
			c0.2,0.2,0.3,0.4,0.4,0.7l0,0c0,0.1,0.1,0.3,0.1,0.4l0,0c0.1,0.6,0.3,1.2,0.5,1.7c0.1,0.2,0.1,0.3,0.1,0.5c0,0.4,0,0.7,0.1,0.9
			c0,0.2,0.1,0.2,0.1,0.2s0.1-0.1,0.1-0.2c0.1-0.7,0.1-1.4,0-2.1c0-0.4-0.1-0.8-0.1-1.1c0-0.2-0.1-0.3-0.2-0.5
			c-0.1-0.1-0.1-0.1-0.1-0.1c0,0,0,0,0,0.1c0.1,0.5,0.2,1,0.2,1.4C20.7,13.2,20.7,13.3,20.6,13.3L20.6,13.3z"/>
		<path class="st0" d="M19.9,10.7c-0.1-0.2-0.2-0.3-0.2-0.5l-0.1-0.3c0-0.1,0-0.1-0.1-0.1c0,0-0.1-0.1-0.2-0.1c0,0,0,0-0.1,0
			c0,0,0,0.1,0,0.1c0.1,0.4,0.3,0.8,0.5,1l0,0c0,0,0,0,0.1,0l0,0c0,0,0,0,0-0.1C20,10.7,20,10.7,19.9,10.7"/>
		<path class="st0" d="M18.7,13.3L18.7,13.3l0.1,0.2c0,0.1,0,0.1,0.1,0.2c0,0,0,0,0.1,0c0,0,0.1,0,0.1-0.1c0-0.1,0-0.1,0-0.2
			c0-0.7-0.1-1.4-0.5-2.1c0,0-0.1,0-0.1-0.1c0,0,0,0,0,0.1s0,0.1,0,0.1c0.1,0.2,0.1,0.3,0.2,0.5c0,0,0,0.1,0,0.2l0,0l0,0
			c0,0-0.1,0-0.1-0.1c-0.1-0.3-0.3-0.5-0.6-0.7c-0.3-0.2-0.6-0.4-0.9-0.7c-0.1-0.1-0.2-0.2-0.2-0.3l-0.1,0c0,0-0.1,0.1-0.1,0.1
			c0,0.1,0,0.1,0,0.1c0.2,0.3,0.4,0.6,0.7,0.8c0.4,0.2,0.8,0.5,1,1C18.5,12.6,18.6,13,18.7,13.3"/>
		<path class="st0" d="M17.2,10.2c0,0-0.1,0-0.1,0l0,0c0.1,0.2,0.3,0.4,0.6,0.6h0.1l0,0c0,0,0,0,0-0.1c-0.2-0.2-0.3-0.3-0.4-0.5
			C17.3,10.2,17.3,10.1,17.2,10.2"/>
		<path class="st0" d="M16.2,11.3L16.2,11.3l0.3,0.1c0.1,0,0.2,0.1,0.3,0.2c0.2,0.2,0.4,0.4,0.6,0.7l0,0c0.1,0.2,0.3,0.4,0.5,0.6
			c0,0,0.1,0,0.1,0c0,0,0,0,0.1,0c0,0,0-0.1,0-0.1c-0.1-0.4-0.3-0.8-0.5-1.2c0-0.1-0.1-0.1-0.2-0.1l0,0l0,0l0.1,0.2v0.1l0,0
			c0,0,0,0-0.1,0l0,0h0l0,0c-0.1-0.1-0.2-0.3-0.3-0.4c-0.1-0.1-0.1-0.1-0.2-0.1l-0.4-0.2c-0.1-0.1-0.2-0.1-0.3-0.2
			c-0.1-0.1-0.2-0.2-0.3-0.3h-0.1c0,0,0,0-0.1,0c0,0,0,0.1,0,0.1c0.1,0.1,0.2,0.2,0.3,0.3L16.2,11.3"/>
		<path class="st0" d="M20.3,15.8c-0.3-0.2-0.5-0.3-0.7-0.4c-1.2-0.9-2.3-1.7-3.6-2.6H16l0,0c0,0.1,0,0.2,0.1,0.2l3.7,2.8l0,0
			c0.1,0,0.1,0.1,0.1,0.1c0,0,0,0.1-0.1,0.2c-0.1,0.1-0.2,0.1-0.4,0.1c-0.2,0-0.5-0.1-0.6-0.2c-1-0.8-2-1.5-2.9-2.3c0,0,0,0-0.1,0
			l0,0c0,0,0,0.1,0,0.1c0,0.1,0.1,0.1,0.1,0.1l2.9,2.3c0.5,0.3,1,0.2,1.4-0.1C20.4,16,20.4,15.9,20.3,15.8
			C20.4,15.8,20.4,15.8,20.3,15.8"/>
		<path class="st0" d="M18.9,15.6c0.1,0.1,0.3,0.2,0.4,0.3h0.1h0c0,0,0-0.1-0.1-0.1l-3.3-2.6h0l0,0c0,0,0,0.1,0.1,0.2L18.9,15.6z"/>
		<path class="st0" d="M18.1,15.7l-2.2-1.8c0,0,0,0-0.1,0l0,0c0,0,0,0.1,0.1,0.1c0.6,0.6,1.3,1.2,2,1.8c0.1,0.1,0.2,0.2,0.3,0.2
			c0,0,0.1,0,0.1,0c0,0,0.1,0,0.1,0c0,0,0,0,0,0L18.1,15.7z"/>
		<path class="st0" d="M16.4,11L16.4,11C16.5,11,16.5,11,16.4,11c0.1-0.1,0-0.1,0-0.2c0,0-0.1-0.1-0.2-0.1h-0.1c0,0,0,0,0,0l0,0
			C16.2,10.8,16.3,10.9,16.4,11"/>
		<path class="st0" d="M18.5,16.5c0.1,0,0.2,0,0.3-0.1c0,0,0,0,0-0.1c0,0,0,0-0.1-0.1h-0.2h-0.1c-0.2,0-0.4-0.1-0.5-0.2
			c-0.5-0.4-0.9-0.8-1.3-1.1l0,0c-0.3-0.3-0.5-0.5-0.8-0.8h-0.1l0,0c0,0,0,0.1,0,0.1c0,0,0,0,0.1,0.1l0.1,0.1
			c0.6,0.6,1.2,1.2,1.9,1.7c0.1,0.1,0.3,0.2,0.4,0.3C18.4,16.5,18.5,16.5,18.5,16.5"/>
		<path class="st0" d="M15.6,14.4c0.5,0.5,1,1,1.5,1.5c0.1,0.1,0.2,0.2,0.4,0.2l0,0v0c-0.5-0.4-1-1-1.5-1.4l-0.1-0.1l0,0
			C15.9,14.5,15.8,14.4,15.6,14.4L15.6,14.4C15.6,14.4,15.6,14.4,15.6,14.4"/>
		<path class="st0" d="M17.7,16.6c0,0,0.1,0,0.1,0l0,0C17.9,16.6,17.8,16.5,17.7,16.6L17.7,16.6c-0.2-0.1-0.4-0.2-0.6-0.3
			c-0.6-0.5-1.1-1.1-1.7-1.6c0,0,0,0-0.1,0l0,0c0,0.1,0,0.1,0,0.2c0,0,0.1,0.1,0.1,0.1l0,0c0.3,0.3,0.7,0.8,1.3,1.3
			c0.1,0.2,0.3,0.3,0.5,0.4C17.4,16.6,17.6,16.6,17.7,16.6"/>
		<path class="st0" d="M16.9,16.4L16.9,16.4c0-0.1-0.1-0.1-0.1-0.1c-0.3,0-0.6-0.4-1-0.9l-0.2-0.2h0l0,0c0,0,0,0,0,0.1l0.8,0.9
			C16.5,16.4,16.7,16.5,16.9,16.4L16.9,16.4z"/>
		<path class="st0" d="M7.2,6.9L7.2,6.9c0,0,0.1,0,0.1,0c0,0,0.1,0,0.1,0h0.1c0,0,0.1,0,0.1,0c0.1-0.1,0.2-0.2,0.3-0.2H8
			c0.1,0,0.2,0,0.3,0.1c0,0,0.1,0.1,0,0.1C8.4,7,8.3,7,8.3,7H8.2C8,7,7.9,7,7.9,7C7.6,7.1,7.4,7.3,7.4,7.6l0,0c0,0,0,0.2-0.1,0.2
			c-0.1,0-0.1,0-0.1-0.1C7.1,7.6,7,7.5,7,7.3C7,7.2,7.1,7,7.2,6.9 M6.9,7.2c-0.1,0.1-0.1,0.3,0,0.4C7,7.9,7.3,8.1,7.7,8.1l0,0
			c0.1,0,0.2,0,0.2-0.1c0-0.1,0-0.1,0-0.1C7.6,7.8,7.5,7.6,7.6,7.4c0.1-0.2,0.3-0.3,0.5-0.3h0.2c0.1,0,0.2,0,0.3-0.1
			C8.7,6.9,8.9,6.8,9,6.8c0.1,0,0.1,0,0.2,0l0,0c0.1,0.1,0.1,0.1,0,0.2c0,0,0,0,0,0c0,0-0.1,0.1-0.2,0.1c-0.1,0-0.2,0.1-0.3,0.2
			c0,0,0,0,0,0.1c0,0,0,0,0.1,0h0.1H9c0.2-0.1,0.5-0.2,0.6-0.4c0.1-0.1,0.1-0.1,0-0.2C9.5,6.6,9.2,6.5,8.9,6.6c-0.1,0-0.2,0-0.3,0
			c-0.1,0-0.2,0-0.2,0L7.9,6.5c-0.1,0-0.1,0-0.2,0c-0.1,0-0.1,0-0.2,0.1l0,0l0.1,0c0,0,0.1,0.1,0,0.1c0,0-0.1,0.1-0.1,0.1H7.4
			c-0.1,0-0.1,0-0.1,0C7.1,6.9,7,7,6.9,7.2"/>
		<path class="st0" d="M7.7,6.2C7.8,6.3,7.9,6.3,8,6.3l0,0c0,0,0.1,0,0.1-0.1C8.2,6.2,8.2,6.1,8.2,6c0-0.1,0.1-0.3,0.2-0.4l0-0.1
			c0.1-0.1,0.1-0.1,0.1-0.2c0.1-0.1,0-0.3-0.1-0.4V5c0,0.3-0.2,0.5-0.4,0.7L8,5.7C7.9,5.8,7.8,5.8,7.7,5.9C7.7,6,7.6,6,7.7,6.2
			C7.6,6.1,7.6,6.2,7.7,6.2"/>
		<path class="st0" d="M8.5,5.8C8.5,5.8,8.4,5.8,8.5,5.8c0.1,0.3,0,0.4-0.2,0.5c-0.1,0,0,0.1,0,0.1c0,0,0,0,0.1,0
			c0.2,0,0.3-0.2,0.2-0.4c0,0,0-0.1,0-0.1C8.6,5.8,8.5,5.8,8.5,5.8"/>
		<path class="st0" d="M8.8,5.2c0,0,0.1-0.1,0.1-0.1c0-0.1,0-0.2,0.1-0.2S9.1,5,9.1,5S9.1,5,9.2,5c0-0.1-0.1-0.3-0.2-0.4l0,0
			c0,0,0,0,0,0C8.9,4.8,8.9,5,8.8,5.2C8.9,5.2,8.9,5.3,8.8,5.2"/>
		<path class="st0" d="M8.8,5.6L8.8,5.6C9.4,5.4,9.6,5,9.6,4.8c0-0.2,0-0.4-0.2-0.5l0,0c0.1,0.3,0,0.6-0.2,0.8
			C9.1,5.2,9,5.4,8.8,5.5l-0.1,0C8.8,5.5,8.7,5.6,8.8,5.6C8.8,5.6,8.8,5.7,8.8,5.6"/>
		<path class="st0" d="M9.6,5.7C9.4,5.8,9.3,5.9,9.1,6C9,6,8.9,6.1,8.9,6.1c0,0,0,0,0,0l0,0c0.3-0.1,0.6-0.3,0.9-0.5
			C9.9,5.5,10,5.4,9.9,5.2c0,0,0,0-0.1,0H9.8C9.7,5.4,9,5.7,8.9,5.8c-0.1,0.1,0,0,0,0.1c0.2-0.1,0.4-0.2,0.6-0.3
			c0.1-0.1,0.2,0,0.2,0C9.7,5.6,9.6,5.6,9.6,5.7"/>
		<path class="st0" d="M8.7,6.5c0.1,0,0.1,0,0.2,0c0.3-0.1,0.6-0.3,0.9-0.4c0,0,0.1,0,0.1,0c0.1,0,0.1,0.1,0,0.2c0,0,0,0,0,0
			L9.5,6.5l0,0c0,0,0,0,0.1,0l0,0C10,6.4,10.1,6.2,10.1,6C10,6,10,5.9,9.9,5.9c-0.1,0-0.2,0-0.3,0.1C9.4,6,9.1,6.2,8.9,6.3
			c-0.1,0-0.1,0.1-0.2,0.1C8.7,6.4,8.6,6.5,8.7,6.5"/>
		<path class="st0" d="M9.9,4.9c0.1-0.1,0.2-0.3,0.3-0.2c0.1,0.1,0,0.3-0.1,0.4c-0.1,0.1,0,0.1,0,0.1l0,0h0c0.1-0.2,0.1-0.4,0.1-0.6
			c0-0.1-0.1-0.2-0.2-0.3h-0.1c0,0,0,0,0,0L10,4.6C9.9,4.7,9.9,4.7,9.9,4.9C9.8,4.8,9.8,4.9,9.9,4.9C9.8,5,9.8,4.9,9.9,4.9"/>
		<path class="st0" d="M10.5,5.1c0.2,0.1,0.4,0.1,0.5,0.2l0.1,0.1l0.5,0.2h0.1c0,0,0,0,0.1,0l0,0c0.1-0.1,0.2-0.3,0.2-0.4l0,0l0,0
			c-0.1,0-0.1,0-0.2,0c-0.1,0-0.1,0-0.2,0c-0.3-0.2-0.6-0.2-0.9-0.3h-0.1l0,0l0,0c0.4,0.1,0.7,0.2,1,0.4l0,0c0,0,0.1,0,0.1,0.1l0,0
			c0,0-0.1,0-0.1,0h0h-0.1c-0.3-0.2-0.6-0.3-0.9-0.4l0,0c0,0,0,0,0,0V5"/>
		<path class="st0" d="M10.1,6.9c0,0-0.1-0.1-0.1-0.2l0,0l0,0c0,0,0,0,0,0.1c0,0.1,0.1,0.2,0.2,0.3c0,0,0.1,0,0.1,0
			c0.1,0,0.1-0.1,0.2-0.1c0-0.1-0.1-0.3-0.2-0.4l0,0c0,0.1,0.1,0.2,0.1,0.3C10.2,6.8,10.2,6.8,10.1,6.9"/>
		<path class="st0" d="M10.6,6.6c-0.1,0-0.2-0.2-0.2-0.3h0l0,0c0,0,0,0,0,0.1c0,0.1,0.1,0.3,0.2,0.4c0,0,0.1,0,0.1,0
			c0.1,0,0.2-0.1,0.3-0.2c0-0.1,0-0.2,0-0.2C10.8,6.2,10.5,6,10.3,6l0,0c0.1,0.1,0.1,0.1,0.2,0.2l0,0c0.1,0.1,0.2,0.1,0.3,0.2
			c0,0,0,0.1,0,0.1C10.7,6.5,10.7,6.6,10.6,6.6"/>
		<path class="st0" d="M10.2,5.7L10.2,5.7c0.3,0.2,0.6,0.4,0.9,0.5c0,0,0.1,0,0.1,0c0,0,0.1,0,0.1-0.1c0.1-0.1,0.1-0.2,0.1-0.3
			c-0.3-0.3-0.7-0.5-1.1-0.6l0,0l0,0c0,0,0,0,0.1,0c0.3,0.1,0.5,0.2,0.8,0.4l0,0c0,0,0.1,0.1,0.1,0.2c0,0,0,0.1-0.1,0.1h0
			c-0.1,0-0.2-0.1-0.3-0.1h-0.1l0,0C10.6,5.7,10.4,5.7,10.2,5.7L10.2,5.7z"/>
		<path class="st0" d="M18.1,5.1c0,0,0,0.1,0.1,0.1c1.4,1.1,2.5,2.5,3.2,4.2c0,0.1,0,0.1,0,0.2c0,0-0.1,0-0.1,0
			c-0.1,0-0.2,0-0.2-0.1c-0.3-0.2-0.6-0.5-0.8-0.8c-0.8-1.2-1.8-2.3-3-3.2c0,0,0,0-0.1,0l0,0c0,0.1,0,0.2,0.1,0.2
			c1.2,1,2.3,2.1,3.1,3.5c0.3,0.5,0.9,0.8,1.5,0.8H22c0.1,0,0.1-0.1,0.1-0.1s0,0-0.1-0.1c-0.3-0.2-0.5-0.5-0.6-0.8
			c-0.7-1.5-1.9-2.9-3.3-3.9C18.2,5,18.2,5,18.1,5.1C18.1,5,18.1,5,18.1,5.1"/>
		<path class="st0" d="M20.8,9.1c0,0,0.1,0.1,0.1,0.1c0,0,0,0,0,0c0,0,0-0.1,0-0.2c-0.8-1.4-1.9-2.7-3.2-3.6c0,0-0.1,0-0.1,0
			c-0.1,0-0.1,0-0.1,0s0,0,0.1,0.1C18.9,6.4,20,7.7,20.8,9.1"/>
		<path class="st0" d="M19.5,9.1c-0.1,0-0.2-0.1-0.2-0.1c-0.6-0.9-1.3-1.6-2.2-2.3l0,0l0,0c0,0.1,0,0.2,0,0.3c0.5,0.5,1,1,1.5,1.5
			l0,0c0.2,0.3,0.5,0.6,0.8,0.9c0.1,0.1,0.2,0.1,0.3,0.1c0.1,0,0.3-0.1,0.3-0.2c0,0,0-0.1,0-0.1c-0.7-1.2-1.6-2.2-2.7-3
			c0,0,0,0-0.1,0l0,0c0,0.1,0,0.2,0.1,0.3c0.9,0.7,1.7,1.6,2.3,2.5C19.6,9,19.6,9,19.5,9.1C19.5,9.1,19.5,9.1,19.5,9.1"/>
		<path class="st0" d="M16.9,7.2L16.9,7.2c0,0,0,0.1,0,0.2C17.5,7.8,18,8.4,18.5,9c0.1,0.1,0.1,0.2,0,0.2c0,0.1-0.1,0.1-0.2,0.1
			c-0.1,0-0.1,0-0.2-0.1c-0.3-0.3-0.7-0.7-1-1l-0.4-0.4h0v0c0,0.1,0,0.1,0,0.2l1,1.1c0.1,0.2,0.3,0.3,0.5,0.4c0.1,0,0.2,0,0.2,0
			c0.1,0,0.2,0,0.3-0.1c0.1-0.1,0.1-0.3,0-0.4C18.3,8.4,17.6,7.7,16.9,7.2L16.9,7.2z"/>
		<path class="st0" d="M16.6,7.5c0,0,0,0.1,0,0.1c0.4,0.5,0.9,1,1.4,1.4l0,0l0,0c0,0,0,0,0-0.1C17.6,8.4,17.1,7.9,16.6,7.5L16.6,7.5
			z"/>
		<path class="st0" d="M16.5,8.3C16.5,8.3,16.4,8.3,16.5,8.3c-0.1,0-0.1,0-0.1,0c0,0,0,0.1,0,0.1c0.3,0.3,0.6,0.6,0.9,1
			c0,0.1,0,0.2,0,0.2c0,0.1-0.1,0.1-0.2,0.1c-0.1,0-0.1,0-0.2-0.1c-0.3-0.2-0.6-0.5-0.8-0.7V8.9c0,0,0,0,0,0c0,0,0,0.1,0,0.1
			c0.3,0.3,0.6,0.6,0.9,0.9c0.1,0,0.2,0,0.3,0c0.1,0,0.2,0,0.3-0.1c0.1-0.1,0.1-0.3,0-0.4C17.2,9,16.9,8.6,16.5,8.3"/>
		<path class="st0" d="M16.1,8.7l0.9,0.8H17h0l0,0c-0.3-0.4-0.6-0.7-1-1C16,8.6,16,8.6,16.1,8.7"/>
		<path class="st0" d="M16,10.4c0.2,0,0.3-0.1,0.4-0.2c0-0.1,0-0.2,0-0.3c-0.2-0.3-0.4-0.5-0.7-0.8l0,0c0,0,0,0,0,0c0,0,0,0.1,0,0.1
			c0.2,0.2,0.4,0.4,0.5,0.6c0,0.1,0,0.2,0,0.2c-0.1,0.1-0.1,0.1-0.2,0.1c-0.1,0-0.1,0-0.2,0c-0.2-0.1-0.4-0.3-0.5-0.5l0,0
			c0,0,0,0-0.1,0c0,0,0,0.1,0,0.1c0.2,0.2,0.4,0.4,0.7,0.6C15.9,10.5,16,10.5,16,10.4"/>
		<path class="st0" d="M15.8,9.9C15.8,9.9,15.8,9.9,15.8,9.9c0.1,0,0.2,0,0.2,0c0,0,0-0.1,0-0.1c-0.1-0.2-0.3-0.3-0.4-0.4h-0.1
			c0,0-0.1,0-0.1,0.1c0,0,0,0.1,0.1,0.1C15.5,9.6,15.7,9.8,15.8,9.9"/>
		<path class="st0" d="M15.4,10.4L15,10h0c0,0,0,0-0.1,0c0,0,0,0.1,0,0.1l0.3,0.3c0,0,0.1,0.1,0.1,0.1c0,0.1-0.1,0.2-0.2,0.2l0,0
			c-0.1,0-0.1,0.1-0.1,0.1c0,0,0,0.1,0,0.1c0,0,0,0,0.1,0h0l0.3-0.3C15.5,10.6,15.5,10.5,15.4,10.4L15.4,10.4"/>
		<path class="st0" d="M14.9,10.6L14.9,10.6L14.9,10.6C15,10.6,15,10.5,14.9,10.6l-0.1-0.4h0c0,0,0,0-0.1,0v0L14.9,10.6z"/>
		<path class="st0" d="M15,4.6c0.1,0.1,0.1,0.1,0.2,0.2c0.6,0.2,1.1,0.4,1.5,0.8c0.1,0,0.1,0.1,0,0.2c0,0.1-0.1,0.1-0.1,0.1
			c0,0-0.1,0-0.1,0c-0.4-0.3-0.8-0.5-1.2-0.7l0,0c0,0.1,0,0.1,0.1,0.1c0.5,0.2,0.9,0.5,1.3,0.8c0.1,0,0.1,0.1,0.2,0.1
			c0.1,0,0.1,0,0.1-0.1c0.1-0.3,0-0.5-0.3-0.7C16.1,5,15.6,4.8,15,4.6L15,4.6z"/>
		<path class="st0" d="M15.3,5.5L15.3,5.5c0,0.1,0,0.1,0.1,0.1l0.4,0.3c0.3,0.1,0.5,0.3,0.8,0.5c0,0.1,0,0.2,0,0.3
			c0,0.1-0.1,0.1-0.2,0.1c0,0-0.1,0-0.1,0l-0.8-0.4l0,0c0,0.1,0,0.2,0.1,0.3C15.8,6.8,16,7,16.2,7.1h0.1c0.1,0.1,0.2,0.1,0.3,0.1
			c0,0,0.1,0,0.1,0c0.2-0.2,0.2-0.4,0.1-0.7C16.3,6.1,15.8,5.8,15.3,5.5"/>
		<path class="st0" d="M16.2,6.6L16.2,6.6c0.1,0,0.2,0,0.1,0C16,6.4,15.7,6.2,15.4,6c0,0,0,0.1,0,0.1C15.6,6.3,15.9,6.5,16.2,6.6"/>
		<path class="st0" d="M15.4,7.8l0.5,0.3c0,0,0.1,0.1,0.1,0.1c0,0,0.1,0,0.1,0c0.1-0.1,0.2-0.2,0.2-0.3c0.1-0.2,0-0.3-0.1-0.4
			L15.6,7l0,0l0,0c0,0,0,0.1,0,0.1c0.2,0.1,0.3,0.3,0.5,0.4c0.1,0.1,0.1,0.2,0,0.3c0,0.1-0.1,0.1-0.1,0.1c0,0-0.1,0-0.1,0l-0.4-0.2
			c0,0,0,0,0,0C15.4,7.7,15.4,7.8,15.4,7.8"/>
		<path class="st0" d="M15.8,7.6C15.8,7.6,15.9,7.6,15.8,7.6c0.1-0.1,0.1-0.1,0.1-0.1l-0.3-0.2h0v0.1L15.8,7.6L15.8,7.6z"/>
		<path class="st0" d="M14.9,8.6c0,0,0,0.1,0,0.1l0.5,0.3c0,0,0.1,0,0.1,0c0.1,0,0.1,0,0.2-0.1l0.1-0.1c0.1-0.2,0.2-0.3,0.1-0.5
			c-0.1-0.2-0.3-0.3-0.5-0.4c0,0,0,0,0,0c0,0,0,0.1,0,0.1l0.2,0.2c0,0.1,0,0.2,0,0.2c0,0.1-0.1,0.1-0.2,0.1c0,0-0.1,0-0.1,0L15,8.6
			L14.9,8.6C14.9,8.6,14.9,8.6,14.9,8.6"/>
		<path class="st0" d="M15.1,8.4C15,8.4,15,8.4,15.1,8.4l0.2,0.2h0c0,0,0,0,0,0c0,0,0-0.1,0-0.1L15.1,8.4L15.1,8.4
			C15.1,8.3,15.1,8.3,15.1,8.4"/>
		<path class="st0" d="M14.2,9.3C14.2,9.3,14.2,9.3,14.2,9.3c-0.1,0-0.1,0.1-0.1,0.1l0.4,0.4c0,0,0.1,0.1,0.1,0.1
			c0.2,0,0.3-0.2,0.4-0.3c0.1-0.1,0.1-0.2,0-0.3c-0.1-0.2-0.2-0.3-0.4-0.4l0,0c0,0,0,0-0.1,0c0,0,0,0.1,0,0.1l0.2,0.2
			c0,0.1,0,0.2,0,0.3c0,0.1-0.1,0.1-0.2,0.1c-0.1,0-0.1,0-0.2,0L14.2,9.3L14.2,9.3z"/>
		<path class="st0" d="M14.6,9.4C14.6,9.4,14.7,9.4,14.6,9.4c0.1-0.1,0.1-0.1,0.1-0.1l-0.2-0.2l0,0c0,0,0,0,0,0c0,0,0,0.1,0,0.1
			L14.6,9.4L14.6,9.4z"/>
		<path class="st0" d="M15.2,14c0,0,0,0.1,0.1,0.1c0.1,0,0.1,0,0.1-0.1c0.4-0.5,0.2-2.1-0.2-2.8l0,0c0,0,0,0-0.1,0c0,0,0,0.1,0,0.1
			c0.3,0.6,0.5,1.4,0.4,2.1c0,0.1-0.1,0.1-0.1,0.1s-0.1,0-0.1-0.2c-0.1-0.5-0.3-1.1-0.6-1.5c0,0.1,0,0.2,0,0.3
			C15,12.7,15.2,13.4,15.2,14"/>
		<path class="st0" d="M14.9,11.4L14.9,11.4c0,0.1,0,0.1,0,0.2c0.2,0.4,0.4,0.8,0.5,1.3l0,0l0,0C15.3,12.4,15.2,11.9,14.9,11.4
			L14.9,11.4z"/>
		<path class="st0" d="M12.6,4.2l0.2,0.1l0.3,0.2C13.6,4.8,14,5.3,14,5.9V6c0.2,0.8,0.3,1.3-0.5,2c0,0.1,0,0.1,0,0.2
			c0,0,0.1,0.1,0.1,0.1l0,0c0.3-0.1,0.5-0.4,0.6-0.6C14.7,7,14.2,5.5,14,5c-0.1-0.3-0.4-0.6-0.7-0.7l-0.9-0.4
			c-0.1-0.1-0.1-0.2-0.1-0.3c0-0.1,0.1-0.1,0.2-0.2c0.1-0.1,0.3-0.1,0.4-0.1c0.1,0,0.2,0,0.3,0c1.5,0.1,2.9,0.5,4.2,1.4l0,0
			c0,0.1,0,0.1,0,0.2C17.3,4.9,17.2,5,17,5c-0.1,0-0.2,0-0.2-0.1l-0.1-0.2c0,0,0,0,0,0c0,0,0,0,0,0.1l0,0.3c0,0,0,0.1,0,0.1
			c0.2,0.1,0.4,0.1,0.6,0.1c0.3,0,0.7-0.1,0.9-0.3c0-0.1,0.1-0.1,0-0.1c0,0-0.1-0.1-0.2-0.1h-0.1c-0.3,0-0.6-0.1-0.9-0.3
			c-1.3-0.8-2.9-1.2-4.4-1.2c-0.1,0-0.3,0-0.4,0.1C12.1,3.3,12,3.5,12,3.6c0,0.1,0,0.3,0.1,0.4C12.2,4.1,12.4,4.2,12.6,4.2"/>
		<path class="st0" d="M5.7,7.3C5.7,7.5,5.8,7.6,6,7.7h0.6c0.1,0,0.1-0.1,0.1-0.1c0,0,0-0.1-0.1-0.1H6.1C6,7.4,5.9,7.2,5.8,6.9
			C5.7,6.5,5.8,6,6.2,5.7l0-0.1h0c0,0,0,0,0-0.1c0,0,0-0.1,0.1-0.1l0.1-0.1l0,0h0l0,0C5.9,5.5,5.7,5.8,5.5,6c-0.1,0.1-0.1,0.3,0,0.4
			L5.7,7.3z"/>
		<path class="st0" d="M6.9,6.8L6.9,6.8c-0.1,0-0.2,0.1-0.3,0.1c-0.1,0-0.3,0-0.4-0.1l0,0l0,0c0,0,0,0.1,0,0.1C6.3,7,6.4,7,6.6,7
			C6.7,7,6.8,7,6.9,6.8C6.9,6.9,6.9,6.8,6.9,6.8"/>
		<path class="st0" d="M6,6.3c0,0.1,0,0.1,0,0.2c0,0,0.1,0.1,0.1,0.1h0.1c0.3,0,0.6-0.2,0.9-0.4v0l0,0C6.9,6.3,6.6,6.3,6.4,6.4
			c0,0-0.1,0-0.1-0.1c0-0.1,0-0.1,0.1-0.2C6.4,6,6.5,5.9,6.6,5.8c0,0,0,0,0-0.1c0,0,0-0.1,0-0.1c0,0,0-0.1,0-0.1
			c0-0.1,0-0.1,0.1-0.2c0,0,0.1-0.1,0.1-0.1c0,0,0.1-0.1,0-0.1C6.8,5,6.8,5,6.7,5C6.5,5,6.5,5.1,6.5,5.3c0,0.1,0,0.3-0.1,0.4
			C6.2,5.9,6.1,6.1,6,6.3"/>
		<path class="st0" d="M6.7,5.5c0,0,0,0.1,0,0.1c0.1,0.1,0.1,0.2,0.1,0.4l0,0c0.1,0,0.1-0.1,0.1-0.2c0-0.1,0-0.2-0.1-0.2
			C6.8,5.5,6.8,5.4,6.7,5.5C6.7,5.4,6.7,5.4,6.7,5.5"/>
		<path class="st0" d="M11.4,20.1c0.2,0.2,0.4,0.5,0.5,0.9c0.2,0.4,0.3,0.9,0.7,1h0.1l0,0h0c-0.2-0.1-0.3-0.4-0.5-0.8
			C12,20.8,11.8,20.2,11.4,20.1L11.4,20.1C11.3,20.1,11.3,20.1,11.4,20.1"/>
		<path class="st0" d="M12,20L12,20C11.9,20,11.9,20,12,20c0.2,0.3,0.4,0.6,0.4,1c0.2,0.5,0.4,1,0.7,1l0,0h0.1l0,0
			c-0.2-0.1-0.3-0.5-0.5-0.8S12.3,20.1,12,20"/>
		<path class="st0" d="M13.1,21.1L13.1,21.1c0.1,0.4,0.3,0.9,0.7,0.9l0,0c-0.2-0.2-0.4-0.5-0.5-0.8c-0.1-0.3-0.2-0.5-0.5-0.6h-0.1
			l0,0C12.9,20.7,13,20.9,13.1,21.1"/>
		<path class="st0" d="M12,19.8h0.1c0.1,0,0.1-0.1,0.1-0.1s0-0.1-0.1-0.1c-0.1,0-0.2,0-0.2,0l0,0c-0.2,0-0.3,0-0.5-0.1h-0.1
			c0,0-0.1,0-0.1,0c0,0-0.1,0-0.1,0c0,0,0,0.1,0,0.1c0.1,0.1,0.3,0.2,0.6,0.2L12,19.8"/>
		<path class="st0" d="M15.3,19.7c-0.1-0.2-0.2-0.3-0.4-0.3c-0.2,0-0.5,0.2-0.5,0.4c0,0,0,0,0,0c0,0,0,0.1,0,0.1c0.1,0,0.1,0,0.2,0
			c0,0,0,0,0,0c0-0.2,0.2-0.2,0.2-0.2c0.1,0,0.2,0.1,0.2,0.1c0,0.1,0,0.2-0.1,0.2c-0.1,0.1-0.2,0.2-0.1,0.3c0,0,0,0,0,0
			c0.2,0.2,0.2,0.6,0,0.8c-0.1,0.1,0,0.3,0.1,0.4c0,0,0,0,0,0l0,0c0,0,0,0.1,0,0.2c0,0.1-0.1,0.1-0.2,0.1c-0.1,0-0.2-0.1-0.2-0.2
			c0-0.1-0.1-0.1-0.1-0.1c0,0-0.1,0-0.1,0c0,0,0,0.1,0,0.1c0.1,0.3,0.3,0.4,0.5,0.4c0.1,0,0.2,0,0.3-0.1c0.1-0.1,0.1-0.2,0.1-0.3
			c0-0.1,0-0.2-0.1-0.3c-0.1-0.1-0.1-0.2-0.1-0.4c0.1-0.2,0.1-0.5,0-0.7c-0.1-0.1,0-0.3,0-0.4C15.3,20,15.3,19.9,15.3,19.7"/>
		<path class="st0" d="M11,21.6c0-0.1-0.1-0.1-0.1-0.1c0,0,0,0,0,0l-0.1,0.2c0,0.1-0.1,0.1-0.2,0.1c-0.1,0-0.2-0.1-0.2-0.2
			c0,0,0,0,0-0.1c0-0.1,0.1-0.2,0.1-0.2c0-0.1,0-0.2,0-0.3c-0.1-0.2-0.1-0.4-0.1-0.6l0.1-0.3c0-0.1,0-0.2-0.1-0.2
			c-0.1,0-0.1-0.1-0.1-0.2c0-0.1,0.1-0.1,0.2-0.1h0.1c0.1,0,0.1,0.1,0.1,0.1c0,0,0,0,0,0.1c0,0,0.1,0.1,0.1,0.1c0,0,0,0,0.1,0
			c0,0,0-0.1,0-0.2c-0.1-0.2-0.3-0.4-0.5-0.4c-0.1,0-0.2,0-0.3,0.1c-0.1,0.1-0.1,0.2-0.1,0.3c0,0.1,0,0.2,0.1,0.3l0,0
			c0.1,0.1,0.1,0.3,0,0.4c-0.1,0.3-0.1,0.4,0,0.6c0.1,0.1,0.1,0.3,0,0.5v0.1c-0.1,0.1-0.1,0.2,0,0.3c0,0.2,0.2,0.3,0.4,0.3
			c0.1,0,0.2,0,0.3-0.1C10.9,21.8,11,21.7,11,21.6"/>
		<path class="st0" d="M14.3,22.1c0,0-0.1,0-0.1,0c-0.1,0-0.2,0.1-0.3,0.1h-0.1c-0.8,0-1.7,0-2.5-0.1c-0.1,0-0.2,0-0.2-0.1
			c-0.1,0-0.1,0-0.2,0c0,0-0.1,0-0.1,0c0,0,0,0.1,0,0.1c0.2,0.2,1.5,0.2,2.1,0.2h1c0.2,0,0.3-0.1,0.5-0.1c0,0,0.1-0.1,0.1-0.1
			C14.5,22.1,14.4,22.1,14.3,22.1"/>
		<path class="st0" d="M11.4,4.6c0.8,0.2,1.4,0.4,1.5,1.1c0,0.2,0,0.4,0.2,0.5l0,0V6.2c0.1-0.5-0.2-1.1-0.6-1.4
			c-0.3-0.2-0.6-0.3-1-0.4c-0.2,0-0.3-0.2-0.3-0.4c0-0.2,0.2-0.4,0.4-0.4h0c0.1,0,0.1,0,0.1-0.1s0,0,0,0h-0.1C11.3,3.5,11,3.6,11,4
			C11,4.5,11.1,4.5,11.4,4.6"/>
		<path class="st0" d="M11.4,3.9L11.4,3.9c0.1,0,0.2,0.1,0.2,0.1c0,0,0,0.1-0.2,0.1l0,0h0h0.2c0.1,0,0.2,0,0.3-0.1c0,0,0-0.1,0-0.1
			c-0.1-0.1-0.2-0.1-0.3-0.1C11.6,3.8,11.5,3.8,11.4,3.9"/>
		<path class="st0" d="M12.5,4.7c0.1,0,0.2,0,0.2,0l0,0c-0.2-0.2-0.6-0.3-0.9-0.2C11.8,4.5,12.5,4.4,12.5,4.7"/>
		<path class="st0" d="M12.7,6c-0.1-0.2-0.3-0.5-0.6-0.6c-0.1,0-0.1,0-0.1,0c0.4,0.3,0.7,0.7,0.8,1.2c0,0.1,0,0.2-0.1,0.2l0,0
			c0,0-0.1,0.1-0.1,0.1c0,0,0,0.1,0,0.1c0,0,0.1,0.1,0.1,0.1l0,0l0.4-0.3c0,0,0.1-0.1,0.1-0.1c0,0,0-0.1,0-0.1
			C13,6.4,12.8,6.2,12.7,6"/>
		<path class="st0" d="M11.6,6.2L11.6,6.2C11.6,6.3,11.6,6.3,11.6,6.2c0.1,0.4,0.1,0.8,0.1,1.2c0,0,0,0,0,0.1c0,0,0.1,0,0.2,0
			c0.1,0,0.3-0.1,0.4-0.2c0.1-0.1,0.2-0.2,0.2-0.3c0-0.4-0.2-0.9-0.5-1.2c0,0,0,0,0,0l0,0c0,0,0,0.1,0,0.1c0.3,0.6,0.4,1,0.3,1.2
			c-0.1,0.1-0.1,0.1-0.2,0.1c-0.1,0-0.1,0-0.1-0.2C11.8,6.8,11.7,6.5,11.6,6.2L11.6,6.2z"/>
		<path class="st0" d="M12,6.9c0,0,0-0.1,0-0.1c-0.1-0.3-0.2-0.6-0.3-0.8l0,0C11.8,6.3,11.9,6.6,12,6.9C11.9,6.9,12,7,12,6.9"/>
		<path class="st0" d="M12.5,6.7C12.6,6.7,12.6,6.6,12.5,6.7c0-0.5-0.4-1-0.5-1C12.2,6,12.4,6.3,12.5,6.7"/>
		<path class="st0" d="M10.8,7.4l0.1-0.5c0,0,0-0.1,0-0.1c0,0,0,0-0.1,0.1c-0.1,0.1-0.2,0.6-0.1,0.8c0,0,0,0.1,0.1,0.1h0.1
			c0.1,0,0.3,0,0.4-0.1c0.2-0.2,0.2-0.6,0.1-1V6.5c0-0.1-0.1-0.1-0.1-0.1l0,0c0,0,0,0.1,0,0.1c0,0.3,0,0.6-0.1,0.8
			c0,0.1-0.1,0.2-0.2,0.2C11,7.6,10.9,7.5,10.8,7.4"/>
		<path class="st0" d="M11.1,7.2c0-0.2,0-0.3,0-0.5l0,0c0,0,0,0,0,0c0,0.2,0,0.3-0.1,0.5c0,0,0,0,0,0.1l0,0
			C11,7.3,11.1,7.3,11.1,7.2"/>
		<path class="st0" d="M10.9,5.8C10.9,5.9,10.9,5.9,10.9,5.8L10.9,5.8C11,5.8,11,5.8,10.9,5.8c-0.1-0.2-0.3-0.3-0.5-0.3l0,0
			c0,0,0,0,0,0.1C10.5,5.7,10.7,5.7,10.9,5.8"/>
		<path class="st0" d="M9.8,7.8c0.1,0.1,0.2,0.1,0.3,0.1c0.2,0,0.3-0.1,0.4-0.3l0.1-0.5c0,0,0-0.1,0-0.1h0c-0.1,0-0.1,0.1-0.1,0.2
			c0,0.2-0.1,0.3-0.2,0.5c0,0-0.1,0.1-0.1,0.1c0,0-0.1,0-0.1,0c0,0,0-0.1,0-0.1c0.1-0.1,0.1-0.2,0.1-0.3c0,0,0,0,0-0.1l0,0
			c0,0,0,0-0.1,0C10,7.4,9.9,7.5,9.9,7.7C9.8,7.7,9.8,7.8,9.8,7.8"/>
		<path class="st0" d="M8.4,7.2c0,0-0.1,0-0.1,0c0,0-0.1,0-0.1,0c0,0,0,0,0,0.1c0.5,0.3,0.7,0.9,0.5,1.4c0,0,0,0,0,0.1
			c0,0,0,0.1,0,0.1l0,0c0,0,0.1,0,0.1,0C9,8.3,8.9,7.6,8.4,7.2C8.4,7.3,8.4,7.3,8.4,7.2"/>
		<path class="st0" d="M3.6,9.7C3.6,9.7,3.6,9.8,3.6,9.7L3.6,9.7c0.1,0.1,0.1,0.1,0.2,0c0,0,0-0.1,0-0.1c-0.1-0.2,0-0.3,0.1-0.4l0,0
			l0.1-0.1c0,0,0-0.1,0-0.1c0,0,0-0.1-0.1-0.1c0,0,0,0,0,0c0,0-0.1,0-0.1,0C3.6,9,3.6,9.1,3.5,9.1l0,0h0h0c0,0-0.1,0,0,0.2
			c0.1,0.1,0.1,0.2,0.1,0.3"/>
		<path class="st0" d="M4,9.9C4,9.9,4,10,4.1,10c0,0,0,0,0.1,0c0-0.1,0-0.1,0-0.2C4,9.5,4.1,9.4,4.3,9.3l0,0c0,0,0-0.1,0-0.1
			c0,0-0.1,0-0.1,0c0,0,0,0-0.1,0C3.8,9.3,3.8,9.5,4,9.9"/>
		<path class="st0" d="M4.3,9.7L4.4,10c0,0,0.1,0.1,0.1,0.1c0,0,0.1,0,0.1,0c0,0,0-0.1,0-0.1c-0.1-0.1-0.1-0.3,0-0.4l0.1-0.1
			c0,0,0-0.1,0-0.1c0,0-0.1-0.1-0.1-0.1h0L4.4,9.4C4.3,9.5,4.3,9.6,4.3,9.7"/>
		<path class="st0" d="M7.9,7.5C7.9,7.5,7.9,7.5,7.9,7.5c-0.1,0-0.2,0-0.2,0.1c0,0.1,0,0.2,0.1,0.2C8,7.9,8.1,8.1,8.2,8.3
			c0,0.2,0,0.4-0.1,0.6L7,9.8c-0.7,0.7-0.8,1.3-0.3,1.9h0c0,0,0-0.1,0-0.1c-0.4-0.8,0.1-1.2,0.8-1.8l0,0c0.3-0.3,0.7-0.6,1-0.9
			C8.7,8.4,8.5,7.9,7.9,7.5"/>
		<path class="st0" d="M8.3,11.5c-0.2,0-0.3,0-0.5,0h0c-0.1,0-0.2,0-0.3,0c-0.3,0-0.5-0.1-0.6-0.6c0-0.1,0-0.1,0-0.1
			c0,0-0.1,0.1-0.1,0.1c0,0.7,0.5,0.7,1.1,0.7c0.2,0,0.4,0,0.6,0c0.3,0.1,0.6,0.3,0.7,0.6c0.1,0.3-0.1,0.6-0.3,0.8
			c-0.1,0.1-0.1,0.1-0.1,0.2c0,0.1,0.1,0.1,0.2,0.1c0,0,0.1,0,0.1,0c0.3-0.2,0.5-0.6,0.4-1c-0.1-0.4-0.5-0.7-0.9-0.8L8.3,11.5"/>
		<path class="st0" d="M7.1,8.9c-0.9,0.4-1.3,1.3-1.2,2.3c0.1,0.7,0.7,1.2,1.3,1.2h1.2c0.1,0,0.1,0,0.2,0.1c0,0.1,0,0.2,0,0.3
			c0,0,0,0.1,0,0.1l0,0c0,0,0.1,0,0.1,0c0.1-0.1,0.2-0.3,0.1-0.4c-0.1-0.1-0.2-0.2-0.4-0.2H7.9c-0.3,0-0.7,0-1-0.1
			c-0.5-0.2-0.8-0.7-0.8-1.2c0-0.8,0.5-1.4,1.1-1.8c0.3-0.2,0.7-0.5,0.8-0.7c0,0,0-0.1,0-0.1l0,0c0,0-0.1,0-0.1,0
			C7.8,8.5,7.5,8.7,7.1,8.9"/>
		<path class="st0" d="M5.1,11.3c-0.1,0.2,0,0.5,0.1,0.6c0.2,0.2,0.4,0.3,0.6,0.5c0.2,0.2,0.4,0.4,0.4,0.7l0,0c0,0.1,0,0.1,0,0.2
			c0,0.2,0.2,0.4,0.5,0.4l0,0c0.1,0,0.1,0,0.1-0.1c0-0.1,0-0.1-0.1-0.1c-0.3-0.1-0.4-0.2-0.4-0.4c0-0.3-0.2-0.7-0.4-0.9
			c-0.2-0.1-0.4-0.3-0.6-0.5c-0.1,0-0.1-0.1-0.1-0.2c-0.1-0.2,0-0.5,0.3-1c0.1-0.5-0.1-1-0.6-1.2H4.9c0,0,0,0,0,0c0,0,0,0.1,0,0.1
			C5.3,9.9,5.6,10.2,5.1,11.3"/>
		<path class="st0" d="M5.3,12.6c0.3,0.2,0.4,0.5,0.4,0.8c0.1,0.8,0.4,1.2,1.2,1.2l0,0c0.1,0,0.2,0,0.3-0.1l0,0c0,0,0-0.1-0.1-0.1
			c0-0.1-0.1-0.1-0.2-0.1c0,0-0.1,0-0.1,0l0,0c0,0-0.1,0-0.1,0c-0.1,0-0.1,0-0.2,0c-0.4-0.1-0.6-0.4-0.6-0.8
			c0.1-0.3-0.1-0.7-0.3-0.9c-0.3-0.1-0.5-0.4-0.7-0.6c-0.2-0.3-0.1-0.6,0-0.9L5,10.8c0.1-0.1,0.1-0.2,0.1-0.4C5.1,10,5,9.8,4.8,9.8
			h0c0,0-0.1,0-0.1,0s0,0.1,0.1,0.1c0.3,0.2,0.3,0.6,0,1.2c-0.2,0.3-0.2,0.6-0.1,0.9C4.9,12.2,5.1,12.4,5.3,12.6"/>
		<path class="st0" d="M7.6,14.4L7.6,14.4C7.6,14.4,7.6,14.4,7.6,14.4c0-0.1-0.1-0.1-0.1-0.1l0,0C7.5,14.4,7.5,14.4,7.6,14.4"/>
		<path class="st0" d="M8,14.3C8,14.3,8,14.3,8,14.3c-0.1-0.1-0.2-0.1-0.3-0.1l0,0l0,0c0,0,0,0,0,0C7.8,14.3,7.9,14.3,8,14.3L8,14.3
			L8,14.3z"/>
		<path class="st0" d="M8,14L8,14L8,14c0,0.1,0.1,0.2,0.2,0.2h0.1l0,0l0,0C8.3,14.1,8.2,14.1,8,14"/>
		<path class="st0" d="M8.2,13.3c0.1,0,0.1,0,0.1-0.1l0.1-0.1c0,0,0-0.1,0-0.1c0,0,0,0,0,0c-0.1-0.1-0.1-0.2-0.1-0.3
			c0,0,0-0.1,0-0.1h0c0,0-0.1,0-0.1,0.1l0,0C8.1,12.8,8,13,8,13.2C8,13.3,8.1,13.3,8.2,13.3L8.2,13.3z"/>
		<path class="st0" d="M7.3,14.1L7.3,14.1L7.3,14.1c-0.1-0.1-0.1-0.2-0.1-0.4c0-0.2-0.1-0.3-0.2-0.5c0,0,0,0,0,0.1
			c0,0.1,0,0.1,0,0.2c0.1,0.1,0.1,0.2,0.1,0.3C7.1,14,7.2,14.1,7.3,14.1"/>
		<path class="st0" d="M7.6,14L7.6,14c0.1,0,0.1,0,0.1,0l0,0c-0.1-0.1-0.2-0.2-0.2-0.4c0-0.1,0-0.2,0-0.3c-0.1-0.1-0.1-0.2-0.1-0.3
			l0,0H7.4c0,0-0.1,0.1-0.1,0.1c0,0.1,0,0.2,0.1,0.3c0.1,0.1,0.1,0.2,0.1,0.3C7.4,13.8,7.4,13.9,7.6,14C7.6,14,7.6,14.1,7.6,14"/>
		<path class="st0" d="M8,12.7L8,12.7L8,12.7c0-0.1-0.1-0.1-0.1,0c-0.1,0-0.2,0.1-0.3,0.2c-0.1,0.1-0.1,0.2,0,0.3
			c0.1,0.1,0.1,0.2,0,0.3c0,0.1,0,0.2,0,0.3c0.1,0.1,0.2,0.2,0.3,0.2H8l0,0c-0.1-0.1-0.1-0.2,0-0.2c0,0,0,0,0,0c0,0,0,0,0-0.1
			c0,0,0-0.1,0-0.1c-0.2-0.2-0.2-0.5,0-0.7C8,12.8,8,12.8,8,12.7"/>
		<path class="st0" d="M9.2,14c0.1-0.1,0.2-0.2,0.3-0.2c0.1-0.1,0.2-0.1,0.3-0.3C10,13.3,10,13,9.7,12.8c0,0,0,0-0.1,0
			c0,0-0.1,0-0.1,0c0,0,0,0.1,0,0.1l0.1,0.2c0.1,0.1,0,0.3-0.1,0.3c0,0,0,0,0,0c-0.2,0.1-0.4,0.2-0.5,0.4C9,14,8.9,14,8.8,14
			c0,0,0,0,0,0l-0.2-0.2c0,0,0-0.1,0-0.1c0,0,0.1,0,0.1,0h0.1l0.1,0.1h0c0,0,0,0,0,0c0-0.1-0.1-0.2-0.2-0.3c0,0-0.1,0-0.1,0
			c-0.2,0-0.3,0.1-0.4,0.3c-0.1,0.2,0.1,0.3,0.3,0.5l0.2,0.2c0,0,0.1,0,0.1,0c0,0,0.1,0,0.1,0C9.1,14.2,9.2,14.1,9.2,14"/>
		<path class="st0" d="M9.8,14.3L9.8,14.3c0.2,0,0.4,0.1,0.6,0.2c0,0,0.1,0,0.1,0c0,0,0,0,0,0c0,0,0-0.1,0-0.1
			c-0.2-0.1-0.5-0.2-0.8-0.3c-0.1,0-0.2,0-0.2,0c-0.1,0-0.1,0.1-0.1,0.2c0,0,0,0.1,0.1,0.1l0.5,0.1l0.3,0.1l0,0c0,0,0.1,0,0.1,0
			v-0.1c-0.1-0.1-0.3-0.2-0.4-0.2c-0.1,0-0.1-0.1-0.1-0.1S9.7,14.4,9.8,14.3"/>
		<path class="st0" d="M10.1,13.6c-0.1,0-0.1,0.1-0.2,0.2c0,0.1,0,0.1,0,0.2c0.1,0.2,0.4,0.3,0.6,0.3l0,0c0.1,0,0.1,0,0.1,0l0,0l0,0
			c-0.2-0.1-0.3-0.2-0.4-0.3c0-0.1,0-0.1,0-0.2c0,0,0.1-0.1,0.2-0.1c0.1,0,0.2,0,0.2,0l0,0h0c0,0,0,0,0-0.1c-0.1,0-0.1-0.1-0.2-0.1
			C10.4,13.6,10.2,13.6,10.1,13.6"/>
		<path class="st0" d="M10.4,13.8L10.4,13.8C10.4,13.8,10.4,13.8,10.4,13.8c-0.1,0.1-0.1,0.1-0.1,0.1c0.1,0.1,0.3,0.2,0.5,0.2l0,0h0
			c0,0,0-0.1,0-0.1C10.7,14,10.5,13.9,10.4,13.8"/>
		<path class="st0" d="M10.5,15.1L10.5,15.1h0.2c0.2-0.1,0.4-0.1,0.7-0.2c0.1,0,0.1,0,0.1-0.1c0,0,0-0.1-0.1-0.1h-0.1
			c-0.2,0-0.4,0.1-0.6,0.1h0c0,0,0,0-0.1,0c0,0,0-0.1,0-0.1c0.2-0.2,0.4-0.3,0.7-0.4c0.1,0,0.1-0.1,0.1-0.1c0,0,0-0.1-0.1-0.1
			c-0.4,0.1-0.7,0.3-0.9,0.6c-0.1,0.1-0.1,0.2,0,0.3C10.4,15.1,10.4,15.1,10.5,15.1"/>
		<path class="st0" d="M11,14.6C11,14.6,11,14.6,11,14.6c0,0.1,0.1,0.1,0.1,0.1c0.1,0,0.2,0,0.3-0.1v0l0,0c0,0,0,0-0.2,0
			C11.2,14.5,11.1,14.5,11,14.6"/>
		<path class="st0" d="M10.3,13.1c0,0,0-0.1,0-0.1c0,0,0.1-0.1,0.1-0.1l0,0l0,0c-0.1-0.1-0.2-0.2-0.3-0.2c0,0,0,0,0,0
			c0,0.3,0.1,0.5,0.5,0.6h0.1l0,0L10.3,13.1z"/>
		<path class="st0" d="M9.9,11.9L9.9,11.9c0,0.2,0,0.5,0.2,0.7c0.1,0.1,0.2,0.1,0.3,0.1c0,0,0,0,0.1,0c0,0,0-0.1,0-0.1
			c0-0.1-0.1-0.1-0.1-0.1c0,0,0,0-0.1,0c-0.1,0-0.2-0.1-0.2-0.3C10.1,12,10,11.9,9.9,11.9"/>
		<path class="st0" d="M10.7,12.8c0,0-0.1-0.1-0.1-0.1l0,0l0,0c0,0.5,0.2,0.9,0.6,1.2c0,0,0.1,0,0.1,0c0.1,0,0.1-0.1,0.2-0.1
			c0-0.2,0-0.3-0.1-0.5c0,0-0.1,0-0.1,0h0v0.2c0,0,0,0.1,0,0.1l0,0l0,0c0,0-0.1,0-0.1,0c-0.2-0.2-0.3-0.5-0.3-0.8c0,0,0-0.1-0.1-0.1
			"/>
		<path class="st0" d="M11.9,15.1c0,0,0.1,0,0.1,0c0.1,0,0.1,0,0.1-0.1c0.1-0.2,0.1-0.4,0.1-0.5l0,0c-0.1-0.1-0.1-0.1-0.1-0.1l0,0
			c0,0,0,0,0,0.1v0.3c0,0.1,0,0.1-0.1,0.1c0,0-0.1,0-0.1,0c-0.2-0.3-0.2-0.6-0.2-1c0-0.1-0.1-0.2-0.1-0.2c0,0,0,0,0,0.1
			C11.5,14.3,11.6,14.7,11.9,15.1L11.9,15.1z"/>
		<path class="st0" d="M11.9,14.5L11.9,14.5c0,0,0-0.1,0-0.1v-0.2c0,0,0-0.1-0.1-0.1c0,0,0,0,0,0.1C11.8,14.3,11.8,14.4,11.9,14.5
			C11.9,14.5,11.9,14.5,11.9,14.5"/>
		<path class="st0" d="M11,13.5C11,13.5,11.1,13.4,11,13.5c0-0.1,0-0.2,0-0.3c0,0,0,0,0,0h0c0,0.1,0,0.1,0,0.2
			C10.9,13.4,11,13.5,11,13.5"/>
		<path class="st0" d="M12.9,4.9L12.9,4.9C12.9,4.9,12.9,4.9,12.9,4.9C12.9,4.9,12.9,4.9,12.9,4.9c0.3,0,0.4,0.1,0.5,0.3
			c0,0,0,0.1,0,0.1c0,0,0,0.1-0.1,0.1l0,0v0c0,0,0.1,0,0.1,0c0.1,0,0.1,0,0.1-0.1c0-0.1,0-0.1,0-0.2C13.5,4.9,13.2,4.8,12.9,4.9"/>
		<path class="st0" d="M13.2,5.3C13.2,5.3,13.2,5.3,13.2,5.3c0-0.1-0.1-0.2-0.1-0.2c0,0,0,0,0,0l0,0C13,5.1,13,5.1,13.2,5.3
			C13.1,5.2,13.1,5.2,13.2,5.3"/>
		<path class="st0" d="M13.3,5.7C13.3,5.7,13.3,5.7,13.3,5.7c-0.1,0.1-0.1,0.1,0,0.1c0.2,0,0.3,0.1,0.3,0.4c0,0.1-0.1,0.1-0.1,0.1
			c0,0-0.1,0-0.1,0c0,0-0.1,0-0.1,0c0,0,0,0,0,0.1c0.1,0.1,0.2,0.1,0.3,0.1c0,0,0.1,0,0.1,0c0,0,0.1-0.2,0.1-0.4
			C13.8,5.9,13.6,5.7,13.3,5.7L13.3,5.7"/>
		<path class="st0" d="M13.4,6.2C13.4,6.2,13.5,6.2,13.4,6.2c0.1-0.1,0.1-0.1,0-0.2c0,0-0.1,0-0.1,0c0,0-0.1,0-0.1,0
			c0,0,0,0.1,0,0.1C13.3,6.2,13.3,6.2,13.4,6.2"/>
		<path class="st0" d="M13.5,7.7L13.5,7.7c0.2-0.1,0.4-0.3,0.4-0.6c0-0.1,0-0.2-0.1-0.3c-0.1-0.1-0.2-0.1-0.3-0.1h0
			c-0.1,0-0.1,0-0.1,0.1c0,0,0,0,0,0.1l0.2,0c0.1,0,0.1,0.1,0.1,0.1c0,0.1,0,0.2-0.1,0.3c-0.2,0.2-0.2,0.2-0.2,0.3
			C13.4,7.8,13.4,7.7,13.5,7.7"/>
		<path class="st0" d="M13.4,7.2L13.4,7.2c0.2,0,0.2,0,0.2-0.1s-0.1-0.1-0.1-0.1h-0.1c0,0,0,0-0.1,0.1C13.3,7.1,13.3,7.2,13.4,7.2"
			/>
		<path class="st0" d="M14,4.4L14,4.4L14,4.4c0.1,0.1,0.3,0.2,0.5,0.2c0.1,0,0.1,0,0.1,0c0,0,0,0,0-0.1C14.3,4,13.7,3.6,13,3.7h-0.2
			c0,0-0.1,0-0.1,0s0.1,0.1,0.2,0.1h0.3c0.4,0,0.7,0.1,1,0.4c0,0.1,0.1,0.1,0,0.2C14.2,4.4,14.1,4.4,14,4.4"/>
		<path class="st0" d="M13.6,4.1h-0.2l0,0C13.5,4.1,13.5,4.1,13.6,4.1c0,0.1,0,0.1,0.1,0.1c0,0,0.1,0,0.1,0l0,0c0,0,0,0-0.1-0.1
			C13.7,4.1,13.7,4.1,13.6,4.1"/>
		<path class="st0" d="M15,4.2c-0.1,0-0.1,0-0.1-0.1c-0.1-0.2-0.3-0.3-0.5-0.3h-0.1c0.2,0.3,0.6,0.6,1,0.7h0.1h0.1c0,0,0,0,0-0.1
			c0-0.2-0.1-0.4-0.4-0.4C15.1,4.1,15.1,4.1,15,4.2C15.1,4.2,15,4.2,15,4.2"/>
		<path class="st0" d="M15.7,19.3L15.7,19.3L15.7,19.3c0,0,0-0.1,0-0.1c0-0.1,0-0.2,0.1-0.3c0.6-0.3,0.7-0.5,0.7-1c0,0,0,0,0-0.1
			c0,0-0.1,0-0.1,0c-0.1,0-0.1,0-0.2,0.1c0,0.2-0.1,0.5-0.3,0.6c-0.5,0.3-1,0.4-1.5,0.5c-0.2,0-0.4,0.1-0.5,0.3l-0.2,0.5
			c0,0.1-0.1,0.2-0.2,0.2L12.9,20c0,0-0.1,0-0.1-0.1c0,0,0-0.1,0-0.1c0-0.4,0-0.8,0.1-1.2c0-0.1,0-0.3,0-0.4c0,0,0,0-0.1,0
			c0,0,0,0-0.1,0.1c-0.2,0.5-0.3,1.1-0.3,1.6c0,0.2,0,0.2,0.2,0.3l1,0.1c0.1,0,0.2-0.1,0.2-0.2c0.1-0.5,0.2-0.8,0.5-0.8l0.8-0.1h0.1
			c0.1,0,0.2,0,0.2,0.1C15.5,19.3,15.6,19.3,15.7,19.3"/>
		<path class="st0" d="M15.2,17.6L15.2,17.6c-0.2,0-0.2,0.1-0.2,0.2c0,0.1,0.1,0.1,0.1,0.1c0,0,0.1,0,0.1,0c0.1-0.1,0.2-0.2,0.3-0.2
			C15.4,17.7,15.3,17.6,15.2,17.6"/>
		<path class="st0" d="M14.9,18.6L14.9,18.6c0.2,0,0.3-0.1,0.4-0.2c-0.1,0-0.3,0-0.4-0.1l0,0c-0.1,0-0.1,0-0.1,0.1c0,0,0,0,0,0
			c0,0,0,0.1,0,0.1C14.9,18.6,14.9,18.6,14.9,18.6"/>
		<path class="st0" d="M14.5,17.8c0.1-0.1,0.1-0.2,0.2-0.3h-0.1c-0.1,0-0.2,0-0.3,0.1c-0.1,0.1-0.1,0.1-0.1,0.2
			c0,0.1,0.1,0.1,0.1,0.1C14.5,17.9,14.5,17.8,14.5,17.8"/>
		<path class="st0" d="M13.3,19.4C13.4,19.4,13.4,19.4,13.3,19.4c0.1-0.2,0.2-0.3,0.2-0.4c-0.1,0-0.2,0.1-0.3,0.1
			c-0.1,0.1-0.1,0.2,0,0.2C13.2,19.4,13.2,19.4,13.3,19.4"/>
		<path class="st0" d="M17.6,19c0.1-0.1,0.3-0.1,0.5-0.1c-0.1-0.1-0.3-0.2-0.4-0.2C17.2,18.7,17.3,19.2,17.6,19"/>
		<path class="st0" d="M18.1,18.4c0-0.1,0-0.2,0.1-0.3c-0.1,0-0.2,0.1-0.3,0.2c-0.1,0.1-0.1,0.1,0,0.2c0,0.1,0.1,0.1,0.1,0.1
			C18.1,18.5,18.1,18.5,18.1,18.4C18.1,18.4,18.1,18.4,18.1,18.4"/>
		<path class="st0" d="M18.9,18.2L18.9,18.2c-0.2,0-0.3,0-0.4,0.1c-0.1,0-0.1,0.1-0.1,0.2c0,0.1,0.1,0.1,0.1,0.1c0,0,0.1,0,0.1-0.1
			C18.7,18.4,18.8,18.3,18.9,18.2"/>
		<path class="st0" d="M18.4,19L18.4,19c0.2,0,0.3-0.1,0.4-0.2c-0.1,0-0.3,0-0.4-0.1l0,0c-0.1,0-0.1,0-0.1,0.1c0,0,0,0.1,0,0.1
			C18.3,19,18.4,19.1,18.4,19"/>
		<path class="st0" d="M14,18.5c0,0.1,0.1,0.1,0.1,0.1c0.1,0,0.1,0,0.2-0.1c0.1-0.1,0.1-0.2,0.1-0.3c-0.1,0.1-0.2,0.2-0.3,0.2
			C14,18.4,14,18.4,14,18.5"/>
		<path class="st0" d="M12.1,17.5c-0.2,0-0.3,0.1-0.4,0.2c0.2,0,0.3,0,0.5,0.1C12.5,18,12.5,17.5,12.1,17.5"/>
		<path class="st0" d="M11.2,17.2c0.1,0,0.1,0,0.1-0.1c0-0.1,0-0.2-0.1-0.2c-0.1,0-0.2,0-0.3,0h-0.1c0.1,0.1,0.2,0.2,0.3,0.3
			C11.1,17.2,11.1,17.2,11.2,17.2"/>
		<path class="st0" d="M10.6,17.2c0-0.1,0-0.2-0.2-0.2c-0.1,0-0.2,0-0.3,0.1c0.1,0,0.2,0.1,0.3,0.2c0,0,0.1,0,0.1,0
			C10.6,17.3,10.6,17.3,10.6,17.2"/>
		<path class="st0" d="M10.7,17.7c-0.1,0.1-0.3,0.1-0.4,0.1c0.1,0.1,0.3,0.2,0.4,0.2C11.1,18,11,17.6,10.7,17.7"/>
		<path class="st0" d="M11.3,17.7c0,0,0.1,0,0.1,0c0.1,0,0.1-0.1,0.1-0.1c0-0.1,0-0.1-0.1-0.1h-0.1c-0.1,0-0.2,0-0.2,0
			C11.1,17.5,11.2,17.6,11.3,17.7"/>
		<path class="st0" d="M8.6,17.1c0,0,0.1,0,0.1,0c0.1,0,0.1-0.1,0.1-0.1c0,0,0-0.1-0.1-0.1c-0.1,0-0.2,0-0.3-0.1
			C8.5,16.9,8.5,17,8.6,17.1"/>
		<path class="st0" d="M7.7,17.2c0,0,0.1,0,0.1,0c0.1,0,0.1,0,0.1-0.1c0,0,0,0,0,0c0-0.1,0-0.1-0.1-0.1c0,0,0,0,0,0H7.7
			c-0.1,0-0.2,0-0.3,0C7.5,17,7.6,17.1,7.7,17.2"/>
		<path class="st0" d="M7.3,16.3L7.3,16.3c-0.2,0-0.3,0-0.3,0.1c0.1,0,0.2,0.1,0.2,0.2l0,0c0,0,0.1,0.1,0.1,0.1h0.1
			c0.1,0,0.1-0.1,0.1-0.1C7.4,16.4,7.4,16.4,7.3,16.3"/>
		<path class="st0" d="M5.6,15.3L5.6,15.3c0,0.1,0.1,0.1,0.1,0.1c0,0,0.1,0,0.1,0c0-0.1,0-0.1,0-0.2c-0.1-0.1-0.1-0.2-0.2-0.3
			C5.6,15,5.6,15.1,5.6,15.3C5.6,15.2,5.6,15.3,5.6,15.3"/>
		<path class="st0" d="M5.3,14.9c-0.1-0.1-0.1-0.2-0.2-0.2c0,0.1,0,0.2,0,0.3C5,15,5,15,5,15l0,0c0,0.1,0.1,0.1,0.1,0.1
			c0,0,0.1,0,0.1,0C5.3,15,5.3,15,5.3,14.9"/>
		<path class="st0" d="M5.2,15.4L5.2,15.4c-0.2,0-0.3-0.1-0.4-0.1c0,0.1,0.1,0.2,0.2,0.3c0,0,0.1,0,0.1,0c0.1,0,0.1,0,0.1-0.1
			C5.3,15.5,5.3,15.4,5.2,15.4"/>
		<path class="st0" d="M5.7,16.1c0,0,0.1,0,0.1,0c0.1,0,0.1,0,0.1-0.1c0-0.1,0-0.1-0.1-0.1h0c-0.1,0-0.2-0.1-0.3-0.1
			C5.5,15.8,5.6,16,5.7,16.1"/>
		<path class="st0" d="M12.7,17.1c0,0,0-0.1,0-0.1c0-0.1,0-0.2,0-0.3c0,0,0-0.1-0.1-0.1h-0.1c-0.2,0-0.4,0.1-0.5,0.3
			c-0.1,0.2,0,0.4,0.2,0.6c0,0,0.1,0,0.1,0l0,0c0,0,0-0.1,0-0.1c0-0.1,0-0.1,0-0.2C12.4,17.1,12.5,17.1,12.7,17.1L12.7,17.1z"/>
		<path class="st0" d="M13.3,18.4L13.3,18.4C13.4,18.4,13.4,18.4,13.3,18.4L13.3,18.4c0-0.1-0.1-0.2-0.1-0.2c0-0.1,0.1-0.1,0.2-0.2
			c0.1-0.1,0.1-0.1,0-0.2c-0.1-0.1-0.2-0.2-0.2-0.2c0,0-0.1-0.1-0.1-0.1c0,0-0.1,0-0.1,0.1c-0.2,0.1-0.2,0.4-0.2,0.6
			C12.9,18.3,13.1,18.4,13.3,18.4"/>
		<path class="st0" d="M16.7,18.3L16.7,18.3c0.1,0,0.1,0,0.2,0c0.2,0,0.3-0.1,0.4-0.3c0.1-0.2,0-0.5-0.2-0.6c0,0-0.1,0-0.1,0
			c0,0-0.1,0-0.1,0c-0.1,0.1-0.1,0.2-0.2,0.3c0,0,0,0.1,0,0.1c0,0,0,0.1,0.1,0.1c0.1,0,0.1,0.1,0.2,0.2C16.9,18,16.8,18.1,16.7,18.3
			"/>
		<path class="st0" d="M15.9,17.6c0.1,0.1,0.1,0.1,0.2,0.1c0,0,0.1,0,0.1,0c0.2-0.1,0.4-0.2,0.5-0.5c0-0.1,0-0.2-0.1-0.3
			c-0.1-0.1-0.2-0.2-0.3-0.2h-0.1c-0.2,0-0.4-0.1-0.5-0.3c-0.1-0.1-0.1-0.1-0.2-0.2h-0.1l0,0c0,0.1,0.1,0.2,0.2,0.3
			c0.1,0.1,0.3,0.2,0.4,0.2c0.1,0.1,0.1,0.1,0.1,0.2c0,0.1-0.1,0.1-0.2,0.2h-0.1c-0.1,0-0.1,0-0.2-0.2c-0.2-0.2-0.3-0.4-0.5-0.5l0,0
			h-0.1c-0.1,0-0.1,0.1-0.2,0.1c0,0-0.1,0.1-0.1,0.1c0,0-0.1,0-0.1,0h-0.1c-0.3,0.1-0.5,0.3-0.7,0.6c0,0-0.1,0.1-0.1,0.1l0,0h0l0,0
			l0,0c0-0.1,0-0.1,0.1-0.2c0.2-0.1,0.4-0.3,0.6-0.5c0,0,0,0,0-0.1c0,0,0-0.1-0.1-0.1c-0.1,0-0.1,0-0.2,0c-0.1,0-0.2,0-0.3,0
			c-0.1,0-0.2,0-0.2,0c-0.1,0-0.3,0-0.4-0.1c0,0-0.1,0-0.1,0c-0.1,0-0.2,0-0.2,0.1c0,0,0,0.1,0,0.1c0,0.1,0,0.2,0,0.4
			c0,0,0,0.1,0,0.1c0,0,0,0,0.1,0c0,0,0.1,0,0.1,0c0.1-0.1,0.2-0.2,0.2-0.3c0-0.1,0.1-0.1,0.1-0.1c0.1-0.1,0.3-0.1,0.4-0.1h0.1
			c0.1,0,0.1,0,0.1,0.1c0,0,0,0.1-0.1,0.1c-0.2,0.1-0.4,0.2-0.6,0.3c-0.1,0.1-0.2,0.2-0.2,0.4c0,0.1,0.1,0.2,0.3,0.3
			c0,0,0.1,0,0.2,0c0.1,0,0.2-0.1,0.3-0.2c0-0.1,0.1-0.1,0.2-0.2c0.1-0.1,0.3-0.2,0.4-0.3c0,0,0.1,0,0.1,0c0.1,0,0.1,0.1,0.1,0.1
			v0.1c0,0.1,0.1,0.1,0.1,0.1s0.1,0,0.2-0.1c0,0,0.1,0,0.1,0h0c0,0,0,0.1,0,0.1c0,0.1,0,0.1,0,0.1c0,0,0.1,0,0.1,0
			c0.1,0,0.1,0,0.1,0.1L15.9,17.6z"/>
		<path class="st0" d="M13.3,15.4C13.2,15.4,13.2,15.4,13.3,15.4C13.2,15.4,13.2,15.4,13.3,15.4l0.4,0.7c0.1,0.1,0.1,0.1,0.2,0.1
			c0,0,0.1,0,0.1-0.1c0-0.1,0-0.1,0-0.2c0,0,0-0.1,0-0.1l0,0c0,0-0.1,0.1-0.1,0.1c0,0-0.1,0-0.1-0.1L13.3,15.4
			C13.3,15.3,13.3,15.3,13.3,15.4"/>
		<path class="st0" d="M14.7,16.4L14.7,16.4c0.1,0,0.2,0,0.2-0.1c0-0.2,0-0.4-0.1-0.6l-0.4-0.8c0-0.1,0-0.1,0-0.1s0,0,0,0.1
			c0,0.1,0,0.3,0.1,0.4c0.1,0.1,0.1,0.2,0.2,0.3l0.1,0.1c0,0.1,0,0.2,0,0.3c0,0-0.1,0.1-0.1,0.1c-0.1,0-0.1,0-0.1-0.1l-0.4-0.5
			c-0.1-0.1-0.2-0.3-0.3-0.3c0,0-0.1,0-0.1,0l0,0v0.1c0.1,0.1,0.2,0.3,0.3,0.4l0,0C14.1,16,14.4,16.2,14.7,16.4"/>
		<path class="st0" d="M14.2,15.3L14.2,15.3l0.3,0.6l0,0c0,0,0,0,0.1,0c0,0,0-0.1,0-0.1L14.2,15.3L14.2,15.3L14.2,15.3z"/>
		<path class="st0" d="M13.8,15.8L13.8,15.8C13.8,15.8,13.8,15.8,13.8,15.8C13.9,15.8,13.9,15.8,13.8,15.8l-0.2-0.4h-0.1v0.1
			L13.8,15.8z"/>
		<path class="st0" d="M15.4,16c0,0,0.1,0,0.1,0c0,0,0,0,0.1,0c0,0,0,0,0-0.1c0-0.3-0.1-0.7-0.2-1c0-0.1-0.1-0.2-0.1-0.3
			c0,0,0-0.1,0-0.1h-0.1c-0.1,0.1-0.1,0.2,0,0.3l0.2,0.5c0,0.1,0,0.1,0,0.2l0,0l0,0c0,0-0.1,0-0.1-0.1c-0.1-0.1-0.1-0.3-0.2-0.5
			c-0.1-0.2-0.1-0.2-0.2-0.2h-0.1l0,0C14.9,15.3,15.1,15.7,15.4,16"/>
		<path class="st0" d="M14.6,12.3C14.6,12.3,14.5,12.4,14.6,12.3c-0.1,0.1-0.1,0.2-0.1,0.2c0.3,0.5,0.4,1,0.4,1.5
			c0,0.2-0.1,0.2-0.1,0.2c-0.1,0-0.1,0-0.1-0.1c-0.1-0.2-0.2-0.5-0.3-0.7l0,0c-0.1-0.2-0.2-0.4-0.3-0.6l0,0c0,0,0,0,0,0.1
			c0,0.1,0,0.2,0.1,0.3c0.1,0.2,0.2,0.4,0.2,0.5l0,0c0.1,0.3,0.3,0.6,0.5,0.8c0,0,0.1,0.1,0.1,0.1c0.1,0,0.1,0,0.1-0.1
			c0.1-0.7,0-1.5-0.3-2.2c0,0,0,0,0,0"/>
		<path class="st0" d="M14.6,13.8C14.6,13.8,14.7,13.8,14.6,13.8c0.1-0.5-0.1-0.9-0.4-1.2c0,0,0,0-0.1,0c0,0,0,0,0,0
			c0,0,0,0.1,0,0.1C14.3,13,14.5,13.4,14.6,13.8C14.6,13.8,14.6,13.8,14.6,13.8"/>
		<path class="st0" d="M13.9,15c0,0,0.1,0,0.1,0c0,0,0.2,0,0.2-0.2c0-0.6-0.2-1.1-0.6-1.6c0,0,0,0-0.1,0c0,0-0.1,0-0.1,0.1
			c0,0,0,0.1,0,0.1c0.1,0.2,0.1,0.4,0.2,0.5l0,0c0.1,0.2,0.2,0.4,0.3,0.7c0,0.1,0,0.1,0,0.2c0,0,0,0-0.1,0c-0.1,0-0.1,0-0.1-0.1
			c-0.2-0.2-0.4-0.5-0.5-0.8v0c-0.1-0.1-0.2-0.3-0.3-0.4c0,0-0.1-0.1-0.1-0.1h0c0,0.1,0,0.1,0,0.2C13.1,14.1,13.5,14.6,13.9,15"/>
		<path class="st0" d="M12.9,13.1L12.9,13.1L12.9,13.1c0.3,0.4,0.6,0.8,0.8,1.2l0,0l0,0c0,0,0,0,0-0.1
			C13.6,13.7,13.3,13.3,12.9,13.1L12.9,13.1z"/>
		<path class="st0" d="M13.2,15.1c0.1,0,0.2-0.1,0.2-0.2c-0.1-0.5-0.4-1-0.8-1.3c0,0-0.1,0-0.1,0l0,0l0,0c0.3,0.3,0.5,0.6,0.7,1
			c0,0.1,0,0.2,0,0.2c0,0-0.1,0.1-0.1,0.1c-0.1,0-0.1,0-0.1-0.1c-0.3-0.5-0.7-0.9-1.1-1.3c0,0,0,0-0.1,0h0c0,0,0,0.1,0,0.1
			c0.4,0.4,0.8,0.9,1.2,1.5C13,15.1,13.1,15.1,13.2,15.1"/>
		<path class="st0" d="M12,13.3L12,13.3c0,0,0,0.1,0,0.1l0.9,1.1H13l0,0c0,0,0-0.1,0-0.1L12,13.3L12,13.3z"/>
		<path class="st0" d="M15.7,4.6c0.2,0.1,0.3,0.2,0.5,0.3c0,0,0,0,0.1,0c0.1,0,0.1-0.1,0.1-0.2c0-0.1-0.1-0.2-0.2-0.2l0,0
			c0,0,0,0.1,0,0.1c0,0-0.1,0-0.1,0.1c-0.1,0-0.2-0.1-0.2-0.2c0-0.1-0.1-0.2-0.2-0.3l0,0c0,0.1,0.1,0.2,0,0.2
			C15.7,4.5,15.7,4.5,15.7,4.6"/>
		<path class="st0" d="M14.5,5.2c0,0-0.1,0-0.1,0l0,0c0,0,0,0,0,0c0.1,0.1,0.2,0.2,0.4,0.2c0.1,0,0.1,0,0.2-0.1c0-0.1,0-0.2-0.1-0.4
			l0,0l0,0l0,0c0,0,0-0.1-0.2-0.2l0,0c0,0-0.1,0.1-0.1,0.1h-0.1h-0.2l0,0c0,0,0,0.1,0.1,0.1c0.3,0,0.5,0.1,0.5,0.2
			C14.8,5.3,14.7,5.3,14.5,5.2"/>
		<path class="st0" d="M14.6,5.8c0.3,0.1,0.3,0.2,0.3,0.4c0,0.1-0.1,0.2-0.2,0.2c-0.1,0-0.1,0-0.2-0.1c0,0,0,0.1,0,0.1
			c0.1,0.2,0.3,0.3,0.5,0.3c0.1,0,0.1,0,0.1-0.1c0-0.1,0-0.2,0-0.3C15.1,6.2,15,5.9,15,5.7c0,0,0-0.1,0-0.1l-0.1,0c0,0-0.1,0-0.2,0
			c-0.1,0-0.2,0-0.3-0.1h0c0,0,0,0,0,0.1c0,0,0,0,0,0L14.6,5.8z"/>
		<path class="st0" d="M13.7,9.8c0,0.1,0,0.1,0,0.2c0.1,0.2,0.3,0.5,0.5,0.8l0,0c0.1,0.2,0.2,0.4,0.3,0.5c0.1,0.1,0.1,0.1,0.1,0.1
			s0.1-0.1,0.1-0.1c-0.1-0.7-0.4-1.3-0.8-1.8l0,0c0,0,0,0.1,0,0.1c0.2,0.3,0.4,0.7,0.5,1.1c0,0,0,0.1,0,0.1l0,0l0,0
			c0,0-0.1,0-0.1-0.1c-0.1-0.3-0.3-0.5-0.5-0.8l0,0L13.7,9.8z"/>
		<path class="st0" d="M13.2,10.8C13.2,10.8,13.2,10.8,13.2,10.8c-0.1,0.1-0.1,0.1,0,0.2c0.2,0.4,0.4,0.8,0.6,1.2
			c0.1,0.1,0.2,0.2,0.3,0.2c0.1,0,0.2-0.1,0.3-0.2c0.1-0.2,0.1-0.5,0-0.8c-0.2-0.5-0.5-0.9-0.8-1.3c0,0,0,0-0.1,0c0,0,0,0,0,0
			c0,0,0,0.1,0,0.2c0.3,0.4,0.6,0.9,0.8,1.3c0.1,0.1,0.1,0.3,0,0.4c0,0.1-0.1,0.1-0.2,0.1c-0.1,0-0.1,0-0.2-0.1
			C13.7,11.6,13.5,11.2,13.2,10.8C13.3,10.8,13.3,10.7,13.2,10.8"/>
		<path class="st0" d="M14,11.7C14,11.7,14,11.6,14,11.7c0.1-0.1,0.1-0.1,0.1-0.2l-0.6-1v0l0,0c0,0.1,0,0.2,0,0.2L14,11.7
			C14,11.6,14,11.6,14,11.7"/>
		<path class="st0" d="M13.4,13c0.1,0,0.3-0.1,0.3-0.2c0.1-0.2,0.1-0.4,0-0.6c-0.2-0.4-0.4-0.8-0.6-1.2C13.1,11,13,11,13,11
			c0,0-0.1,0-0.1,0.1c0,0,0,0,0,0c0.2,0.4,0.4,0.8,0.6,1.2c0.1,0.1,0.1,0.2,0,0.3c0,0.1-0.1,0.1-0.2,0.1c-0.1,0-0.2,0-0.2-0.1
			c-0.2-0.2-0.3-0.4-0.5-0.7l0-0.1c-0.1-0.2-0.2-0.3-0.3-0.5c0,0-0.1,0-0.1,0c0,0-0.1,0-0.1,0.1c0,0,0,0.1,0,0.1l0.8,1.2
			C13,12.9,13.1,13,13.4,13"/>
		<path class="st0" d="M12.5,11.3l0.6,1.1c0,0,0.1,0.1,0.1,0.1l0,0c0,0,0-0.1,0-0.2l-0.6-1.2c0,0,0,0,0,0l0,0v0
			C12.5,11.1,12.5,11.2,12.5,11.3C12.5,11.2,12.5,11.3,12.5,11.3"/>
		<path class="st0" d="M12.7,13.3c0.1-0.1,0.1-0.2,0-0.4c-0.2-0.4-0.4-0.9-0.7-1.3l0-0.1c0,0-0.1-0.1-0.1-0.1c0,0-0.1,0-0.1,0
			c0,0,0,0,0,0c0.3,0.4,0.5,0.8,0.7,1.2c0,0.1,0,0.1,0,0.2c0,0.1-0.1,0.1-0.1,0.1c-0.1,0-0.1,0-0.1-0.1c-0.4-0.4-0.7-0.9-1-1.3
			c0,0-0.1,0-0.1,0c0,0-0.1,0-0.1,0c0,0,0,0.1,0,0.1c0.3,0.5,0.7,1,1.2,1.4c0.1,0.1,0.2,0.1,0.3,0.1C12.5,13.4,12.6,13.3,12.7,13.3"
			/>
		<path class="st0" d="M11.3,11.5c0.2,0.4,0.5,0.9,0.8,1.2h0l0,0c0,0,0-0.1,0-0.1C11.9,12.2,11.6,11.8,11.3,11.5L11.3,11.5
			C11.4,11.5,11.4,11.5,11.3,11.5"/>
		<path class="st0" d="M11.6,13.3L11.6,13.3c0.1,0,0.1,0,0.1-0.1c-0.3-0.5-0.6-0.9-1-1.3c0,0-0.1,0-0.1,0l0,0c0,0,0,0,0,0
			c0.2,0.3,0.5,0.6,0.6,0.9c0,0,0,0.1,0,0.1l0,0l0,0l0,0c0,0-0.1,0-0.1,0c-0.4-0.4-0.7-0.8-1-1.3c0,0,0,0-0.1,0c0,0-0.1,0-0.1,0.1
			c0,0,0,0.1,0,0.1l0.1,0.1C10.5,12.3,11,13.1,11.6,13.3L11.6,13.3z"/>
		<path class="st0" d="M13,8.5c0,0-0.1,0.1-0.1,0.1c0,0.2,0,0.2,0,0.2l0,0H13c0.2-0.1,0.3-0.3,0.3-0.6l-0.1-1c0-0.1,0-0.1-0.1-0.1h0
			c0,0,0,0.1,0,0.1v0.2c0,0.1,0,0.2,0,0.3c0,0.1,0,0.2,0,0.3C13.1,8.2,13.1,8.4,13,8.5L13,8.5z"/>
		<path class="st0" d="M12.2,7.6C12.2,7.6,12.2,7.6,12.2,7.6C12,8,12,8.5,12,8.9c0,0.1,0.1,0.2,0.3,0.2c0.2,0,0.4-0.2,0.5-0.4
			c0.1-0.4,0.1-0.9,0.1-1.3c0-0.1,0-0.1-0.1-0.1h0c0,0,0,0.1,0,0.1c0,0.4,0,0.8-0.1,1.2c-0.1,0.2-0.2,0.3-0.3,0.3
			c-0.1,0-0.1,0-0.1-0.2C12.2,8.3,12.2,8,12.2,7.6C12.3,7.6,12.3,7.6,12.2,7.6"/>
		<path class="st0" d="M12.5,8.5c0.1-0.3,0.1-0.7,0-1c0,0,0-0.1,0-0.1s0,0,0,0.1V8.5C12.4,8.5,12.4,8.5,12.5,8.5
			C12.5,8.5,12.5,8.5,12.5,8.5"/>
		<path class="st0" d="M11.1,9.1c-0.1,0-0.1,0-0.1-0.1c0-0.1,0-0.1,0-0.2L11.2,8c0,0,0,0,0-0.1l0,0c0,0-0.1,0-0.1,0.1
			c-0.1,0.2-0.1,0.3-0.2,0.5S10.8,8.8,10.8,9c0,0.1,0,0.1,0,0.2c0.1,0.1,0.2,0.2,0.4,0.1l0,0c0.4,0,0.6-0.2,0.6-0.4l0.2-1
			c0,0,0-0.1,0-0.1h0c0,0-0.1,0-0.1,0.1l-0.1,0.8C11.6,9,11.4,9.1,11.1,9.1"/>
		<path class="st0" d="M11.5,7.8C11.5,7.8,11.4,7.8,11.5,7.8c-0.1,0.4-0.2,0.6-0.2,0.9c0,0,0,0,0,0.1l0,0c0,0,0.1,0,0.1-0.1
			C11.4,8.4,11.5,8.1,11.5,7.8C11.5,7.8,11.5,7.8,11.5,7.8"/>
		<path class="st0" d="M10,9.1c0.1,0,0.1,0.1,0.2,0.1c0.1,0,0.3-0.1,0.3-0.2l0.3-0.8c0-0.1,0-0.1,0-0.1s0,0,0,0
			c-0.1,0.3-0.2,0.6-0.4,0.8c0,0.1-0.1,0.1-0.2,0.1c-0.1,0-0.1,0-0.1-0.1c0-0.1,0-0.1,0-0.2c0.1-0.2,0.2-0.5,0.3-0.7
			c0,0,0-0.1,0-0.1c0,0-0.1,0-0.1,0.1c-0.1,0.3-0.2,0.5-0.4,0.8C10,8.8,10,8.9,10,8.9C10,9,10,9,10,9.1"/>
		<path class="st0" d="M10.6,8c-0.1,0.2-0.2,0.5-0.3,0.7c0,0,0,0.1,0,0.1l0,0c0,0,0,0,0.1,0C10.5,8.5,10.6,8.3,10.6,8
			C10.6,8,10.6,8,10.6,8L10.6,8"/>
		<path class="st0" d="M10.1,8L10.1,8C10,8.2,9.9,8.4,9.8,8.5c0,0,0,0,0,0.1h0C10,8.4,10.1,8.3,10.1,8C10.1,8,10.1,8,10.1,8"/>
		<path class="st0" d="M9.4,8.8C9.4,8.9,9.5,8.9,9.6,9c0,0,0.1,0,0.1-0.1v0L9.6,8.8c0,0,0,0-0.1-0.1c0-0.1,0-0.1,0.1-0.1
			c0.1-0.1,0.2-0.3,0.3-0.4c0,0,0-0.1,0-0.1l0,0c0,0,0,0,0,0C9.7,8.3,9.6,8.5,9.4,8.6C9.3,8.7,9.3,8.8,9.4,8.8"/>
		<path class="st0" d="M9.3,9.1C9.1,9.4,9,9.8,9,10.1c0,0.2,0.1,0.3,0.2,0.5c0,0.1,0.1,0.2,0.1,0.3c0.1,0.1,0.1,0.3,0.1,0.4
			c0,0,0,0.1,0.1,0.1c0.1,0,0.1,0,0.2,0c0.1,0,0.2-0.1,0.2-0.2c0-0.1,0-0.2,0-0.2c-0.3-0.8-0.4-1.2-0.1-1.6c0,0,0-0.1,0-0.1
			c0,0,0,0,0,0c0,0-0.1,0-0.1,0C9.5,9.4,9.5,9.7,9.5,9.9c0,0.2,0,0.3,0.1,0.5c0,0.1,0.1,0.3,0.1,0.4c0,0,0,0.1,0,0.1
			c0,0-0.1,0-0.1,0c0,0-0.1,0-0.1-0.1c0-0.1-0.1-0.3-0.1-0.4l0,0c-0.1-0.2-0.1-0.3-0.1-0.5c0-0.3,0.1-0.6,0.2-0.8l0,0
			c0,0,0-0.1,0-0.1c0,0,0-0.1-0.1,0C9.4,9.1,9.3,9.1,9.3,9.1"/>
		<path class="st0" d="M10,10.5c0.1,0.3,0.2,0.7,0.4,0.9c0.1,0.1,0.2,0.1,0.3,0.1c0.2,0,0.4-0.1,0.4-0.3c0-0.1,0-0.2,0-0.3
			c0,0,0-0.1,0-0.1c-0.1-0.4-0.1-0.9,0-1.3c0,0,0-0.1,0-0.1c0,0-0.1,0-0.1,0c0,0-0.1,0-0.1,0.1c-0.1,0.5-0.1,0.9,0,1.4
			c0,0.1,0,0.2,0,0.2c0,0-0.1,0.1-0.1,0.1c-0.1,0-0.1,0-0.2-0.1c-0.4-0.5-0.5-1.1-0.2-1.7c0,0,0-0.1,0-0.1c0,0,0,0-0.1,0
			c0,0-0.1,0-0.1,0.1C9.9,9.8,9.9,10.2,10,10.5"/>
		<path class="st0" d="M10.6,9.4C10.6,9.4,10.6,9.4,10.6,9.4c-0.1,0-0.1,0-0.2,0.1c-0.2,0.5-0.1,1,0.1,1.5c0,0,0,0,0.1,0l0,0
			c0,0,0-0.1,0-0.1C10.5,10.3,10.5,9.9,10.6,9.4C10.7,9.4,10.7,9.4,10.6,9.4"/>
		<path class="st0" d="M11.4,9.5C11.4,9.5,11.4,9.5,11.4,9.5c-0.1,0-0.1,0-0.2,0.1c-0.1,0.4-0.1,0.9,0,1.3c0.1,0.2,0.3,0.4,0.5,0.4
			c0.2,0,0.4-0.2,0.5-0.4c-0.1-0.5-0.1-1-0.1-1.5c0,0,0-0.1,0-0.1c0,0-0.1,0-0.1,0c0,0-0.1,0-0.1,0.1c-0.1,0.4-0.1,0.8-0.1,1.2
			c0,0,0,0.1,0,0.1s0,0.2,0,0.3c0,0-0.1,0.1-0.1,0.1c-0.1,0-0.2-0.1-0.2-0.2c-0.2-0.4-0.2-0.8-0.1-1.3C11.5,9.6,11.5,9.6,11.4,9.5"
			/>
		<path class="st0" d="M11.7,9.4L11.7,9.4C11.7,9.4,11.7,9.4,11.7,9.4c-0.1,0.4-0.2,0.8-0.1,1.2c0,0,0,0.1,0.1,0.1
			c0.1,0,0.1-0.1,0.1-0.1C11.8,10.2,11.8,9.8,11.7,9.4L11.7,9.4z"/>
		<path class="st0" d="M12.9,9c0,0.1,0,0.2,0,0.2C13,9.6,13,10,13,10.3c0,0.1-0.1,0.2-0.2,0.2c-0.1,0-0.2-0.1-0.2-0.1
			c-0.1-0.3-0.1-0.7-0.1-1c0-0.1,0-0.1-0.1-0.1c0,0,0,0,0,0c-0.1,0-0.1,0-0.1,0.1c0,0,0,0,0,0c0,0.5,0,0.9,0.2,1.3
			c0.1,0.1,0.1,0.1,0.2,0.1c0.2,0,0.3-0.2,0.5-0.4C13.3,10,13.2,9.5,12.9,9L12.9,9L12.9,9z"/>
		<path class="st0" d="M12.8,10.1C12.8,10.1,12.8,10.1,12.8,10.1c0-0.3-0.1-0.6-0.1-0.9c0-0.1,0-0.1-0.1-0.1c0,0,0,0,0,0.1
			C12.6,9.5,12.7,9.8,12.8,10.1L12.8,10.1z"/>
		<path class="st0" d="M13.4,8.6C13.4,8.6,13.4,8.6,13.4,8.6c0,0.2,0,0.3,0.1,0.4l0,0c0.1,0.1,0.1,0.2,0.1,0.3
			c0,0.1-0.1,0.1-0.1,0.1h-0.1c-0.1,0-0.2-0.2-0.2-0.3c0-0.1,0-0.1,0.1-0.1c0,0,0.1,0.1,0.1,0.1s0-0.2,0-0.2c0,0-0.1,0-0.1,0
			c0,0-0.1,0-0.1,0c-0.1,0-0.1,0.1-0.1,0.1c0,0.3,0.2,0.5,0.3,0.7h0.1c0.1,0,0.1,0,0.1-0.1C13.8,9.3,13.7,8.9,13.4,8.6L13.4,8.6"/>
		<path class="st0" d="M13.9,8.4L13.9,8.4C13.8,8.4,13.8,8.4,13.9,8.4C13.8,8.4,13.8,8.4,13.9,8.4c-0.1,0.1,0,0.1,0,0.2
			C14,8.7,14.1,8.8,13.9,9s0,0,0,0.1c0,0,0.1,0.1,0.1,0.1c0,0,0.1,0,0.1,0l0.2-0.2V8.8l0,0c-0.1,0-0.2-0.1-0.3-0.2
			C14,8.5,14,8.5,13.9,8.4"/>
		<path class="st0" d="M14.4,8.4C14.4,8.4,14.3,8.4,14.4,8.4l-0.3-0.2h0c0,0-0.1,0-0.1,0c0,0,0,0,0,0.1c0.1,0.1,0.2,0.2,0.3,0.3
			c0,0,0.1,0,0.1,0c0,0,0.1,0,0.1,0c0.1-0.1,0.1-0.1,0.2-0.2c0.1-0.1,0.2-0.2,0.2-0.3c0,0,0-0.1,0-0.1h-0.1c-0.2,0-0.3-0.1-0.5-0.2
			h0c0,0-0.1,0-0.1,0.1c0,0,0,0,0,0.1l0.2,0.2c0,0.1,0,0.1,0,0.2C14.5,8.4,14.4,8.4,14.4,8.4"/>
		<path class="st0" d="M14.9,7.5c-0.1,0-0.1,0-0.2-0.1h0c0,0,0,0,0,0c0,0-0.1,0.2-0.1,0.2c0.1,0.1,0.2,0.2,0.4,0.2
			c0.1,0,0.2-0.1,0.2-0.1c0.1-0.2,0.1-0.4,0.1-0.5c0,0,0-0.1,0-0.1c0,0-0.1,0-0.1,0l0,0h0C15,7,14.9,6.9,14.7,6.8l0,0
			c0,0.1,0,0.1,0,0.2l0.2,0.2C15,7.2,15,7.4,15,7.5C15,7.5,14.9,7.5,14.9,7.5"/>
		<path class="st0" d="M19,17.7c0,0,0-0.1,0-0.2s0-0.1-0.1-0.1c-0.1,0-0.3,0-0.3-0.3V17l0,0l0,0c-0.1,0-0.2,0.1-0.3,0.2
			c0,0,0,0.1-0.1,0.1c-0.1,0.1-0.1,0.1-0.2,0.1c-0.1,0-0.2-0.1-0.2-0.2v-0.1c0,0,0,0-0.1,0.1c0,0.1-0.1,0.2-0.1,0.3
			c0,0.2,0,0.3-0.1,0.4c-0.2,0.3-0.4,0.5-0.6,0.5c-0.1,0-0.1,0-0.2,0l0,0c0,0-0.1,0-0.1,0.1c0,0,0,0.1,0,0.1c0.1,0,0.2,0.1,0.3,0.1
			c0.3,0,0.5-0.1,0.6-0.4c0.3-0.4,0.6-0.9,1-0.9c0.1,0,0.2,0,0.2,0.1l0,0C18.9,17.7,18.9,17.7,19,17.7C19,17.7,19,17.7,19,17.7"/>
		<path class="st0" d="M19.9,18.8c-0.1,0-0.2,0-0.2-0.1c0-0.1,0-0.1,0-0.3l0,0h-0.1c-0.2,0-0.2,0.1-0.3,0.2c0,0.1,0,0.2-0.1,0.2
			c-0.4,0.2-0.9,0.3-1.4,0.4c-0.4,0-0.7-0.1-1.1-0.2C16.6,19,16.4,19,16.3,19c-0.1,0-0.2,0-0.2,0.1c0,0,0,0.1,0,0.1l0.4,0.1
			c0.1,0,0.2,0.1,0.2,0.2c0,0.2,0.1,0.3,0.3,0.3H17c0-0.1,0-0.1,0-0.2c0,0,0-0.1,0.1-0.1h0.1c0.2,0,0.5,0.1,0.7,0.1
			c0.2,0,0.3,0,0.5,0h0.1c0,0,0.1,0,0.1,0c0.1,0.1,0.2,0.1,0.4,0.2c0.1,0,0.1,0,0.2-0.1l0,0c-0.1,0-0.1-0.1-0.2-0.2s0-0.1,0.1-0.1
			c0.2,0,0.3-0.1,0.4-0.2c0,0,0.1-0.1,0.2-0.1l0,0c0.3,0,0.3-0.1,0.4-0.1L19.9,18.8L19.9,18.8"/>
		<path class="st0" d="M20,17.8c-0.1,0.2-0.4,0.3-0.7,0.2c0,0-0.1-0.1-0.1-0.2c0-0.1,0.1-0.2,0.2-0.4c0.1-0.1,0.2-0.1,0.3-0.1
			c0.1,0,0.2,0,0.2,0.1C20,17.6,20,17.8,20,17.8 M19.7,17.3c-0.1,0-0.2,0-0.3,0.1c-0.4,0.3-0.5,0.6-0.3,0.9c0.1,0.1,0.2,0.1,0.4,0.1
			c0.2,0,0.5-0.1,0.6-0.3c0.1-0.1,0.1-0.3,0-0.5C20.1,17.4,19.9,17.3,19.7,17.3"/>
		<path class="st0" d="M20.9,17.7C20.9,17.6,20.9,17.6,20.9,17.7L20.9,17.7c-0.2-0.1-0.3,0-0.3,0c0,0-0.1,0-0.1,0.1
			c0,0,0,0.1,0.1,0.1c0.1,0,0.2,0.1,0.3,0.1l0,0h0c0,0,0,0,0-0.1C20.9,17.8,20.9,17.8,20.9,17.7"/>
		<path class="st0" d="M20.8,17.3c-0.1-0.1-0.1-0.1-0.2-0.2l-0.1,0c0,0,0,0-0.1,0c-0.1,0.1-0.1,0.1-0.2,0.2c0,0.1,0,0.1,0,0.1
			s0.1,0,0.1,0.1C20.5,17.5,20.7,17.4,20.8,17.3C20.8,17.4,20.8,17.3,20.8,17.3"/>
		<path class="st0" d="M20.2,16.8C20.2,16.8,20.2,16.8,20.2,16.8c-0.1,0-0.1,0-0.1,0.1C20,16.9,20,17,20,17c0,0,0,0.1,0,0.1
			c0,0,0.1,0,0.1,0h0.1c0.1,0,0.2-0.1,0.2-0.2l0,0c0,0,0,0,0-0.1C20.3,16.9,20.2,16.9,20.2,16.8"/>
		<path class="st0" d="M21.2,16.6c-0.1,0-0.1,0-0.1,0.1c0,0.1-0.1,0.2-0.2,0.3c-0.1,0.1,0,0.1,0,0.1s0.1,0.1,0.1,0.1h0
			c0.1-0.1,0.2-0.1,0.2-0.1h0.1c0,0,0.1,0,0.1-0.1c0-0.1,0-0.2-0.1-0.3C21.3,16.6,21.2,16.6,21.2,16.6"/>
		<path class="st0" d="M10.7,18.7c0,0.1,0,0.1-0.2,0.2l0,0h0.1c0.1,0,0.2,0,0.3-0.1c0.1-0.1,0.2-0.1,0.3-0.1c0.1,0,0.2,0,0.3,0.1
			c0.1,0,0.2,0.1,0.2,0.1c0,0,0,0.1,0,0.1h0.1c0.2,0,0.3-0.1,0.3-0.3c0.1-0.1,0.2-0.2,0.3-0.2c0.1-0.1,0.1-0.2,0.1-0.3
			c0,0,0-0.1,0-0.1h0c-0.3,0.2-0.6,0.2-0.9,0.2c-0.7,0-1.3-0.2-1.9-0.5c-0.2-0.1-0.3-0.3-0.2-0.4l0.2-0.8c0.1-0.2,0.3-0.4,0.5-0.3
			c0.6,0.1,1.2,0.4,1.7,0.8l0,0l0,0c0-0.1,0-0.1,0-0.2l-0.3-0.2c-0.1-0.1-0.1-0.1-0.1-0.2c0-0.2-0.1-0.3-0.2-0.3l0,0l0,0v0.2
			c0,0-0.1,0.1-0.1,0.1h-0.1c-0.3,0-0.5-0.2-0.7-0.4c-0.1-0.1-0.2-0.2-0.3-0.2H10l0.1,0.1c0,0,0.1,0.1,0.1,0.2
			c0,0.1-0.1,0.1-0.2,0.1c-0.1,0-0.1,0-0.2,0H9.8c-0.1,0-0.1,0-0.2-0.1l0,0C9.5,16,9.4,16,9.4,16H9.3l0,0c0.2,0.1,0.2,0.3,0.2,0.5
			l-0.3,0.9c-0.1,0.2,0,0.5,0.2,0.6c0.2,0.1,0.3,0.2,0.3,0.2c0,0.1,0,0.1-0.1,0.2l0,0c0.1,0,0.1,0,0.2,0c0.1,0,0.2,0,0.2-0.1
			c0.1-0.1,0.1-0.1,0.2-0.1c0,0,0.1,0,0.1,0c0.3,0.1,0.5,0.2,0.5,0.3"/>
		<path class="st0" d="M9.1,16.8C9.1,16.8,9.1,16.8,9.1,16.8c0.1-0.1,0.1-0.1,0.1-0.1c-0.1-0.2-0.2-0.3-0.4-0.4H8.7c0,0,0,0-0.1,0
			c0,0,0,0.1,0,0.1C8.8,16.4,8.9,16.6,9.1,16.8L9.1,16.8z"/>
		<path class="st0" d="M6.2,16.8c0,0.2,0,0.4-0.2,0.4l0,0c0.1,0,0.2,0.1,0.2,0.1c0.1,0,0.1,0,0.2,0c0,0,0.1,0,0.1,0c0,0,0,0,0.1,0
			l0.6,0.3c0.1,0,0.1,0.1,0.1,0.1s0,0.1-0.1,0.1c0.1,0,0.1,0,0.2,0c0.1,0,0.2,0,0.3-0.1c0,0,0.1,0,0.1,0h0.4c0.2,0,0.5,0,0.7-0.1
			c0.1,0,0.1-0.1,0.1-0.2c0,0,0,0-0.1,0h0c-0.2,0.1-0.4,0.1-0.7,0.1c-0.6,0-1.1-0.2-1.5-0.5c-0.1,0-0.1-0.2-0.1-0.4
			c0.1-0.3,0.2-0.5,0.4-0.7c0-0.1,0.1-0.1,0.1-0.1l0,0h0.2c0.2,0,0.2-0.1,0.2-0.1l0,0H7.3c-0.1,0-0.3-0.1-0.3-0.2
			c-0.1-0.1-0.1-0.1-0.2-0.1h0c0,0,0.1,0.1,0.1,0.2c0,0.1,0,0.1-0.1,0.2C6.4,15.9,6.2,16.3,6.2,16.8"/>
		<path class="st0" d="M7.8,16.3L7.8,16.3c-0.1-0.2-0.1-0.4,0-0.6c0-0.1,0.1-0.1,0.2-0.1c0.1,0,0.2,0,0.2,0.1c0.1,0.1,0.1,0.2,0,0.4
			c-0.1,0.2-0.1,0.3-0.3,0.3C7.8,16.4,7.8,16.3,7.8,16.3 M8.4,16.1c0-0.2,0-0.4-0.1-0.5c-0.1-0.1-0.2-0.2-0.4-0.2
			c-0.1,0-0.2,0-0.3,0.1c-0.1,0.1-0.2,0.3-0.1,0.5c0,0.2,0.1,0.4,0.2,0.5c0.1,0,0.1,0,0.2,0C8.1,16.6,8.3,16.4,8.4,16.1"/>
		<path class="st0" d="M8.6,15.5c0.1,0,0.2-0.1,0.2-0.1c0,0,0-0.1,0-0.1c0,0,0,0,0,0l-0.1-0.1h0c0,0-0.1,0-0.1,0.1
			c0,0.1-0.1,0.1-0.1,0.2C8.5,15.5,8.6,15.5,8.6,15.5L8.6,15.5z"/>
		<path class="st0" d="M8.4,15l-0.2-0.1h0l0,0c0,0,0,0,0,0.1v0.2c0,0,0,0.1,0.1,0.1c0,0,0.1,0,0.1,0c0,0,0.1-0.1,0.1-0.1
			C8.5,15.1,8.5,15.1,8.4,15C8.5,15,8.4,15,8.4,15"/>
		<path class="st0" d="M7.9,14.9H7.7c0,0,0,0-0.1,0c0,0,0,0,0,0.1c0,0.1,0.1,0.2,0.2,0.2s0.1,0,0.1-0.1c0,0,0-0.1,0-0.1L7.9,14.9
			C7.9,14.9,7.9,14.9,7.9,14.9L7.9,14.9z"/>
		<path class="st0" d="M5.4,16.4L5.4,16.4c0.2,0,0.3,0.1,0.5,0.1c0,0,0.1,0,0.1,0c0,0,0.1,0,0.1-0.1c0,0-0.1,0-0.1,0
			c-0.7-0.1-1.3-0.5-1.6-1.1c-0.1-0.1-0.1-0.3,0-0.4c0.1-0.2,0.3-0.4,0.6-0.5c0.1,0,0.1-0.1,0.2-0.1c0.1,0,0.2,0,0.2,0.1
			c0.4,0.3,0.7,0.8,0.8,1.3c0,0.1,0.1,0.1,0.1,0.1c0,0,0.1,0,0.1-0.1l-0.1-0.3c0-0.1,0-0.1,0-0.2c0.2-0.2,0.2-0.4,0-0.5l0,0
			c-0.1,0.2-0.1,0.2-0.2,0.2S6,14.9,6,14.8c-0.1-0.2-0.3-0.4-0.5-0.6c-0.1-0.1-0.1-0.1-0.1-0.2c0-0.3-0.1-0.3-0.2-0.3l0,0l0,0
			c0.1,0.2,0,0.3-0.3,0.4c-0.4,0.1-0.7,0.4-0.8,0.8C4,15,3.9,15,3.9,15c-0.1,0-0.1,0-0.2-0.1l0,0l0,0c0,0.2,0.1,0.3,0.2,0.3
			c0.1,0,0.2,0,0.2,0.1c0,0.1,0.1,0.2,0.2,0.3c0.1,0.1,0.1,0.1,0.1,0.1c0,0.1-0.1,0.1-0.2,0.1l0,0C4.3,16,4.4,16,4.5,16h0.1
			c0,0,0.1,0,0.1,0.1L5,16.2C5,16.3,5,16.3,5,16.4c0,0,0,0.1-0.1,0.2l0,0c0.1,0,0.1,0.1,0.2,0.1c0.1,0,0.2,0,0.2-0.1
			C5.3,16.4,5.4,16.4,5.4,16.4"/>
		<path class="st0" d="M4.1,13.3c0.1,0,0.2,0,0.3,0.2c0.1,0.2,0.1,0.3,0,0.4c0,0-0.1,0.1-0.1,0.1h0c-0.2-0.1-0.3-0.3-0.4-0.5
			C3.8,13.4,3.9,13.3,4.1,13.3L4.1,13.3 M3.7,13.3c0,0.1,0,0.3,0,0.4c0.1,0.2,0.3,0.4,0.5,0.4h0.1c0.1,0,0.2-0.1,0.3-0.2
			c0.1-0.2,0-0.5-0.1-0.7c-0.1-0.2-0.3-0.3-0.4-0.3C3.9,13.1,3.8,13.2,3.7,13.3"/>
		<path class="st0" d="M4.1,13c0,0,0.1,0,0.1-0.1c0-0.1,0.1-0.2,0.1-0.2c0-0.1,0-0.1-0.1-0.1c0,0-0.1,0-0.1,0H4c0,0,0,0.1,0,0.1
			C4,12.7,4.1,13,4.1,13"/>
		<path class="st0" d="M3.9,13c0-0.1,0-0.2,0-0.3c0,0,0,0,0-0.1c0,0-0.1,0-0.1,0c-0.1,0-0.2,0-0.2,0.1c0,0,0,0.1,0,0.1
			C3.6,13,3.7,13.1,3.9,13C3.8,13.1,3.8,13.1,3.9,13"/>
		<path class="st0" d="M3.4,12.9c-0.1,0-0.2,0.1-0.2,0.2c0,0.1,0,0,0,0.1c0.1,0.1,0.2,0.1,0.3,0.1c0,0,0.1,0,0.1-0.1
			C3.6,13.1,3.6,13,3.4,12.9L3.4,12.9z"/>
		<path class="st0" d="M3.3,12.3c0.1,0,0.1,0.1,0.1,0.2c0,0,0.1,0.1,0.1,0.1c0,0,0.1,0,0.1-0.1c0,0,0-0.1,0-0.1c0-0.1,0-0.1,0-0.2
			c0-0.1,0-0.1,0-0.2c0,0-0.1,0-0.1,0c-0.1,0-0.2,0.1-0.3,0.2C3.2,12.2,3.3,12.2,3.3,12.3"/>
		<path class="st0" d="M8.7,18.5c0,0-0.1,0-0.1,0c-0.1,0-0.2,0-0.2-0.1c0-0.1,0-0.2,0-0.3c0,0,0.1,0,0.1,0c0.1,0,0.2,0.1,0.2,0.2
			C8.7,18.4,8.7,18.5,8.7,18.5 M8.9,18.5c0.1-0.1,0-0.3-0.1-0.4C8.8,18,8.6,17.9,8.5,18c-0.1,0-0.3,0.1-0.3,0.2
			c-0.1,0.2,0,0.3,0.1,0.5c0.1,0.1,0.2,0.1,0.3,0.2C8.7,18.8,8.9,18.7,8.9,18.5"/>
		<path class="st0" d="M6.8,19.9c0,0-0.1,0.1-0.1,0.1c-0.1,0-0.2,0-0.2-0.1c-0.1-0.1-0.1-0.2,0-0.3c0,0,0.1-0.1,0.1-0.1
			c0.1,0,0.2,0.1,0.2,0.1C6.8,19.8,6.8,19.9,6.8,19.9 M6.6,19.4c-0.1,0-0.3,0.1-0.3,0.2c-0.1,0.2,0,0.3,0.1,0.5
			c0.1,0.1,0.2,0.1,0.3,0.2l0,0c0.2,0,0.3-0.1,0.4-0.2c0.1-0.1,0-0.3-0.1-0.4C6.8,19.4,6.7,19.4,6.6,19.4"/>
		<path class="st0" d="M17.1,21.5c0,0-0.1,0-0.1,0c-0.1,0-0.2,0-0.2-0.1c0-0.1,0-0.2,0-0.3c0,0,0.1-0.1,0.1-0.1
			c0.1,0,0.2,0.1,0.2,0.1C17.2,21.4,17.2,21.5,17.1,21.5 M16.9,20.9c-0.1,0-0.3,0.1-0.4,0.2c-0.1,0.2,0,0.4,0.1,0.5
			c0.1,0.1,0.2,0.2,0.3,0.2c0.2,0,0.3-0.1,0.4-0.3c0.1-0.2,0-0.3-0.1-0.4C17.2,21,17,20.9,16.9,20.9"/>
		<path class="st0" d="M9.8,19.6c-0.3-0.2-0.6-0.5-0.8-0.8c0,0-0.1,0-0.1,0c0,0,0,0-0.1,0c0,0,0,0.1,0,0.1c0.2,0.4,0.6,0.7,1,0.8
			c0,0,0,0,0.1,0C9.9,19.7,9.9,19.7,9.8,19.6"/>
		<path class="st0" d="M9.7,21.2c-0.3-0.1-0.5-0.1-0.8-0.1c0,0-0.1,0-0.1,0.1c0,0,0,0.1,0.1,0.1c0.3,0.1,0.5,0.2,0.8,0.3l0,0
			c0,0,0,0,0,0L9.7,21.2C9.8,21.2,9.8,21.2,9.7,21.2"/>
		<path class="st0" d="M8.3,20.8c-0.2,0-0.4,0.1-0.5,0.3c0,0,0,0.1,0,0.1c0,0,0.1,0,0.1,0c0.1,0,0.1,0,0.2,0C8.1,21,8.2,21,8.4,21
			h0.1c0.1,0,0.2,0.1,0.1,0.1c0,0.1,0,0.1-0.1,0.1c0,0,0,0-0.1,0c0,0,0,0-0.1,0H8.3c-0.1,0-0.2,0.1-0.3,0.1l0,0H7.9l0,0l0,0
			c0.1,0,0.3,0.1,0.4,0.1c0.1,0,0.3,0,0.3-0.2c0.1-0.1,0.1-0.2,0-0.3C8.6,20.8,8.5,20.7,8.3,20.8"/>
		<path class="st0" d="M5.3,17.7C5.3,17.7,5.3,17.7,5.3,17.7c-0.1,0.1,0,0.2,0.2,0.2c0.2,0,0.4,0.1,0.5,0.2c0.1,0.1,0.1,0.1,0.1,0.2
			c0,0-0.1,0.1-0.1,0.1c-0.1,0-0.1,0-0.1-0.1c0,0,0-0.1-0.1-0.1c-0.1,0-0.2-0.1-0.3-0.1H5.3h0l0,0c0.3,0.4,0.6,0.5,0.7,0.5
			c0.1,0,0.2-0.1,0.3-0.1c0.1-0.1,0.1-0.2,0-0.4C6,17.7,5.7,17.6,5.3,17.7"/>
		<path class="st0" d="M18.4,20c-0.2-0.1-0.4-0.1-0.6-0.1c-0.1,0-0.3,0-0.4,0.1c-0.1,0.1-0.1,0.2-0.1,0.3c0,0.2,0.1,0.3,0.4,0.3
			c0.2,0,0.4-0.1,0.6-0.2c0,0,0,0,0-0.1c0,0,0,0-0.1,0c0,0-0.1,0-0.1,0c-0.1,0-0.3,0-0.4,0c-0.1,0-0.1,0-0.2,0.1c0,0-0.1,0-0.1,0
			c-0.1,0-0.1,0-0.1-0.1c0,0,0-0.1,0.1-0.2c0.1,0,0.1,0,0.2,0c0.1,0,0.3,0,0.4,0.1h0.2c0.1,0,0.2,0,0.2-0.1
			C18.5,20.1,18.5,20.1,18.4,20"/>
		<path class="st0" d="M16.2,20.4c0.3,0,0.5,0,0.8-0.2c0,0,0.1,0,0.1-0.1c0,0-0.1-0.1-0.1-0.1c0,0,0,0-0.1,0
			c-0.3,0.1-0.5,0.1-0.8,0.1c-0.2,0-0.3,0-0.5,0c-0.1,0-0.1,0-0.1,0.1c0,0,0,0.1,0.2,0.1C15.8,20.4,16.1,20.4,16.2,20.4"/>
		<path class="st0" d="M16.3,21c0,0,0-0.1,0-0.1c0,0,0-0.1,0.1-0.1l0.7-0.2c0,0,0,0,0-0.1c0,0,0-0.1-0.1-0.1l0,0
			c-0.7,0.1-1,0.3-1.1,0.4c0,0.2,0.1,0.2,0.3,0.3c0,0,0.1,0,0.1,0c0,0,0.1,0,0.1,0c0,0,0-0.1,0-0.1L16.3,21z"/>
		<path class="st0" d="M16.2,21.4l-0.6,0.2c0,0,0,0.1,0,0.1c0,0,0,0.1,0.1,0.1h0l0.6-0.1c0,0,0.1-0.1,0-0.1
			C16.3,21.5,16.3,21.4,16.2,21.4"/>
		<path class="st0" d="M9.1,20.5c-0.1-0.3-0.8-0.6-1.8-0.8c-0.1,0-0.1,0-0.1,0.1s0,0.1,0.1,0.1c0.5,0.1,1,0.3,1.5,0.5
			c0.1,0,0.1,0.1,0.1,0.2c0,0,0,0.1-0.1,0.1c0,0-0.1,0.1-0.1,0.1c0,0.1,0,0.1,0.1,0.1H9C9.1,20.8,9.1,20.6,9.1,20.5"/>
		<path class="st0" d="M7.4,19.4c0-0.1-0.1-0.5-1-0.9h0h0c0,0,0,0.1,0,0.1l0.1,0.1l0.1,0.1c0.2,0.1,0.3,0.2,0.5,0.4
			c0,0,0.1,0.1,0.1,0.1c0,0,0,0.1,0,0.1c0,0,0,0.1,0,0.1c0.1,0,0.1,0.1,0.2,0.1C7.4,19.5,7.4,19.4,7.4,19.4"/>
		<path class="st0" d="M7.6,18.9l0.3,0.2c0.1,0.1,0.3,0.1,0.4,0.2h0.1c0.1,0,0.2,0,0.2-0.1c0-0.1,0-0.1-0.1-0.2H8.5l0,0
			C8.4,19,8.4,19,8.3,19c0,0-0.1,0-0.1,0c-0.5-0.2-1-0.5-1.5-0.8H6.6c0,0,0,0-0.1,0v0.1C6.9,18.6,7.2,18.8,7.6,18.9"/>
		<path class="st0" d="M1.7,10.7L1.7,10.7c0.1,0,0.2,0.1,0.3,0.2c0,0.1,0,0.2,0,0.3c0,0.2,0,0.2,0,0.2c0,0,0,0-0.1,0l-0.6-0.1v-0.2
			c0-0.1,0-0.1,0.1-0.2c0.1,0,0.1,0,0.2,0l0,0v-0.1l-0.7-0.1v0.1l0,0C0.8,11,0.9,11,1,11c0,0,0,0.1,0,0.2v0.2l-0.6-0.1
			c0,0-0.1,0-0.1,0s0,0,0,0V11c0-0.2,0.1-0.2,0.1-0.2c0,0,0.1,0,0.2,0l0,0v-0.1l-0.4-0.1L0,11.8h0.1l0,0c0-0.1,0-0.1,0.1-0.1
			c0,0,0.1,0,0.1,0h0.3l1.2,0.2c0.1,0,0.1,0,0.2,0c0,0,0,0.1,0,0.1l0,0H2l0.2-1.2L1.7,10.7L1.7,10.7z"/>
		<path class="st0" d="M2,9.4c-0.1,0-0.2,0-0.3,0c-0.1,0-0.2,0.1-0.3,0.2L1.2,9.8C1.1,9.8,1.1,9.9,1,9.9c-0.1,0-0.1,0-0.2,0
			c-0.1,0-0.1,0-0.1-0.1c0,0,0-0.1,0-0.1c0-0.1,0.1-0.1,0.1-0.2C1,9.4,1.1,9.4,1.2,9.4l0,0V9.3L0.6,9.2v0.1l0,0l0.1,0l0,0
			c0,0,0,0-0.1,0.1c0,0.1-0.1,0.1-0.1,0.2c0,0.1,0,0.2,0.1,0.3c0.1,0.1,0.2,0.2,0.3,0.2c0.1,0,0.2,0,0.3,0c0.1,0,0.1-0.1,0.2-0.1
			l0.2-0.1c0.1-0.1,0.1-0.1,0.2-0.2c0.1,0,0.2,0,0.2,0c0.1,0,0.1,0.1,0.2,0.1c0,0,0,0.1,0,0.2c0,0.1-0.1,0.2-0.3,0.2
			c-0.1,0-0.2,0.1-0.3,0.1l0,0v0.1l0.6,0.1v-0.1l0,0h0l0,0c0,0,0,0,0.1-0.1c0.1-0.1,0.1-0.1,0.1-0.2c0-0.1,0-0.3-0.1-0.4
			C2.3,9.6,2.2,9.5,2,9.4"/>
		<path class="st0" d="M2.7,8.5c0,0.1,0,0.1-0.1,0.1c-0.1,0-0.1,0-0.2,0L1.2,8.1V8c0-0.1,0.1-0.1,0.1-0.2c0.1,0,0.2,0,0.3,0l0,0V7.8
			L1.1,7.6L0.8,8.8L1.2,9V8.9l0,0C1.2,8.8,1.1,8.8,1,8.7c0-0.1,0-0.2,0-0.2V8.4l1.3,0.5C2.4,8.9,2.4,8.9,2.5,9s0,0.1,0,0.2l0,0h0.1
			L2.7,8.5L2.7,8.5L2.7,8.5z"/>
		<path class="st0" d="M2.7,7.2L2.5,7.6L2,7.1L2.7,7.2z M3.5,6.9C3.5,7,3.5,7,3.5,6.9C3.4,7,3.3,7,3.3,7L1.6,6.8v0.1l1,1
			C2.7,8,2.8,8.1,2.8,8.2c0,0,0,0.1,0,0.1l0,0l0.1,0l0.2-0.4l-0.1,0l0,0L3,7.9c0,0,0,0-0.1,0c0,0,0,0-0.1-0.1L2.6,7.7l0.2-0.4l0.3,0
			c0,0,0.1,0,0.1,0h0.1h0c0,0,0,0.1,0,0.1l0,0l0.1,0l0.3-0.5L3.5,6.9L3.5,6.9z"/>
		<path class="st0" d="M4,6c0,0.1,0,0.3-0.1,0.4c0,0,0,0.1-0.1,0.1c0,0,0,0-0.1,0L2.6,5.7c0,0,0,0,0-0.1c0,0,0,0,0-0.1
			C2.7,5.4,2.8,5.3,3,5.3h0.1c0.2,0,0.4,0.1,0.5,0.2C3.8,5.6,4,5.8,4,6 M4.1,5.5C4,5.4,3.9,5.3,3.8,5.2C3.5,5,3.2,5,2.9,5.1
			C2.7,5.1,2.6,5.3,2.5,5.4L2.1,5.9L2.2,6l0,0c0.1-0.1,0.1-0.1,0.1-0.1c0.1,0,0.1,0,0.2,0.1l1,0.7c0.1,0.1,0.1,0.1,0.1,0.1
			s0,0.1,0,0.1l0,0L3.6,7L4,6.5c0.1-0.1,0.1-0.2,0.2-0.4c0-0.1,0-0.1,0-0.2C4.2,5.7,4.1,5.6,4.1,5.5"/>
		<path class="st0" d="M5,5.1C4.9,5.2,4.8,5.2,4.7,5.2C4.5,5.1,4.3,5,4.1,4.8C4,4.7,3.8,4.5,3.8,4.3c0-0.1,0-0.3,0.1-0.4
			C3.9,3.9,4,3.8,4.1,3.8h0.1C4.4,3.9,4.6,4,4.8,4.2C4.9,4.3,5,4.5,5.1,4.7C5.1,4.8,5.1,5,5,5.1 M5,4C4.8,3.8,4.6,3.7,4.3,3.6
			c-0.4,0-0.7,0.2-0.7,0.6c0,0.1,0,0.1,0,0.2c0.1,0.5,0.5,0.9,1,1h0.1c0.2,0,0.3-0.1,0.5-0.2C5.3,5,5.3,4.8,5.3,4.6
			C5.3,4.4,5.2,4.1,5,4"/>
		<path class="st0" d="M6,3.4c-0.1,0-0.2-0.1-0.3,0H5.4c-0.1,0-0.1,0-0.2,0C5.1,3.3,5.1,3.3,5,3.2C5,3.2,5,3.1,5,3.1C5,3,5,3,5,2.9
			c0.1,0,0.1-0.1,0.2-0.1C5.4,2.9,5.5,3,5.6,3l0,0L5.7,3L5.3,2.5L5.2,2.6l0,0c0,0,0,0,0,0.1l0,0c0,0,0,0-0.1,0C5,2.7,5,2.7,4.9,2.8
			C4.8,2.8,4.8,2.9,4.8,3.1c0,0.2,0.2,0.4,0.4,0.5c0.1,0,0.1,0,0.2,0h0.3c0.1,0,0.2,0,0.3,0c0.1,0,0.3,0.2,0.3,0.3
			C6.1,4,6.1,4,6,4.1c-0.1,0.1-0.2,0.1-0.3,0C5.6,4.1,5.5,4,5.4,4l0,0L5.3,4l0.4,0.4l0.1-0.1l0,0v0l0,0c0,0,0,0,0.1,0
			c0.1,0,0.1-0.1,0.2-0.1c0.1-0.1,0.2-0.2,0.2-0.3c0-0.1,0-0.3-0.1-0.4C6.2,3.5,6.1,3.4,6,3.4"/>
		<path class="st0" d="M8,1.4C7.9,1.3,7.9,1.2,7.9,1.2c0,0,0-0.1,0.1-0.1l0,0L8,1L7.5,1.2l0,0.1l0,0c0.1,0,0.1,0,0.2,0
			c0.1,0.1,0.1,0.1,0.1,0.2l0.3,0.6c0.1,0.1,0.1,0.2,0.1,0.4c0,0.1-0.1,0.3-0.2,0.3c-0.1,0.1-0.3,0-0.4-0.1C7.6,2.7,7.6,2.6,7.5,2.5
			L7.1,1.8c-0.1-0.1-0.1-0.2,0-0.2c0,0,0-0.1,0.1-0.1l0,0l0-0.1L6.6,1.7l0,0.1l0,0c0,0,0.1,0,0.1,0c0,0,0.1,0,0.1,0.1l0.4,0.8
			C7.3,2.8,7.4,2.9,7.5,3c0.1,0.1,0.2,0.1,0.3,0.1c0.1,0,0.2,0,0.3-0.1C8.2,3,8.4,2.8,8.4,2.6c0-0.2-0.1-0.3-0.1-0.4L8,1.4z"/>
		<path class="st0" d="M9.6,0.6c0-0.1,0.1-0.1,0.1-0.1l0,0V0.4L9.2,0.6v0.1l0,0c0,0,0.1,0,0.1,0c0,0,0.1,0.1,0.1,0.2l0.2,0.8
			L8.7,0.7L8.3,0.9V1l0,0c0,0,0.1,0,0.1,0c0,0,0,0,0.1,0.1l0,0l0.4,1.1c0,0.1,0,0.2,0,0.3c0,0.1-0.1,0.1-0.1,0.1l0,0v0.1l0.5-0.2
			V2.3l0,0c0,0-0.1,0-0.1,0C9.1,2.3,9,2.2,9,2.1L8.7,1.2L10,2.3h0.1L9.6,0.9C9.6,0.8,9.6,0.7,9.6,0.6"/>
		<path class="st0" d="M11,1.9L11,1.9c-0.1,0-0.1,0-0.2,0c0,0,0,0-0.1-0.2l-0.2-1.2c0-0.1,0-0.2,0-0.2s0,0,0.1-0.1l0,0V0.2L10,0.4
			v0.1l0,0c0.1,0,0.1,0,0.2,0c0,0,0,0.1,0.1,0.2l0.3,1.2c0,0.1,0,0.2,0,0.2c0,0-0.1,0.1-0.1,0.1l0,0v0.1L11,1.9L11,1.9L11,1.9z"/>
		<path class="st0" d="M11.6,1.8L11.6,1.8C11.5,1.8,11.5,1.8,11.6,1.8l-0.2-1.5c0-0.1,0-0.1,0-0.1s0,0,0.1,0h0.1
			c0.1,0,0.3,0,0.4,0.1c0.2,0.2,0.3,0.4,0.3,0.6c0,0.2,0,0.5-0.2,0.7C11.9,1.8,11.7,1.8,11.6,1.8L11.6,1.8z M12,0.2
			c-0.2-0.1-0.3-0.1-0.5-0.1l-0.6,0.1v0.1l0,0c0.1,0,0.1,0,0.1,0c0,0.1,0,0.1,0,0.2l0.1,1.2c0,0.1,0,0.1,0,0.2c0,0-0.1,0.1-0.1,0.1
			l0,0V2l0.6-0.1c0.2,0,0.3,0,0.4-0.1c0.1,0,0.1-0.1,0.2-0.1c0.1-0.1,0.1-0.2,0.2-0.3c0-0.1,0-0.3,0-0.4C12.5,0.6,12.3,0.3,12,0.2"
			/>
		<path class="st0" d="M13.9,1c0,0.2,0,0.4-0.2,0.6c-0.1,0.1-0.2,0.2-0.3,0.2c-0.1,0-0.2-0.1-0.3-0.2C13,1.4,13,1.2,13,1
			c0-0.2,0.1-0.4,0.2-0.6c0.1-0.1,0.2-0.2,0.3-0.2l0,0c0.1,0,0.2,0.1,0.3,0.2C13.9,0.6,13.9,0.8,13.9,1 M13.5,0
			c-0.2,0-0.4,0.1-0.5,0.2c-0.3,0.4-0.3,1-0.1,1.4c0.1,0.2,0.3,0.3,0.5,0.3l0,0c0.2,0,0.4-0.1,0.5-0.2c0.3-0.4,0.4-1,0.1-1.5
			C13.9,0.1,13.7,0,13.5,0"/>
		<path class="st0" d="M15.4,0.3C15.4,0.3,15.4,0.3,15.4,0.3L15.4,0.3h-0.2c-0.1,0-0.1-0.1-0.2-0.1c-0.1,0-0.2,0-0.3,0.1
			c-0.1,0.1-0.2,0.2-0.2,0.3c0,0.1,0,0.2,0,0.3c0,0.1,0.1,0.1,0.1,0.2l0.2,0.2C15,1.3,15,1.4,15.1,1.5c0,0.1,0,0.2,0,0.2
			c0,0.1,0,0.1-0.1,0.2c0,0-0.1,0.1-0.2,0c-0.1,0-0.2-0.1-0.3-0.2c0-0.1-0.1-0.2-0.1-0.3l0,0h-0.1V2h0.1l0,0v0l0,0l0.1,0.1
			c0.1,0,0.1,0.1,0.2,0.1h0.1c0.1,0,0.2,0,0.3-0.1c0.1-0.1,0.2-0.2,0.2-0.3c0-0.1,0-0.2,0-0.3c-0.1-0.1-0.1-0.2-0.2-0.3L15,0.9
			c-0.1-0.1-0.1-0.1-0.1-0.2c0-0.1,0-0.1,0-0.2c0-0.1,0-0.1,0.1-0.2c0,0,0.1,0,0.1,0c0.1,0,0.2,0.1,0.2,0.1c0.1,0.1,0.1,0.2,0.1,0.4
			l0,0h0.1L15.4,0.3L15.4,0.3L15.4,0.3z"/>
		<path class="st0" d="M18.1,3.1C18,3.1,18,3,18,3c0,0,0-0.1,0-0.2l0.5-1.1c0-0.1,0.1-0.1,0.1-0.1c0,0,0.1,0,0.1,0l0,0V1.5l-0.4-0.2
			l-1,1l0.1-1.4L17,0.7v0.1l0,0c0.1,0,0.1,0.1,0.1,0.1s0,0.1,0,0.2l-0.4,1c0,0.1-0.1,0.2-0.1,0.2c-0.1,0-0.1,0-0.2,0l0,0l0,0.1
			l0.5,0.2V2.5l0,0c-0.1,0-0.1-0.1-0.1-0.1c0-0.1,0-0.2,0.1-0.3l0.4-0.9l-0.1,1.5h0.1l1.1-1.1l-0.4,1c-0.1,0.1-0.1,0.2-0.1,0.2
			s-0.1,0-0.2,0l0,0l0,0.1l0.6,0.3L18.1,3.1L18.1,3.1z"/>
		<path class="st0" d="M19.4,3.4L19.4,3.4c-0.1,0.1-0.2,0.1-0.3,0.1l0,0c-0.1,0-0.2-0.1-0.3-0.1c-0.1-0.1-0.2-0.1-0.2-0.1
			c0,0,0-0.1,0-0.1l0.3-0.5l0.2,0.1c0.1,0.1,0.1,0.1,0.1,0.1c0,0.1,0,0.1-0.1,0.2l0,0l0.1,0.1l0.4-0.6l-0.1,0l0,0
			c-0.1,0.1-0.1,0.1-0.2,0.1s-0.1,0-0.2,0L19,2.6l0.3-0.5v0l0,0l0.3,0.2c0.1,0.1,0.2,0.1,0.2,0.2c0,0,0,0.1,0,0.2l0,0l0.1,0.1
			L20,2.3l-0.9-0.6L19,1.7l0,0c0.1,0.1,0.1,0.1,0.1,0.1c0,0.1,0,0.1-0.1,0.2l-0.6,1c-0.1,0.1-0.1,0.1-0.1,0.1c-0.1,0-0.1,0-0.1,0
			l0,0l-0.1,0.1l1,0.7l0.4-0.4L19.4,3.4z"/>
		<path class="st0" d="M20.4,4.8c0,0,0-0.1-0.1-0.1c0-0.1,0-0.1,0-0.2l0.2-0.8l0.5-0.2c0.1,0,0.2,0,0.3,0c0,0,0.1,0,0.1,0.1l0,0
			l0.1-0.1l-0.4-0.4L21,3.2l0,0c0,0,0.1,0.1,0.1,0.1c0,0,0,0,0,0.1l0,0l-0.1,0l-0.4,0.1l0.1-0.4c0,0,0,0,0-0.1c0,0,0-0.1,0-0.1
			c0,0,0,0,0.1,0s0,0,0.1,0.1l0,0l0.1-0.1l-0.5-0.4l-0.1,0.1l0,0c0,0,0.1,0.1,0.1,0.2c0,0.1,0,0.3-0.1,0.4l-0.1,0.5l-0.6,0.2
			c-0.1,0-0.2,0.1-0.3,0.1c0,0-0.1,0-0.1,0l0,0l-0.1,0.1l0.4,0.3l0.1-0.1l0,0c0,0-0.1-0.1-0.1-0.1c0,0,0,0,0-0.1l0.1,0l0.1,0
			l0.4-0.1c-0.1,0.3-0.1,0.4-0.1,0.5c0,0,0,0.1,0,0.1h0c0,0,0,0-0.1-0.1l0,0l-0.1,0.1L20.4,4.8L20.4,4.8L20.4,4.8z"/>
		<path class="st0" d="M21,5.1l0.9-0.8c0,0,0.1-0.1,0.1-0.1c0,0,0.1,0,0.1,0.1l0,0l0.1-0.1l-0.5-0.5l-0.1,0.1l0,0
			c0.1,0.1,0.1,0.1,0.1,0.1s0,0.1-0.1,0.1l-0.8,0.9C20.7,5,20.6,5,20.6,5s-0.1,0-0.1-0.1l0,0L20.4,5l0.5,0.5L21,5.4l0,0
			c0,0-0.1-0.1-0.1-0.1C20.9,5.3,20.9,5.2,21,5.1"/>
		<path class="st0" d="M22,6.4L22,6.4V6.3l0,0c-0.1,0-0.2,0-0.2,0c-0.1,0-0.2-0.1-0.3-0.2c-0.1-0.1-0.1-0.3-0.1-0.4
			c0.1-0.2,0.2-0.3,0.4-0.5C22,5.1,22.2,5,22.4,5c0.1,0,0.3,0,0.4,0.1c0.1,0.1,0.1,0.3,0,0.4c0,0.1-0.1,0.2-0.2,0.3l0,0l0.1,0.1
			l0.5-0.4l-0.1-0.1l0,0c0,0,0,0-0.1,0l0,0l0-0.1C23,5.1,23,5.1,22.9,5c-0.1-0.2-0.3-0.3-0.6-0.3l0,0c-0.2,0-0.5,0.1-0.7,0.3
			c-0.2,0.1-0.3,0.3-0.4,0.6c-0.1,0.4,0.1,0.7,0.4,0.9c0,0,0,0,0,0L22,6.4L22,6.4"/>
		<path class="st0" d="M23.4,6.5L22.9,7l-0.2-0.4L23.4,6.5z M22.6,7.9c0,0,0-0.1,0-0.1c0,0,0-0.1,0.1-0.2l1.1-1.3V6.3l-1.4,0.3
			c-0.1,0-0.3,0.1-0.4,0.1c0,0-0.1,0-0.1-0.1l0,0l-0.1,0L22.1,7l0.1,0l0,0c0-0.1,0-0.1,0-0.1c0,0,0,0,0-0.1h0.1l0.3-0.1l0.3,0.5
			l-0.2,0.2c0,0,0,0.1-0.1,0.1l0,0c0,0,0,0-0.1,0c0,0-0.1-0.1-0.1-0.1l0,0l-0.1,0.1L22.7,8l0.1,0L22.6,7.9z"/>
		<path class="st0" d="M24.7,8.6c0,0,0.1,0,0.1,0.1l0,0l0.1,0l-0.2-0.5l-0.1,0l0,0c0,0,0,0.1,0,0.1c-0.1,0.1-0.1,0.1-0.2,0.1
			l-0.8,0.3l0.9-1.2l-0.2-0.4h-0.1l0,0c0,0,0,0.1,0,0.1c0,0,0,0.1,0,0.1v0L23.1,8c-0.1,0-0.2,0.1-0.3,0.1c0,0-0.1,0-0.1-0.1l0,0
			l-0.1,0l0.2,0.5h0.1l0,0c0-0.1,0-0.1,0-0.1c0,0,0.1-0.1,0.2-0.1L24,7.9l-1,1.3l0,0v0.1l1.4-0.5C24.5,8.6,24.5,8.6,24.7,8.6"/>
		<path class="st0" d="M23.7,10.4c-0.1,0-0.2-0.1-0.3-0.3c0-0.1,0-0.3,0.1-0.3c0.2-0.1,0.4-0.2,0.6-0.3c0.1,0,0.3,0,0.4-0.1
			c0.1,0,0.2,0,0.2,0c0.1,0,0.2,0.1,0.3,0.3c0,0.1,0,0.3-0.1,0.3c-0.2,0.1-0.4,0.2-0.6,0.3C24.2,10.4,23.9,10.4,23.7,10.4
			 M24.1,10.7c0.1,0,0.2,0,0.3,0c0.3,0,0.5-0.2,0.6-0.4c0.1-0.2,0.2-0.4,0.1-0.6c0-0.2-0.2-0.4-0.4-0.4c-0.5-0.2-1-0.1-1.4,0.3
			c-0.1,0.2-0.2,0.4-0.1,0.6c0,0.2,0.2,0.4,0.4,0.4C23.8,10.7,24,10.7,24.1,10.7"/>
		<path class="st0" d="M25.5,11.6L25.5,11.6L25.5,11.6L25.5,11.6c-0.1,0-0.1-0.1-0.1-0.1c0-0.1,0-0.1,0-0.2c0-0.1-0.1-0.2-0.2-0.3
			c-0.1-0.1-0.2-0.1-0.4-0.1c-0.1,0-0.2,0.1-0.3,0.1c0,0-0.1,0.1-0.1,0.2l-0.1,0.2c0,0.1-0.1,0.2-0.2,0.2c-0.1,0.1-0.1,0.1-0.2,0.1
			c-0.1,0-0.2,0-0.2,0c-0.1,0-0.1-0.1-0.1-0.1c0-0.1,0-0.3,0.1-0.3c0.1-0.1,0.2-0.1,0.3-0.2l0,0V11l-0.6,0.1v0.1h0.1l0,0
			c0,0,0,0.1,0,0.1c0,0.1,0,0.2,0,0.2c0,0.1,0.1,0.2,0.2,0.3c0.1,0.1,0.2,0.1,0.3,0.1h0.1c0.1,0,0.2,0,0.3-0.1
			c0.1-0.1,0.2-0.2,0.2-0.3l0.1-0.2c0-0.1,0.1-0.1,0.1-0.2c0,0,0.1-0.1,0.2-0.1c0.1,0,0.1,0,0.2,0c0,0,0.1,0.1,0.1,0.1
			c0,0.1,0,0.2-0.1,0.2c-0.1,0.1-0.2,0.2-0.3,0.2l0,0v0.1L25.5,11.6L25.5,11.6z"/>
		<path class="st0" d="M12.4,24.4c-0.1,0-0.1,0-0.2-0.1c-0.1-0.3-0.1-0.5,0-0.8c0-0.1,0.1-0.1,0.2-0.1c0.1,0,0.2,0.1,0.2,0.1
			c0,0.3,0,0.5,0,0.8C12.6,24.4,12.5,24.4,12.4,24.4"/>
		<path class="st0" d="M13.2,24.4c-0.1,0-0.2,0-0.2-0.1v-0.6c0-0.1,0-0.2,0.1-0.2c0,0,0.1-0.1,0.1-0.1c0.1,0,0.2,0.1,0.2,0.2
			c0,0,0,0,0,0v0.6c0,0,0,0.1,0,0.1C13.3,24.4,13.3,24.4,13.2,24.4"/>
		<path class="st0" d="M10.9,24.9L10.9,24.9c-0.2,0-0.2-0.1-0.2-0.1c0-0.1,0-0.1,0.1-0.1h0.1c0.1,0,0.1,0,0.2,0.1c0,0.1,0,0.1,0,0.2
			C11,24.9,10.9,24.9,10.9,24.9"/>
		<path class="st0" d="M14.6,24.9c0,0-0.1,0-0.1,0c0,0,0-0.1,0-0.1c0-0.1,0.1-0.1,0.2-0.1h0.1c0.1,0,0.1,0.1,0.1,0.1
			c0,0.1,0,0.1-0.1,0.2C14.7,24.9,14.6,24.9,14.6,24.9"/>
		<path class="st0" d="M11.3,24.6L11.3,24.6L11,24.5c0,0,0,0,0-0.1c0.2-0.2,0.5-0.4,0.9-0.4l0,0c0.1,0,0.1,0,0.1,0.1
			c0,0.1,0,0.2-0.1,0.2c-0.2,0-0.4,0.1-0.5,0.2C11.4,24.5,11.3,24.6,11.3,24.6"/>
		<path class="st0" d="M14.2,24.6C14.2,24.6,14.2,24.6,14.2,24.6c-0.2-0.2-0.4-0.3-0.6-0.3c0,0-0.1,0-0.1-0.1c0-0.1,0-0.1,0-0.2
			c0.3,0,0.7,0.2,0.9,0.4v0l0,0L14.2,24.6L14.2,24.6z"/>
		<path class="st0" d="M13.7,25.9c0,0-0.1,0-0.1,0c-0.2-0.1-0.4-0.2-0.7-0.3c-0.1,0-0.1-0.1-0.1-0.2c0-0.1,0.1-0.2,0.2-0.2h0.1
			c0.1,0.1,0.2,0.1,0.4,0.2c0.1,0,0.3,0.1,0.4,0.2c0,0,0.1,0,0.1,0.1c0,0,0,0,0,0.1l-0.1,0.1C13.8,25.9,13.7,25.9,13.7,25.9"/>
		<path class="st0" d="M11,25.7L11,25.7c-0.1,0-0.1-0.1,0-0.1c0-0.4,0.4-0.6,0.8-0.9l0.4-0.2c0,0,0.1,0,0.1-0.1c0,0,0,0,0.1,0
			l0.2,0.1c0,0,0,0,0,0.1c0,0,0,0,0,0.1c-0.1,0.1-0.2,0.2-0.4,0.3c-0.2,0.1-0.4,0.3-0.6,0.5C11.3,25.6,11.2,25.7,11,25.7L11,25.7z"
			/>
		<path class="st0" d="M12,25.9C12,25.9,11.9,25.9,12,25.9l-0.2-0.1c-0.1-0.1-0.1-0.2,0-0.3c0.1-0.1,0.3-0.3,0.5-0.4
			c0.2-0.1,0.3-0.2,0.5-0.4c0-0.1,0.1-0.1,0.2-0.1l0,0h0.1c0.1,0,0.1,0,0.1,0s-0.1,0.2-0.1,0.2c-0.2,0.2-0.4,0.4-0.6,0.5
			C12.3,25.5,12.2,25.6,12,25.9C12,25.9,12,25.9,12,25.9"/>
		<path class="st0" d="M14.6,25.6c0,0-0.1,0-0.1,0c-0.1,0-0.2-0.1-0.2-0.1c-0.1-0.1-0.2-0.2-0.3-0.2c-0.1,0-0.2-0.1-0.2-0.1L13.4,25
			c0,0-0.1,0-0.1-0.1c0-0.1,0-0.1,0.1-0.2c0.1-0.1,0-0.1,0.1-0.1c0,0,0.1,0,0.1,0c0.1,0.1,0.2,0.1,0.4,0.2c0.3,0.1,0.6,0.3,0.8,0.6
			c0,0,0,0,0,0.1s0,0,0,0c-0.1,0-0.1,0-0.2,0"/>
		<path class="st0" d="M9.6,24.2c0.2,0,0.3,0,0.3,0.1c0,0.1,0,0.1,0,0.2c0,0,0,0.1,0,0.1c0,0,0,0,0.1,0c0.1,0,0.2-0.1,0.3-0.3
			c0.1-0.2,0.1-0.1,0.2-0.2c0.1,0,0.1-0.1,0.1-0.2c0-0.1,0-0.1-0.1-0.1c0,0,0,0-0.1,0c-0.1,0.1-0.1,0.1-0.2,0.1h-0.1
			c-0.2,0-0.3,0-0.4-0.2l-0.2-0.4c0,0-0.1-0.1-0.1-0.1l0,0l0,0c0,0,0,0.1,0,0.1l0.1,0.2c0,0,0,0.1,0,0.1c0,0-0.1,0-0.1,0l0,0
			c-0.4,0-0.7-0.2-0.9-0.5c0,0-0.1-0.1-0.1-0.1l0,0l0,0c0,0,0,0.1,0,0.1l0.1,0.2c0,0,0,0.1,0,0.1c0,0,0,0-0.1,0
			c-0.3,0.1-0.6,0-0.9-0.2c0,0-0.1,0-0.1,0c0,0,0,0.1,0,0.1l0,0.1c0,0,0,0.1,0,0.1c0,0,0,0-0.1,0l-0.5,0c-0.1,0-0.1,0-0.1,0.1
			s0.1,0.1,0.2,0.1c0.4,0,0.7,0,1.1,0.1h0.1c0,0,0,0.1,0,0.1L8,24.2c0,0-0.1,0.1-0.1,0.1c0,0,0,0,0.1,0h0.1c0.2-0.1,0.4-0.2,0.7-0.3
			c0.1,0,0.1,0,0.2,0c0,0,0.1,0,0.1,0.1c0,0,0,0.1,0,0.1l-0.1,0.2c0,0.1,0,0.1,0,0.1h0c0,0,0.1,0,0.1,0C9.2,24.4,9.4,24.1,9.6,24.2
			L9.6,24.2z M9.5,25.1c-0.1,0-0.1,0-0.1-0.1c0,0,0-0.1,0-0.1l0.2-0.3c0,0,0-0.1,0-0.1c0,0,0,0-0.1,0c-0.1,0-0.1,0-0.2,0.1
			c-0.2,0.2-0.4,0.4-0.7,0.4H8.4c-0.1,0-0.1,0-0.1-0.1c0-0.1,0-0.1,0-0.1l0.2-0.3c0-0.1,0-0.1,0-0.1H8.4H8.4l-0.5,0.3l-0.2,0
			c-0.1,0-0.2,0-0.3-0.1c0,0,0,0,0-0.1l0,0c0.1-0.1,0.2-0.1,0.2-0.2c0,0,0-0.1,0-0.1c0,0-0.1-0.1-0.1-0.1c-0.2,0-0.4,0-0.5,0.1
			c-0.2,0-0.4,0-0.6-0.1c-0.1,0-0.1-0.1-0.1-0.1c0,0,0.1-0.1,0.2-0.2l0.5-0.2c0.1,0,0.2,0,0.2-0.1c0,0,0,0,0-0.1c0,0,0-0.1,0-0.1
			c0,0,0-0.1,0-0.1c0,0,0-0.1,0.1-0.1c0.1,0,0.1-0.1,0.2-0.1c0.2,0,0.4,0.1,0.6,0.3c0,0,0.1,0,0.1,0c0.1,0,0.1-0.1,0-0.1L8,23
			c0-0.1,0-0.1,0-0.1c0,0,0,0,0.1,0c0.3,0,0.5,0.1,0.8,0.5C8.9,23.5,9,23.5,9,23.5l0,0l0,0c0,0,0-0.1,0-0.2l-0.1-0.2
			c0,0,0-0.1,0-0.1c0,0,0.1-0.1,0.1-0.1h0.1c0.2,0,0.3,0,0.3,0.2l0.3,0.5c0,0.1,0.1,0.1,0.1,0.1c0.1,0,0.1-0.1,0.2-0.1
			c0-0.1,0.1-0.1,0.1-0.1s0.2,0.1,0.4,0.3c0.1,0.1,0.2,0.1,0.3,0.1c0.1,0,0.1,0,0.2,0c0.2-0.1,0.4-0.2,0.7-0.2H12
			c0.1,0,0.1,0.1,0.1,0.1c0,0,0,0,0,0c0,0.1-0.1,0.2-0.3,0.2h-0.1c0,0-0.1,0-0.1,0c-0.3,0.1-0.5,0.2-0.8,0.4
			c-0.1,0.1-0.2,0.1-0.2,0.1c0,0-0.1,0-0.1,0c-0.1,0-0.2,0.1-0.3,0.3C10,24.8,9.8,25,9.5,25.1"/>
		<path class="st0" d="M5.2,22.3c0.1,0,0.2,0,0.2,0.1c0,0,0,0,0,0.1c0,0.1,0,0.1,0.1,0.1h0.4c0,0,0.1,0,0.1,0s0-0.1,0-0.1
			c-0.1-0.2-0.1-0.2-0.2-0.2h0c0,0-0.1,0-0.1,0c-0.2-0.1-0.3-0.4-0.2-0.9c0,0,0-0.1,0-0.1l0,0c0,0-0.1,0-0.1,0.1l0,0.2
			c0,0.1,0,0.1-0.1,0.1c0,0-0.1,0-0.1,0c-0.2-0.1-0.4-0.4-0.4-0.6c0-0.1,0-0.6-0.2-0.3c-0.1,0-0.2-0.2-0.2-0.3s0-0.1-0.1-0.1
			c0,0-0.1,0.1-0.1,0.1c0,0.1,0,0.1-0.1,0.1c0,0-0.1,0-0.1,0.1c0,0,0,0,0.1,0.1c0.1,0,0.3,0.2,0.4,0.6c0,0,0,0,0,0.1H4.1H4.1
			c-0.1,0-0.1,0-0.1,0c0,0,0.1,0.1,0.1,0.1l0.5,0.1c0.2,0,0.3,0.1,0.4,0.3c0,0,0,0.1,0,0.1c0,0,0,0-0.1,0c-0.2,0.1-0.4,0.1-0.6,0.1
			c-0.1,0-0.1,0-0.1,0.1c0,0.1,0,0.1,0.1,0.1c0.1,0,0.1,0,0.2,0l0.3,0L5.2,22.3 M6.9,23.2c0,0-0.1,0-0.1,0c-0.3-0.3-0.7-0.4-1.1-0.3
			c-0.2,0-0.3,0-0.5,0.1c0,0,0,0-0.1,0c0,0,0-0.1,0-0.1c0-0.1,0-0.1-0.1-0.1H5H4.7c-0.4,0.1-0.7-0.1-0.9-0.4c0,0,0-0.1,0-0.1
			c0,0,0,0,0.1,0l0.6-0.1c0,0,0.1,0,0.1-0.1c0,0,0-0.1-0.1-0.1c-0.6-0.1-1-0.3-1.1-0.6c0,0,0-0.1,0-0.1c0,0,0,0,0.1,0l0.5,0
			c0.1,0,0.1,0,0.1,0c0,0,0-0.1-0.1-0.1l-0.5-0.3c-0.1,0-0.1-0.1-0.1-0.1c0,0,0.1-0.1,0.2-0.1h0.2c0.1,0,0.1,0,0.2-0.1
			c0.1-0.1,0-0.2,0-0.3v-0.2C4,20,4,20,4.1,19.9c0.1,0,0.1,0,0.3,0.2c0.2,0.2,0.1,0.1,0.2,0.1c0,0,0.1-0.1,0.1-0.3
			c0-0.2,0.1-0.1,0.1-0.1c0,0,0.1,0,0.1,0C5,20.1,5,20.6,5,21.1c0,0,0,0.1,0,0.1c0,0,0,0,0.1,0c0,0,0.1,0,0.1-0.1l0.1-0.3
			c0-0.1,0.1-0.1,0.1-0.1c0.1,0,0.1,0,0.2,0.1c0.2,0.2,0.2,0.4,0.2,1.1c0,0,0,0.1,0,0.1c0,0,0,0,0.1,0c0,0,0.1,0,0.1-0.2
			c0-0.1,0-0.1,0.1-0.1s0.1,0,0.1,0.1c0.1,0.5,0.3,1,0.8,1.2C7,23.1,7,23.1,6.9,23.2C6.9,23.2,6.9,23.2,6.9,23.2"/>
		<path class="st0" d="M6.7,22c-0.1,0-0.1,0-0.2-0.1c0,0,0-0.1,0-0.1c0.1,0,0.1-0.1,0.2-0.1c0.1,0,0.1,0,0.1,0c0,0,0,0.1,0,0.1
			C7,22,6.9,22,6.7,22L6.7,22z"/>
		<path class="st0" d="M5.5,23.6C5.5,23.6,5.4,23.6,5.5,23.6c-0.1,0-0.2-0.1-0.2-0.2c0-0.1,0-0.1,0.1-0.2c0,0,0.1,0,0.1,0
			c0.1,0,0.2,0.1,0.2,0.2c0,0,0,0.1,0,0.1C5.6,23.6,5.6,23.6,5.5,23.6"/>
		<path class="st0" d="M7.1,23c0,0-0.1-0.1-0.2-0.2c-0.1-0.1-0.2-0.2-0.3-0.2c-0.1,0-0.1-0.1-0.1-0.2c0-0.1,0.1-0.1,0.1-0.1h0.1
			c0.1,0,0.2,0,0.3-0.1h0.1c0.1,0,0.1,0,0.2,0.1c0,0.1,0,0.1,0,0.2c-0.1,0.1-0.1,0.2-0.1,0.3C7.2,22.8,7.2,22.9,7.1,23L7.1,23z"/>
		<path class="st0" d="M5.9,23.7c-0.1,0-0.1,0-0.1-0.1c0-0.1,0-0.2-0.1-0.3c0-0.1,0-0.2,0-0.2c0,0,0.1-0.1,0.1-0.1c0,0,0.1,0,0.1,0
			c0.1,0.1,0.2,0.1,0.3,0.1c0.1,0,0.2,0,0.3,0.1c0,0,0.1,0.1,0,0.1H6.6l0,0c-0.2,0-0.3,0.1-0.4,0.2C6.1,23.6,6.1,23.6,5.9,23.7"/>
		<path class="st0" d="M2.2,19.1C2.2,19.1,2.2,19.2,2.2,19.1c-0.1,0.1,0,0.1,0,0.1c0.2,0,0.4,0,0.4,0.1c0,0,0,0,0.1,0l0,0h0
			c0,0,0-0.1,0-0.1c-0.1-0.1-0.1-0.2,0.1-0.4c0,0,0-0.1,0-0.1l0,0h0H2.8H2.7c-0.1,0-0.1,0-0.2-0.1c-0.1-0.1-0.1-0.3,0-0.5l0.2-0.7
			c0,0,0-0.1,0-0.1l0,0c0,0-0.1,0-0.1,0.1c0,0.1-0.1,0.2-0.1,0.3c0,0.1-0.1,0.3-0.2,0.3c-0.1,0-0.2-0.2-0.3-0.3
			c-0.1-0.2-0.1-0.4,0-0.5c0,0,0-0.1,0-0.1H2c0,0-0.1,0-0.1,0.1s-0.1,0.2-0.1,0.2c0,0-0.1-0.1-0.2-0.2c0,0-0.1,0-0.1,0
			c0,0-0.1,0-0.1,0.1c0,0,0,0.1,0,0.1h0c0.1,0.1,0.2,0.2,0.2,0.3h0c-0.1,0-0.1,0-0.2,0H1.4c0,0-0.1,0-0.1,0.1s0,0.1,0.1,0.1
			c0.4,0,0.8,0.4,0.7,0.6c0,0.1-0.1,0.1-0.1,0.1c-0.1,0-0.2,0-0.3,0h0c0,0-0.1,0-0.1,0.1c0,0,0,0,0,0s0,0.1,0.1,0.1
			c0.5,0,0.8,0.3,0.8,0.4S2.3,19.2,2.2,19.1L2.2,19.1z M3.7,20.4L3.7,20.4c-0.4-0.1-0.6-0.3-0.9-0.5c-0.1-0.2-0.3-0.3-0.5-0.4
			c-0.3,0-0.6-0.2-0.8-0.4c0,0,0-0.1,0-0.1c0,0,0,0,0.1,0h0.2C2,19,2,19,2,19c0-0.1,0-0.1-0.1-0.1c-0.6-0.1-0.9-0.3-0.9-0.5
			c0-0.1,0-0.1,0-0.1s0,0,0.1,0h0.1c0,0,0,0,0.1,0c0,0,0.1,0,0.1,0c0,0,0-0.1-0.1-0.1C1,18,0.8,17.9,0.7,17.7c0-0.1,0-0.1,0-0.2
			c0,0,0.1-0.1,0.1-0.1c0,0,0.1,0,0.1,0c0,0,0.1,0,0.1,0c0,0,0.1,0,0.1,0c0-0.1,0-0.1-0.1-0.2s0-0.1,0-0.1s0.1,0,0.1-0.1h0.1
			c0.1,0,0.2-0.1,0.2-0.1c0,0,0.1,0,0.1,0c0.1,0,0.1,0,0.1,0.1c0,0.1,0.1,0.2,0.2,0.2c0.1,0,0.1,0,0.1-0.1c0-0.1,0.1-0.2,0.1-0.2
			c0,0,0.1,0,0.1,0c0.1,0.1,0.1,0.3,0,0.6c0,0,0,0.1,0,0.1l0,0h0c0.1,0,0.1-0.1,0.2-0.2c0-0.3,0.1-0.4,0.2-0.4h0.1
			c0.1,0,0.2,0.1,0.2,0.1C3,17.5,3,17.8,2.9,18.1c0,0.1,0,0.1,0,0.2c0,0,0.1,0,0.1,0c0,0,0.1,0,0.1-0.1C3.1,18.1,3.2,18,3.2,18
			c0,0,0.1,0,0.1,0c0.1,0.1,0.1,0.3,0,0.4c-0.4,0.5-0.2,1.2,0.3,1.6c0,0,0.1,0.1,0.2,0.1C3.8,20.2,3.8,20.2,3.7,20.4
			C3.8,20.3,3.8,20.3,3.7,20.4"/>
		<path class="st0" d="M3.6,20C3.5,20,3.5,19.9,3.6,20c-0.1-0.4-0.1-0.6-0.2-0.7c0-0.1,0-0.1,0-0.2c0,0,0.1-0.1,0.1-0.1h0.1
			c0.1,0.1,0.3,0.1,0.4,0.1C4,19.1,4,19.2,4,19.3c0,0.1,0,0.1-0.1,0.1c-0.2,0-0.3,0.2-0.3,0.4c0,0,0,0,0,0C3.7,19.9,3.7,20,3.6,20"
			/>
		<path class="st0" d="M3.8,18.9L3.8,18.9c-0.2,0-0.2-0.1-0.3-0.1c0-0.1,0-0.1,0.1-0.2h0.1c0,0,0.1,0,0.2,0c0,0.1,0.1,0.1,0,0.2
			C4,18.9,3.9,18.9,3.8,18.9"/>
		<path class="st0" d="M2.2,20.3c-0.1,0-0.1,0-0.2-0.1c0-0.1,0-0.2,0-0.2c0,0,0.1-0.1,0.1-0.1c0.1,0,0.2,0.1,0.2,0.1c0,0,0,0,0,0
			c0,0.1,0,0.1,0,0.2C2.3,20.3,2.3,20.3,2.2,20.3"/>
		<path class="st0" d="M2.6,20.6c-0.1,0-0.1,0-0.1-0.1c0,0,0-0.1,0-0.1c0-0.1,0.1-0.3,0.1-0.4c0-0.1,0.1-0.2,0.2-0.2l0,0
			c0.1,0,0.1,0,0.2,0.1c0,0.1,0.1,0.2,0.3,0.3c0.2,0.1,0.3,0.2,0.2,0.2c0,0,0,0-0.1,0c0,0-0.1,0-0.1,0c-0.1,0-0.2-0.1-0.2-0.1
			c-0.1,0-0.1,0-0.1,0.1C2.7,20.5,2.7,20.5,2.6,20.6"/>
		<path class="st0" d="M0.5,14c0,0,0,0,0,0.1c0.1,0.2,0.3,0.5,0.2,0.6c0,0-0.1,0.1-0.1,0.1c0,0-0.1,0-0.1,0.1c0,0.1,0,0.1,0,0.1
			c0,0,0.1,0.1,0.1,0.1c0.1,0,0.2,0.1,0.1,0.2v0.2c0.1,0.1,0.2,0.1,0.2,0.1c0,0,0.1,0,0.1-0.1c0-0.1,0-0.2-0.1-0.2
			c-0.1,0-0.1,0-0.1-0.1c0-0.1,0-0.1,0.1-0.2c0.2-0.2,0.2-0.3,0.2-0.3l0,0l0,0H1.2H1.1c-0.1,0-0.1,0-0.2-0.2c0-0.2,0-0.3,0.1-0.3
			c0.2-0.1,0.3-0.2,0.3-0.2c0,0,0,0-0.2,0H1.1l0,0c0,0,0,0,0-0.1c0-0.2,0.1-0.3,0.2-0.5c0-0.1,0.1-0.1,0.1-0.1s-0.1,0-0.1,0
			c-0.1,0-0.2,0.1-0.3,0.1C1,13.5,1,13.6,1,13.7l-0.1,0.4c0,0.1,0,0.1-0.1,0.1c0,0,0,0-0.1,0S0.6,14.1,0.5,14L0.5,14L0.5,14z
			 M1.5,16.7L1.5,16.7c-0.2-0.1-0.2-0.2-0.3-0.3c-0.1-0.5-0.2-0.6-0.4-0.7c-0.2-0.1-0.3-0.2-0.3-0.3c0-0.2-0.1-0.3-0.2-0.3
			c-0.2,0-0.4-0.2-0.4-0.4c0-0.2,0-0.2,0-0.3c0,0,0,0,0.1,0c0.1,0,0.2,0,0.2,0.1h0.1c0,0,0.1,0,0.1,0c0,0,0-0.1,0-0.2l-0.2-0.3
			c-0.1-0.1-0.1-0.3,0.1-0.4c0.1-0.1,0.1-0.1,0.2-0.1c0,0,0,0,0,0c0.1,0.2,0.2,0.2,0.2,0.2c0,0,0.1-0.1,0.1-0.2
			c0-0.3,0.1-0.7,0.3-0.7c0,0,0.1,0,0.1,0c0,0,0.1,0.1,0.2,0.1c0.1,0,0.2-0.1,0.3-0.2c0,0,0.1,0,0.1,0c0,0,0.1,0,0.1,0.1
			c0.1,0.2,0,0.5-0.2,0.6c-0.1,0.1-0.1,0.1-0.1,0.2s0,0,0.1,0c0.1,0,0.2-0.1,0.3-0.1l0.1,0c0,0,0.1,0,0.1,0.1c0,0.3-0.1,0.5-0.6,0.7
			c-0.1,0-0.1,0.1-0.1,0.1c0,0,0,0.1,0.1,0.1c0,0,0,0,0,0c0,0,0.1,0,0.1,0c0.1-0.1,0.2-0.1,0.3-0.1c0.1,0,0.1,0,0.1,0.1
			c0,0.1,0,0.2-0.2,0.4S1.7,15,1.6,15.1c0,0-0.1,0-0.1,0.1c0,0,0,0.1,0,0.1c0.1,0.1,0.1,0.1,0,0.2c-0.2,0.1-0.2,0.5,0,1
			C1.6,16.6,1.6,16.7,1.5,16.7C1.6,16.7,1.6,16.7,1.5,16.7"/>
		<path class="st0" d="M2.2,15.6c-0.1,0-0.1,0-0.2,0C2,15.5,2,15.4,2,15.4c0-0.1,0.1-0.1,0.2-0.1c0.1,0,0.2,0,0.2,0.1
			c0,0.1,0,0.1,0,0.2C2.4,15.5,2.3,15.6,2.2,15.6"/>
		<path class="st0" d="M0.2,16.2c0,0-0.1,0-0.1,0C0,16.1,0,16,0,16c0-0.1,0.1-0.1,0.1-0.2h0.1c0,0,0.1,0,0.1,0c0,0.1,0,0.2,0,0.2
			C0.3,16.2,0.3,16.2,0.2,16.2"/>
		<path class="st0" d="M1.1,16.6L1.1,16.6c-0.2-0.1-0.3-0.2-0.4-0.2c0,0-0.1,0-0.1,0.1H0.5c-0.1,0-0.1,0-0.2-0.1c0,0,0-0.1,0-0.1
			c0.1-0.1,0.1-0.3,0.2-0.4c0-0.1,0.1-0.1,0.1-0.1c0.1,0,0.2,0.1,0.2,0.1c0,0,0,0,0,0l0,0.2l0.2,0.3C1.2,16.5,1.2,16.5,1.1,16.6
			L1.1,16.6z"/>
		<path class="st0" d="M1.8,16.5C1.8,16.5,1.8,16.5,1.8,16.5c-0.1-0.2-0.1-0.3-0.1-0.4c0-0.1,0-0.2,0-0.3c0-0.1,0-0.1,0-0.2
			c0,0,0.1-0.1,0.1-0.1h0.1c0.1,0.1,0.2,0.1,0.3,0.2c0.1,0,0.1,0.1,0.1,0.2c0,0,0,0,0,0C2.4,16,2.3,16,2.2,16
			c-0.1,0-0.2,0.1-0.3,0.3C1.8,16.4,1.8,16.5,1.8,16.5"/>
		<path class="st0" d="M18.8,22.4c-0.1,0-0.1,0-0.1-0.1c0,0,0-0.1,0-0.1c0-0.1,0-0.2-0.1-0.3c-0.1-0.1-0.1-0.2-0.1-0.3
			c0.1-0.1,0.2-0.2,0.3-0.2c0.1,0,0.2,0,0.3,0.1c0.1,0.1,0.1,0.2,0,0.3C19,22,18.9,22.1,19,22.2c0,0,0,0.1,0,0.2
			C18.9,22.4,18.9,22.4,18.8,22.4"/>
		<path class="st0" d="M22,19.5c-0.1,0-0.1,0-0.1-0.1c0,0,0,0,0,0c0-0.1-0.1-0.1-0.2-0.2c-0.1,0-0.2-0.2-0.2-0.3
			c0-0.2,0.2-0.3,0.3-0.3c0.1,0,0.2,0.1,0.3,0.3c0,0.1,0,0.2,0.1,0.2c0.1,0,0.1,0.1,0.1,0.2C22.2,19.5,22.1,19.5,22,19.5"/>
		<path class="st0" d="M23.7,15.8c-0.1,0-0.1,0-0.1-0.1c0-0.1-0.1-0.1-0.2-0.1h-0.1c-0.2,0-0.3-0.2-0.3-0.3c0-0.2,0.1-0.3,0.3-0.3
			c0.1,0,0.2,0.1,0.3,0.2l0,0c0,0.1,0,0.1,0.1,0.2c0.1,0,0.1,0.1,0.1,0.2C23.9,15.6,23.8,15.7,23.7,15.8"/>
		<path class="st0" d="M19.6,23.6c-0.1,0-0.2-0.1-0.3-0.2c0-0.1-0.1-0.2-0.2-0.2c-0.1,0-0.1-0.1-0.1-0.2c0-0.1,0.1-0.2,0.2-0.2
			c0,0,0.1,0,0.1,0.1c0,0.1,0.1,0.1,0.2,0.1h0.1c0.2,0,0.3,0.1,0.3,0.2C19.9,23.4,19.8,23.6,19.6,23.6"/>
		<path class="st0" d="M23.2,20.2c-0.1,0-0.2,0-0.2-0.1c0-0.1-0.1-0.1-0.2-0.1h-0.1h0c0,0-0.1,0-0.1,0c0,0,0-0.1,0-0.1
			c0-0.1,0.1-0.2,0.2-0.2h0.1c0,0,0.1,0,0.1,0c0.1,0,0.1-0.1,0.2-0.1c0.1,0,0.1,0,0.2,0c0.1,0,0.2,0,0.2,0.1c0.1,0.1,0.1,0.3,0,0.4
			C23.4,20.1,23.3,20.2,23.2,20.2"/>
		<path class="st0" d="M25.1,16.1c-0.1,0-0.1,0-0.2,0c0,0-0.1-0.1-0.2-0.1c0,0-0.1,0-0.1,0h-0.1c-0.1,0-0.2,0-0.2-0.1c0,0,0,0,0,0
			c0,0,0-0.1,0-0.1c0,0,0.1-0.1,0.1-0.1h0.1c0.1,0,0.1-0.1,0.2-0.1c0.1-0.1,0.1-0.1,0.2-0.1c0.1,0,0.1,0,0.2,0.1
			c0.1,0.1,0.1,0.3,0,0.4C25.2,16,25.1,16,25.1,16.1"/>
		<path class="st0" d="M15.9,24.6c-0.1,0-0.2,0-0.3,0c-0.3-0.1-0.6-0.2-0.8-0.4c-0.4-0.2-0.7-0.3-1.1-0.3c-0.1,0-0.1-0.1-0.1-0.2
			c0-0.1,0.1-0.1,0.1-0.1c0.5,0.1,0.9,0.2,1.3,0.4c0.1,0,0.2,0,0.3,0c0.1,0,0.2,0,0.3-0.1l0.2-0.1c0.7-0.4,1.5-0.6,2.4-0.8h0.3
			c0.1,0,0.1,0,0.1,0s0,0.1-0.2,0.1h-0.1c-0.2,0-0.3,0.1-0.5,0.1c-0.2,0.1-0.4,0.2-0.6,0.3c-0.3,0.2-0.6,0.3-1,0.4H16
			c-0.3,0-0.4,0.1-0.4,0.2s0.1,0.1,0.2,0.1c0.1,0,0.2,0,0.3,0c0.3,0,0.6-0.1,0.9-0.3c0.5-0.3,1-0.6,1.6-0.7h0.1c0,0,0,0.1-0.1,0.1
			c-0.5,0.4-1.1,0.7-1.7,0.9l-0.4,0.2C16.3,24.5,16.1,24.6,15.9,24.6"/>
		<path class="st0" d="M16.6,25.1c-0.5,0-0.9-0.1-1-0.4c0.1,0,0.3,0,0.4,0c0.5-0.1,1-0.2,1.4-0.5c0.3-0.1,0.6-0.3,0.9-0.3
			c0.1,0,0.2,0,0.2,0c0,0,0,0-0.1,0.1l-1.5,0.6c-0.1,0-0.1,0.1-0.1,0.1c0,0,0,0.1,0.1,0.1c0.4-0.1,0.7-0.2,1-0.4
			c0.2-0.1,0.5-0.3,0.8-0.3h0.1c0.1,0,0.1,0,0.1,0s0,0-0.1,0.1c-0.6,0.4-1.3,0.7-1.9,0.9L16.6,25.1"/>
		<path class="st0" d="M15.3,23.8c-0.2,0-0.4,0-0.4-0.2l0,0c0.3-0.1,0.6-0.2,0.8-0.5c0.2-0.1,0.3-0.3,0.5-0.4c0.1,0,0.2-0.1,0.2-0.1
			c0.1,0,0.2-0.1,0.3-0.1c0.2-0.1,0.4-0.2,0.6-0.2c0.1,0,0.2,0,0.3,0.1c0.1,0.1,0.1,0.1,0.1,0.1h-0.2c-0.2,0-0.5,0.1-0.6,0.3
			L16.3,23C16.2,23,16,23.1,16,23.2c0,0.1,0,0,0.1,0h0.1l0.3-0.1c0.1,0,0.2-0.1,0.3-0.1c0.1-0.1,0.2-0.1,0.4-0.2
			c0.1,0,0.3-0.1,0.4-0.1l0.2-0.1l0,0c0,0,0.1,0,0.1,0.1c0,0,0,0,0,0c0,0.1,0,0.1-0.1,0.1L17.4,23c-0.2,0-0.4,0.1-0.5,0.1
			c-0.5,0.2-1,0.4-1.4,0.6C15.4,23.8,15.3,23.8,15.3,23.8"/>
		<path class="st0" d="M18.9,22.9c-0.1,0-0.1,0-0.2-0.1c0-0.1,0-0.1,0-0.1c0-0.1,0.2-0.2,0.3-0.3c0.4-0.2,0.7-0.6,1-0.9
			c0.3-0.4,0.7-0.8,1.1-1.1c0.2-0.2,0.4-0.3,0.6-0.5c0.1-0.1,0.1-0.1,0.1-0.1c0,0,0,0,0,0.1c-0.1,0.4-0.4,0.7-0.8,0.9
			c-0.5,0.3-0.9,0.7-1.2,1.1c0,0.1-0.1,0.1,0,0.1l0,0l0,0c0,0,0.1,0,0.2-0.1c0.3-0.4,0.6-0.7,1-0.9c0.3-0.2,0.6-0.6,0.8-0.9
			c0-0.1,0-0.1,0-0.1c0,0.1,0,0.1,0,0.2c0,0.4-0.2,0.8-0.5,1c-0.4,0.4-0.9,0.8-1.4,1.1c-0.4,0-0.8,0.2-1,0.5
			C19,22.8,18.9,22.8,18.9,22.9"/>
		<path class="st0" d="M20.6,22.5h-0.4h-0.3c-0.1,0-0.1,0-0.1,0s0-0.1,0.1-0.1c0.9-0.3,1.6-0.9,2.1-1.6c0,0,0.1-0.1,0.1-0.1h0.1
			c0,0,0,0.1,0,0.1c-0.3,0.5-0.7,0.9-1.1,1.2L21,22c-0.1,0-0.1,0.1-0.1,0.2c0,0,0,0,0.1,0c0,0,0,0,0,0H21c0.5-0.4,1-0.8,1.4-1.4
			c0,0,0,0,0,0s0,0,0,0.1c0,0.2-0.1,0.4-0.4,0.7c-0.3,0.3-0.6,0.6-1,0.9C21,22.4,20.8,22.5,20.6,22.5"/>
		<path class="st0" d="M19.4,21.9L19.4,21.9c0,0,0,0,0-0.1c0.1-0.2,0.1-0.4,0.1-0.6c0.1-0.3,0.2-0.5,0.4-0.6c0.4-0.3,0.7-0.6,1-1h0
			c0,0,0,0,0,0.1s-0.1,0.3-0.4,0.5c-0.2,0.2-0.3,0.3-0.4,0.4l-0.4,0.4c0,0.1,0,0.1,0,0.1h0.1c0.1,0,0.1-0.1,0.2-0.1
			c0.2-0.3,0.5-0.6,0.8-0.9c0.1-0.1,0.1-0.1,0.1-0.1c0,0,0,0,0,0.1c-0.1,0.2-0.2,0.4-0.4,0.5c-0.3,0.2-0.5,0.5-0.6,0.8
			C19.8,21.7,19.6,21.9,19.4,21.9"/>
		<path class="st0" d="M22.3,19.9C22.3,19.9,22.2,19.9,22.3,19.9c-0.1-0.1-0.1-0.1-0.1-0.2c0.3-0.4,0.5-0.8,0.5-1.3l0.1-0.3
			c0.2-0.6,0.5-1.2,0.9-1.8c0.1-0.1,0.1-0.1,0.1-0.1c0,0,0,0,0,0.1c-0.1,0.4-0.3,0.8-0.5,1.2c-0.1,0.3-0.3,0.6-0.4,0.9
			c0,0.1,0,0.1,0,0.1h0c0,0,0.1,0,0.1-0.1c0.3-0.4,0.5-0.8,0.6-1.3c0.1-0.3,0.2-0.7,0.4-1c0.1-0.1,0.1-0.1,0.1-0.1c0,0,0,0,0,0.2
			c-0.1,0.8-0.3,1.5-0.7,2.2c-0.1,0.1-0.2,0.2-0.3,0.3c-0.1,0.1-0.2,0.2-0.3,0.3c-0.1,0.3-0.3,0.5-0.5,0.7
			C22.4,19.9,22.3,19.9,22.3,19.9"/>
		<path class="st0" d="M22.5,18.8C22.5,18.8,22.4,18.8,22.5,18.8c-0.6-0.8-0.1-1.8,0.5-2.4c0,0,0.1-0.1,0.1-0.1c0,0,0,0,0,0.1
			c-0.1,0.2-0.2,0.4-0.2,0.6c0,0.2-0.1,0.4-0.2,0.5c0,0.1-0.1,0.1-0.1,0.2c-0.1,0.2-0.1,0.3-0.1,0.3h0c0,0,0.1,0,0.1-0.1
			c0.2-0.3,0.3-0.5,0.4-0.8c0.1-0.2,0.2-0.5,0.3-0.7c0-0.1,0.1-0.1,0.1-0.1h0c0,0,0,0.1,0,0.1c-0.1,0.5-0.3,0.9-0.6,1.3
			c-0.1,0.2-0.2,0.4-0.2,0.7C22.6,18.6,22.5,18.8,22.5,18.8"/>
		<path class="st0" d="M23.2,19.2L23.2,19.2c0,0,0,0,0-0.1c0.4-0.3,0.6-0.7,0.8-1.1c0-0.4,0.2-0.8,0.6-1c0,0,0.1,0,0.1-0.1
			c0,0.1-0.1,0.1-0.1,0.2c-0.2,0.2-0.3,0.5-0.4,0.8c-0.1,0.3-0.2,0.5-0.4,0.8c-0.1,0.1-0.1,0.1-0.1,0.2l0,0l0,0h0.1
			c0.2-0.2,0.3-0.4,0.4-0.7c0.1-0.4,0.3-0.7,0.5-1c0,0,0.1,0,0.1-0.1c0,0,0,0,0,0.2s-0.2,0.4-0.2,0.6c-0.1,0.4-0.3,0.8-0.5,1.1
			c-0.1,0.1-0.2,0.2-0.3,0.2l-0.2,0.1c-0.1,0-0.2,0-0.2,0.1C23.3,19.2,23.2,19.3,23.2,19.2"/>
		<path class="st0" d="M24,15C24,15,23.9,15,24,15c-0.6-0.4-0.7-1.1-0.5-2v-0.1l0,0c0.1,0.1,0.2,0.3,0.1,0.5c-0.1,0.4,0,0.7,0.1,1.1
			c0,0,0.1,0.1,0.1,0.1l0,0l0,0c0,0,0-0.1,0-0.1c-0.1-0.2-0.1-0.5-0.1-0.8c0-0.1,0-0.2,0-0.2c0-0.1,0-0.1,0-0.1l0,0c0,0,0.1,0,0.1,0
			c0.1,0.1,0.1,0.2,0.1,0.6c0,0.2,0,0.4,0,0.6C24,14.7,24,14.8,24,15c0,0,0,0-0.1,0"/>
		<path class="st0" d="M24.1,16C24,16,24,16,24.1,16C24,15.9,24,15.9,24,15.9c0-0.2,0-0.4,0.1-0.6c0.1-0.3,0.1-0.5,0.1-0.8
			c-0.1-0.6,0-1.2,0.3-1.7c0,0,0.1,0,0.1-0.1c0,0,0,0,0.1,0.1c0,0.2,0,0.5-0.1,0.7c-0.1,0.3-0.1,0.7-0.1,1c0,0,0,0.1,0,0.1
			c0,0,0,0,0.1,0c0,0,0.1-0.1,0.1-0.2c-0.1-0.3,0-0.7,0.1-1c0.1-0.2,0.1-0.5,0.1-0.7c0-0.1,0-0.1,0-0.1s0,0,0.1,0
			c0.1,0,0.1,0.2,0.2,0.5c0,0.4,0,0.8-0.2,1.2c-0.1,0.2-0.2,0.3-0.3,0.5c-0.1,0.2-0.2,0.3-0.3,0.5c-0.1,0.1-0.1,0.3-0.1,0.5
			C24.2,15.8,24.1,15.9,24.1,16"/>
		<path class="st0" d="M24.5,15.4L24.5,15.4c0,0,0,0,0-0.1l0.5-0.8c0.2-0.4,0.2-0.9,0.2-1.3c0-0.1,0-0.1,0-0.1l0,0h0
			c0.1,0,0.2,0.1,0.1,0.3l-0.1,0.6l-0.1,0.4c0,0,0,0.1,0,0.1h0c0,0,0.1,0,0.1-0.1c0-0.2,0-0.4,0.1-0.6c0.1-0.3,0.1-0.6,0-0.9
			c0,0,0-0.1,0-0.1l0.1,0.1c0.2,0.2,0.2,0.4,0.1,0.6c0,0.1-0.1,0.3,0,0.4c0,0.2,0,0.4-0.2,0.6l-0.7,0.7
			C24.6,15.4,24.5,15.4,24.5,15.4"/>
	</g>
</g>
</svg>
